<svg xmlns="http://www.w3.org/2000/svg" xmlns:xlink="http://www.w3.org/1999/xlink" viewBox="0 0 336.811 128"><defs><style>.cls-1{fill:#fff;}.cls-2{clip-path:url(#clip-path);}</style><clipPath id="clip-path"><path id="SVGID" class="cls-1" d="M295.431,56.3a2.824,2.824,0,1,1-2.824-2.824A2.823,2.823,0,0,1,295.431,56.3Zm-6.492,3.529a2.824,2.824,0,1,0,2.824,2.824A2.824,2.824,0,0,0,288.939,59.833Zm7.336,0a2.824,2.824,0,1,0,2.824,2.824A2.823,2.823,0,0,0,296.275,59.833Z"/></clipPath></defs><title>logoSpread</title><g id="clear-space"><g id="g14"><g id="g20"><path id="path22" class="cls-1" d="M280.145,104.287c.042.166.093.353.141.5l.464,1.354h-1.211l.464-1.354c.049-.145.1-.332.142-.5m.657-1.681H279.5l-.026.071-2.223,6.118h.819a.867.867,0,0,0,.52-.122.854.854,0,0,0,.281-.437l.344-.972h1.866l.345.971a.829.829,0,0,0,.286.438.877.877,0,0,0,.522.122h.811Z"/></g><g id="g24"><path id="path26" class="cls-1" d="M271.1,107.513l-.1.047.1-.049-.756-1.522a1.1,1.1,0,0,0-.3-.384,1.458,1.458,0,0,0,.29-.382l1.434-2.617H270.31l-1.233,2.3a.232.232,0,0,1-.134.112.821.821,0,0,1-.251.024h-.528v-1.75a.6.6,0,0,0-.681-.681h-.656V108.8h1.337v-2.607h.461a1.077,1.077,0,0,1,.28.023.221.221,0,0,1,.146.12l.974,1.958a.849.849,0,0,0,.371.418,1.253,1.253,0,0,0,.56.088h.809l-.083-.158s-.5-.952-.579-1.124"/></g><g id="g28"><path id="path30" class="cls-1" d="M276.767,102.607h-.529a.6.6,0,0,0-.681.679v1.852h-1.982v-1.852a.6.6,0,0,0-.681-.679h-.638V108.8h1.319v-2.506h1.982V108.8h1.319v-6.188Z"/></g><g id="g32"><path id="path34" class="cls-1" d="M288.118,102.606h-.53a.6.6,0,0,0-.681.681v2.733c0,.092,0,.193.01.293a4.674,4.674,0,0,0-.266-.462l-1.967-3.245h-1.27V108.8h.641a.593.593,0,0,0,.678-.681v-2.725c0-.089,0-.189-.009-.287a4.057,4.057,0,0,0,.267.458l1.973,3.235h1.262v-6.189Z"/></g><g id="g36"><path id="path38" class="cls-1" d="M292.377,106.3l-.813-2.194c-.105-.288-.236-.8-.236-.8h-.017s-.131.507-.236.8l-.805,2.194ZM291,102.642h.656l2.331,6.144H293.8c-.437,0-.556-.087-.714-.506l-.545-1.451h-2.438l-.554,1.451c-.158.419-.268.506-.7.506h-.178Z"/></g><g id="g40"><path id="path42" class="cls-1" d="M302.871,106.3l-.813-2.194c-.1-.288-.236-.8-.236-.8h-.017s-.131.507-.236.8l-.8,2.194Zm-1.381-3.653h.656l2.331,6.144H304.3c-.437,0-.556-.087-.713-.506l-.546-1.451H300.6l-.554,1.451c-.158.419-.268.506-.705.506h-.178Z"/></g><g id="g44"><path id="path46" class="cls-1" d="M314.974,102.642h.62l1.626,3.575c.149.315.306.725.306.725h.018s.157-.41.3-.725l1.626-3.575h.621l.535,6.144h-.177c-.376,0-.507-.157-.533-.533l-.288-3.732c-.027-.332-.027-.857-.027-.857h-.017a8.11,8.11,0,0,1-.315.857l-1.459,3.12h-.55l-1.451-3.12c-.141-.306-.324-.874-.324-.874h-.017s0,.542-.027.874l-.288,3.732c-.026.376-.158.533-.534.533h-.143Z"/></g><g id="g48"><path id="path50" class="cls-1" d="M322.748,106.112l-2.14-3.47h.182a.781.781,0,0,1,.838.489l1.041,1.739c.192.324.375.691.375.691h.018s.183-.367.375-.691l1.04-1.739a.784.784,0,0,1,.84-.489h.181l-2.139,3.47v2.674h-.611Z"/></g><g id="g52"><path id="path54" class="cls-1" d="M298.563,104.134a2.076,2.076,0,0,0-1.889-1.082,2.42,2.42,0,0,0-2.412,2.553,2.513,2.513,0,0,0,2.439,2.648,2.6,2.6,0,0,0,1.531-.466.705.705,0,0,1,.828.047,3.26,3.26,0,0,1-2.368.995,3.076,3.076,0,0,1-3.068-3.224,3.019,3.019,0,0,1,3.033-3.129,2.542,2.542,0,0,1,2.36,1.315,2.44,2.44,0,0,1,.215.62s-.51.061-.669-.277"/></g><g id="g56"><path id="path58" class="cls-1" d="M306.7,108.244h-1.032a.171.171,0,0,1-.192-.192v-4.868H306.7a2.53,2.53,0,0,1,0,5.06m.061-5.6h-1.9v5.611c0,.376.157.533.533.533h1.364a3.072,3.072,0,1,0,0-6.144"/></g><g id="g60"><path id="path62" class="cls-1" d="M313.322,108.244h-2.159a.171.171,0,0,1-.192-.192v-2.089h2.307v-.541h-2.307v-2.238h2.867v-.008c0-.377-.158-.534-.534-.534h-2.945v5.611c0,.376.158.533.533.533h2.657c.376,0,.533-.157.533-.533v-.009Z"/></g><g id="g64"><path id="path66" class="cls-1" d="M259.977,108.405a3.906,3.906,0,0,1,.775-4.088,7.307,7.307,0,0,1,4.416-1.841A5.666,5.666,0,0,1,264.2,107a3.574,3.574,0,0,1-3.844,1.752s2.207-2.813,1.94-2.8a15.79,15.79,0,0,0-2.32,2.452"/></g></g></g><g id="logo"><path id="squarespace-logo-horizontal" class="cls-1" d="M43.344,19.24l-2.278,5.035h.579l.592-1.321h2.721l.586,1.321h.607L43.873,19.24Zm-.885,3.2L43.6,19.9l1.135,2.543ZM26.94,21.5c-1.1-.235-1.357-.5-1.357-.971v-.014c0-.45.414-.807,1.064-.807a2.2,2.2,0,0,1,1.443.542l.328-.435a2.608,2.608,0,0,0-1.757-.614,1.476,1.476,0,0,0-1.642,1.364v.014c0,.821.528,1.193,1.678,1.443,1.05.221,1.3.485,1.3.949v.015c0,.493-.443.85-1.114.85a2.381,2.381,0,0,1-1.714-.707l-.35.414a2.928,2.928,0,0,0,2.042.8c.993,0,1.707-.557,1.707-1.414v-.015C28.568,22.154,28.054,21.747,26.94,21.5Zm7.8.272v-.014a2.55,2.55,0,1,0-5.1.014v.014a2.557,2.557,0,0,0,4.113,2.043l.665.592L34.8,24l-.657-.557A2.66,2.66,0,0,0,34.739,21.776ZM33.732,23.1l-.936-.85-.378.421.935.8a1.912,1.912,0,0,1-1.157.372,1.988,1.988,0,0,1-1.971-2.064v-.014a1.964,1.964,0,0,1,1.957-2.05,1.987,1.987,0,0,1,1.971,2.064v.014A2.137,2.137,0,0,1,33.732,23.1Zm6.006-.914c0,1.092-.586,1.65-1.507,1.65A1.474,1.474,0,0,1,36.7,22.147V19.276h-.565v2.907A2.085,2.085,0,1,0,40.3,22.14V19.276h-.564ZM74.389,23.84a1.972,1.972,0,0,1-1.935-2.064v-.014a1.96,1.96,0,0,1,1.935-2.05,2.172,2.172,0,0,1,1.571.685l.386-.414a2.6,2.6,0,0,0-1.95-.793,2.519,2.519,0,0,0-2.528,2.586v.014a2.493,2.493,0,0,0,2.507,2.571,2.6,2.6,0,0,0,2-.878L76,23.118A2.17,2.17,0,0,1,74.389,23.84ZM68.6,19.24l-2.278,5.035H66.9l.593-1.321h2.721l.586,1.321H71.4L69.126,19.24Zm-.885,3.2L68.854,19.9,69.99,22.44Zm10.533,1.321v-1.75h2.728V21.5H78.245V19.79H81.3v-.514H77.681v5H81.33v-.514Zm-25.024-1.75h2.728V21.5H53.221V19.79h3.05v-.514H52.657v5h3.649v-.514H53.221Zm-2.057-1.235v-.014a1.381,1.381,0,0,0-.385-.986,1.971,1.971,0,0,0-1.421-.5h-2.15v5h.564V22.333H49.2l1.449,1.942h.693l-1.535-2.042A1.463,1.463,0,0,0,51.164,20.776Zm-3.392,1.05V19.8h1.543c.807,0,1.278.372,1.278.986V20.8c0,.643-.536,1.029-1.285,1.029ZM59.485,21.5c-1.1-.235-1.358-.5-1.358-.971v-.014c0-.45.415-.807,1.065-.807a2.2,2.2,0,0,1,1.442.542l.329-.435a2.61,2.61,0,0,0-1.757-.614,1.476,1.476,0,0,0-1.643,1.364v.014c0,.821.529,1.193,1.678,1.443,1.051.221,1.3.485,1.3.949v.015c0,.493-.442.85-1.114.85a2.383,2.383,0,0,1-1.714-.707l-.35.414a2.929,2.929,0,0,0,2.043.8c.993,0,1.707-.557,1.707-1.414v-.015C61.113,22.154,60.6,21.747,59.485,21.5Zm4.9-2.228H62.512v5h.565V22.511h1.214c1.064,0,1.964-.557,1.964-1.635v-.015C66.255,19.876,65.512,19.276,64.384,19.276Zm1.3,1.621c0,.657-.543,1.1-1.371,1.1H63.077V19.8h1.264c.807,0,1.342.372,1.342,1.086ZM16.917,19.68a.431.431,0,0,0-.609-.609l-4.016,4.016a1.463,1.463,0,1,1-2.069-2.068l3.231-3.231a.431.431,0,0,0-.609-.609L9.614,20.41A2.324,2.324,0,0,0,12.9,23.7Zm-5.964,2.677a.429.429,0,0,0,.609,0l4.016-4.016a1.465,1.465,0,0,1,2.069,0,.43.43,0,0,0,.608-.608,2.326,2.326,0,0,0-3.286,0l-4.016,4.016A.43.43,0,0,0,10.953,22.357Zm8.641-.608a.431.431,0,0,0-.609,0l-4.016,4.016a1.465,1.465,0,0,1-2.069,0,.43.43,0,1,0-.608.609,2.326,2.326,0,0,0,3.286,0l4.016-4.016A.43.43,0,0,0,19.594,21.749ZM17.647,20.41l-4.016,4.016a.43.43,0,0,0,.608.609l4.016-4.016a1.463,1.463,0,0,1,2.069,2.069l-3.23,3.23a.43.43,0,0,0,.608.609L20.933,23.7a2.324,2.324,0,0,0-3.286-3.286Z"/><g id="Layer_2" data-name="Layer 2"><g id="Blue"><path class="cls-1" d="M16.129,64.434a.218.218,0,0,0-.306-.041.231.231,0,0,0-.065.081l-1.881,3.761a.223.223,0,0,0,.1.3.217.217,0,0,0,.1.024H16.7a.218.218,0,0,0,.2-.124A3.862,3.862,0,0,0,16.129,64.434Z"/><path class="cls-1" d="M17.508,61.014a4.961,4.961,0,0,0-.289,4.9l1.262,2.525a.225.225,0,0,0,.2.124H21.3a.224.224,0,0,0,.224-.225.229.229,0,0,0-.023-.1l-3.611-7.222a.212.212,0,0,0-.284-.1A.216.216,0,0,0,17.508,61.014Z"/><path class="cls-1" d="M48.219,64.029c0,.931.432,1.67,2.122,2,1.008.211,1.219.374,1.219.71s-.211.538-.921.538a5.2,5.2,0,0,1-2.448-.663v1.517a5,5,0,0,0,2.428.528c1.767,0,2.467-.788,2.467-1.958m0,0c0-1.1-.585-1.623-2.236-1.978-.912-.2-1.133-.4-1.133-.691,0-.364.326-.518.931-.518a5.228,5.228,0,0,1,2.131.528v-1.45a4.822,4.822,0,0,0-2.083-.432c-1.632,0-2.476.71-2.476,1.872"/><polygon class="cls-1" points="70.912 62.253 70.912 68.56 72.256 68.56 72.256 63.751 72.822 65.027 74.723 68.56 76.412 68.56 76.412 62.253 75.068 62.253 75.068 66.323 74.56 65.142 73.033 62.253 70.912 62.253"/><rect class="cls-1" x="60.895" y="62.253" width="1.469" height="6.307"/><path class="cls-1" d="M59.2,66.7c0-1.1-.586-1.623-2.237-1.978-.912-.2-1.133-.4-1.133-.691,0-.364.327-.518.931-.518a5.228,5.228,0,0,1,2.131.528v-1.45a4.822,4.822,0,0,0-2.083-.432c-1.632,0-2.476.71-2.476,1.872,0,.931.432,1.67,2.121,2,1.008.211,1.219.374,1.219.71s-.211.538-.921.538a5.2,5.2,0,0,1-2.448-.663v1.517a5,5,0,0,0,2.428.528c1.767,0,2.468-.788,2.468-1.958"/><polygon class="cls-1" points="36.81 62.253 36.81 68.56 39.829 68.56 40.304 67.197 38.288 67.197 38.288 62.253 36.81 62.253"/><polygon class="cls-1" points="30.846 62.253 30.846 63.616 32.477 63.616 32.477 68.56 33.956 68.56 33.956 63.616 35.703 63.616 35.703 62.253 30.846 62.253"/><path class="cls-1" d="M28.7,62.253H26.765l-2.2,6.307h1.68l.312-1.062a4.182,4.182,0,0,0,2.352,0l.312,1.062H30.9Zm-.969,4.107a2.87,2.87,0,0,1-.808-.116l.808-2.752.809,2.753A2.84,2.84,0,0,1,27.733,66.36Z"/><path class="cls-1" d="M45.033,62.253H43.1L40.9,68.56h1.679l.312-1.062a4.186,4.186,0,0,0,2.353,0l.311,1.062h1.68Zm-.969,4.107a2.875,2.875,0,0,1-.808-.116l.808-2.752.809,2.753A2.84,2.84,0,0,1,44.064,66.36Z"/><path class="cls-1" d="M67.657,62.253H65.719l-2.2,6.307H65.2l.312-1.062a4.182,4.182,0,0,0,2.352,0l.312,1.062h1.68Zm-.97,4.107a2.875,2.875,0,0,1-.808-.116l.808-2.752.809,2.753A2.84,2.84,0,0,1,66.687,66.36Z"/></g></g><path class="cls-1" d="M118.044,21.215a5.5,5.5,0,0,0-.732-.062,1.2,1.2,0,0,0-.782.2.588.588,0,0,0-.241.522.654.654,0,0,0,.08.351.559.559,0,0,0,.156.16,1.216,1.216,0,0,0,.791.158,5.625,5.625,0,0,0,.729-.1h0Z"/><path class="cls-1" d="M123.347,19.586a.86.86,0,0,0-.771.391,1.579,1.579,0,0,0-.218.637h1.924a1.34,1.34,0,0,0-.178-.637A.838.838,0,0,0,123.347,19.586Z"/><path class="cls-1" d="M134.2,19.6a.849.849,0,0,0-.772.375,1.972,1.972,0,0,0-.252,1.08,1.985,1.985,0,0,0,.252,1.083.843.843,0,0,0,.772.379.857.857,0,0,0,.776-.379,1.96,1.96,0,0,0,.256-1.083,1.953,1.953,0,0,0-.255-1.08A.863.863,0,0,0,134.2,19.6Z"/><path class="cls-1" d="M141.482,10.174a9.915,9.915,0,0,0-4.059.863,8.243,8.243,0,0,0-7.182-4.258,8.156,8.156,0,0,0-5.9,2.535,9.04,9.04,0,0,0-15.489,9.067,7.868,7.868,0,0,0,3.885,14.653,7.637,7.637,0,0,0,1.6-.167,8.371,8.371,0,0,0,15.562.379,7.335,7.335,0,0,0,9.613-3.02,9.923,9.923,0,0,0,1.977.2,10.125,10.125,0,0,0,0-20.249Zm-26.55,11.75c0,.818-.593,1.326-1.548,1.326a2.835,2.835,0,0,1-1.392-.326,2.534,2.534,0,0,1-.266-.16c-.009-.013-.049-.029-.02-.106l.188-.522a.076.076,0,0,1,.126-.043c.051.031.091.059.158.1a2.265,2.265,0,0,0,1.23.354c.415,0,.672-.22.672-.516v-.016c0-.324-.4-.445-.855-.586l-.1-.032c-.63-.18-1.3-.439-1.3-1.236v-.016a1.335,1.335,0,0,1,1.485-1.285h.095a2.708,2.708,0,0,1,1.368.368.088.088,0,0,1,.047.107c-.017.047-.176.475-.195.523-.033.089-.126.03-.126.03a2.747,2.747,0,0,0-1.213-.311c-.37,0-.609.2-.609.463v.017c0,.311.408.444.882.6l.082.026c.628.2,1.3.473,1.3,1.229Zm3.91,1.063s-.1.027-.189.048-.415.087-.68.132a4.947,4.947,0,0,1-.819.068,3.255,3.255,0,0,1-.715-.073,1.478,1.478,0,0,1-.549-.238,1.094,1.094,0,0,1-.352-.422,1.4,1.4,0,0,1-.124-.616,1.26,1.26,0,0,1,.535-1.067,1.718,1.718,0,0,1,.564-.261,2.536,2.536,0,0,1,.665-.086c.169,0,.311,0,.421.013,0,0,.213.019.445.052v-.114c0-.359-.075-.53-.222-.643a1.091,1.091,0,0,0-.668-.174,2.728,2.728,0,0,0-1.175.274.341.341,0,0,1-.045.022.068.068,0,0,1-.088-.044l-.191-.513a.085.085,0,0,1,.024-.108,2.609,2.609,0,0,1,.832-.3,4.349,4.349,0,0,1,.723-.067,1.834,1.834,0,0,1,1.239.373,1.51,1.51,0,0,1,.43,1.191V22.9A.085.085,0,0,1,118.842,22.987Zm1.812.078a.079.079,0,0,1-.078.082h-.715a.078.078,0,0,1-.077-.082V17.306a.078.078,0,0,1,.077-.082h.715a.079.079,0,0,1,.078.082Zm4.468-1.853a.079.079,0,0,1-.078.07l-2.7,0a1.1,1.1,0,0,0,1.237,1.215,2.619,2.619,0,0,0,1.108-.2.078.078,0,0,1,.1.046l.176.494c.036.084.008.113-.022.13a2.823,2.823,0,0,1-1.359.269,2.706,2.706,0,0,1-.98-.158,1.734,1.734,0,0,1-1.069-1.135,2.878,2.878,0,0,1-.123-.862,3.021,3.021,0,0,1,.119-.861,1.937,1.937,0,0,1,.365-.7,1.785,1.785,0,0,1,.621-.474,2.105,2.105,0,0,1,.891-.173,1.957,1.957,0,0,1,.773.157,1.556,1.556,0,0,1,.512.39,1.668,1.668,0,0,1,.345.631A2.878,2.878,0,0,1,125.122,21.212Zm.851,1.712a2.534,2.534,0,0,1-.266-.16c-.01-.013-.049-.029-.02-.106l.188-.522a.081.081,0,0,1,.126-.043c.051.032.09.059.157.1a2.268,2.268,0,0,0,1.231.354c.415,0,.673-.22.673-.516v-.016c0-.324-.4-.445-.856-.586l-.1-.032c-.631-.18-1.3-.439-1.3-1.236v-.016a1.334,1.334,0,0,1,1.485-1.285h.095a2.711,2.711,0,0,1,1.368.368.088.088,0,0,1,.047.107c-.017.047-.176.475-.195.523-.034.089-.126.03-.126.03a2.747,2.747,0,0,0-1.213-.311c-.37,0-.609.2-.609.463v.017c0,.311.408.444.882.6l.081.026c.628.2,1.3.473,1.3,1.229v.016c0,.818-.593,1.326-1.548,1.326A2.835,2.835,0,0,1,125.973,22.924Zm6.206-3.883-.1.561a.091.091,0,0,1-.09.079H131.1l-.608,3.44a5.143,5.143,0,0,1-.237.906,1.788,1.788,0,0,1-.35.6,1.255,1.255,0,0,1-.5.347,1.973,1.973,0,0,1-.663.1,1.645,1.645,0,0,1-.395-.037,2.25,2.25,0,0,1-.247-.072.082.082,0,0,1-.041-.108c.019-.054.178-.491.2-.549a.074.074,0,0,1,.1-.043.659.659,0,0,0,.146.047,1.232,1.232,0,0,0,.217.024,1.007,1.007,0,0,0,.317-.046.505.505,0,0,0,.247-.19,1.357,1.357,0,0,0,.188-.384,4.1,4.1,0,0,0,.162-.665l.6-3.377h-.6c-.072,0-.095-.034-.088-.087l.1-.562a.091.091,0,0,1,.091-.078h.612l.033-.183a2.234,2.234,0,0,1,.543-1.224,1.546,1.546,0,0,1,1.143-.41,2.021,2.021,0,0,1,.633.092.072.072,0,0,1,.05.094l-.207.566c-.017.043-.029.069-.117.042-.022-.006-.054-.016-.138-.034a1.17,1.17,0,0,0-.221-.022.931.931,0,0,0-.29.042.56.56,0,0,0-.226.14.8.8,0,0,0-.189.288,3.8,3.8,0,0,0-.143.609h.863C132.163,18.954,132.186,18.987,132.179,19.041Zm3.849,2.873a1.921,1.921,0,0,1-.362.692,1.717,1.717,0,0,1-.613.462,2.27,2.27,0,0,1-1.709,0,1.722,1.722,0,0,1-.612-.462,1.94,1.94,0,0,1-.363-.692,3.2,3.2,0,0,1,0-1.714,1.952,1.952,0,0,1,.363-.693,1.756,1.756,0,0,1,.612-.465,2.221,2.221,0,0,1,1.709,0,1.751,1.751,0,0,1,.613.465,1.926,1.926,0,0,1,.362.693,3.171,3.171,0,0,1,0,1.714Zm3.336-2.82c-.026.074-.157.443-.2.567-.018.047-.047.079-.1.073a1.507,1.507,0,0,0-.3-.037,1.316,1.316,0,0,0-.362.051.836.836,0,0,0-.334.2,1.039,1.039,0,0,0-.236.4,2.377,2.377,0,0,0-.089.708v2.011a.082.082,0,0,1-.082.082h-.709a.082.082,0,0,1-.082-.082V19.04a.078.078,0,0,1,.078-.082h.691a.078.078,0,0,1,.078.082v.328a1.233,1.233,0,0,1,.456-.336,1.338,1.338,0,0,1,.7-.112,2.406,2.406,0,0,1,.452.077A.074.074,0,0,1,139.364,19.094Zm3.374,3.937a3.236,3.236,0,0,1-1.129.2,2.017,2.017,0,0,1-1.574-.593,2.293,2.293,0,0,1-.53-1.587,2.735,2.735,0,0,1,.13-.858,1.98,1.98,0,0,1,.388-.692,1.832,1.832,0,0,1,.642-.465,2.164,2.164,0,0,1,.888-.171,4.06,4.06,0,0,1,.6.04,3.14,3.14,0,0,1,.532.134.071.071,0,0,1,.049.094c-.074.213-.126.351-.195.545-.03.082-.093.055-.093.055a2.646,2.646,0,0,0-.842-.121,1.041,1.041,0,0,0-.885.389,1.694,1.694,0,0,0-.306,1.05,1.526,1.526,0,0,0,.342,1.09,1.214,1.214,0,0,0,.912.341,2.816,2.816,0,0,0,.437-.031,1.75,1.75,0,0,0,.371-.106.076.076,0,0,1,.1.049l.2.54A.073.073,0,0,1,142.738,23.031Zm4-1.819a.08.08,0,0,1-.079.07l-2.7,0a1.1,1.1,0,0,0,1.237,1.215,2.623,2.623,0,0,0,1.108-.2.077.077,0,0,1,.1.046l.177.494c.036.084.007.113-.023.13a2.819,2.819,0,0,1-1.359.269,2.7,2.7,0,0,1-.979-.158,1.765,1.765,0,0,1-.679-.45,1.784,1.784,0,0,1-.391-.685,2.878,2.878,0,0,1-.123-.862,3.021,3.021,0,0,1,.119-.861,1.952,1.952,0,0,1,.365-.7,1.779,1.779,0,0,1,.622-.474,2.1,2.1,0,0,1,.891-.173,1.957,1.957,0,0,1,.773.157,1.577,1.577,0,0,1,.512.39,1.668,1.668,0,0,1,.345.631A2.92,2.92,0,0,1,146.734,21.212Z"/><path class="cls-1" d="M144.959,19.586a.86.86,0,0,0-.771.391,1.565,1.565,0,0,0-.219.637h1.925a1.34,1.34,0,0,0-.179-.637A.837.837,0,0,0,144.959,19.586Z"/><path class="cls-1" d="M211.756,18.529a.922.922,0,1,1-.922-.922A.92.92,0,0,1,211.756,18.529Zm-3.8,1.858v.227a1.772,1.772,0,0,0-1.376-.568,2.809,2.809,0,0,0,0,5.617,1.721,1.721,0,0,0,1.376-.582v.241a.194.194,0,0,0,.2.2H209.3V20.188h-1.149A.2.2,0,0,0,207.955,20.387Zm0,3.418a1.409,1.409,0,0,1-1.149.581,1.533,1.533,0,1,1,0-3.063,1.446,1.446,0,0,1,1.149.581Zm2.2-3.617h1.361v5.333h-1.361Zm20.338-.142a1.769,1.769,0,0,0-1.375.568V17.621h-1.362v7.9H228.9a.2.2,0,0,0,.2-.2v-.241h0a1.757,1.757,0,0,0,1.376.582,2.809,2.809,0,0,0,.014-5.617Zm-.226,4.326a1.388,1.388,0,0,1-1.149-.581v-1.9a1.535,1.535,0,0,1,1.149-.581,1.533,1.533,0,1,1,0,3.063Zm-3.22-2.014v3.177h-1.362V22.514c0-.879-.283-1.234-1.049-1.234a1.524,1.524,0,0,0-1.107.525v3.716h-1.361V20.188h1.078a.2.2,0,0,1,.2.2v.227a1.952,1.952,0,0,1,1.447-.568,2.2,2.2,0,0,1,1.489.511A2.06,2.06,0,0,1,227.046,22.358Zm-8.184-2.312a1.772,1.772,0,0,0-1.376.568V17.621h-1.361v7.9h1.149a.2.2,0,0,0,.2-.2v-.241h0a1.757,1.757,0,0,0,1.376.582,2.809,2.809,0,0,0,.014-5.617Zm-.227,4.326a1.389,1.389,0,0,1-1.149-.581v-1.9a1.539,1.539,0,0,1,1.149-.581,1.533,1.533,0,1,1,0,3.063Zm-3.688-4.326a2.175,2.175,0,0,1,.625.071v1.262a1.82,1.82,0,0,0-1.844.426v3.73h-1.362V20.188h1.149a.2.2,0,0,1,.2.2v.227A1.861,1.861,0,0,1,214.947,20.046Zm-14.14,4.993c-.071-.17-.142-.355-.213-.511-.114-.255-.227-.5-.326-.723l-.014-.014c-.979-2.128-2.029-4.284-3.135-6.411l-.043-.085c-.113-.213-.226-.44-.34-.667a4.084,4.084,0,0,0-.511-.78,2.29,2.29,0,0,0-1.8-.879,2.38,2.38,0,0,0-1.815.851,4.842,4.842,0,0,0-.511.78c-.113.227-.227.454-.34.666l-.043.085c-1.092,2.128-2.156,4.284-3.134,6.411l-.015.029c-.1.227-.212.468-.326.723q-.106.234-.213.511a3.186,3.186,0,0,0-.17,1.531,3.014,3.014,0,0,0,1.844,2.355,2.915,2.915,0,0,0,1.149.227,3.073,3.073,0,0,0,.369-.029,3.724,3.724,0,0,0,1.418-.482,7.163,7.163,0,0,0,1.759-1.475,7.428,7.428,0,0,0,1.759,1.475,3.724,3.724,0,0,0,1.418.482,3.041,3.041,0,0,0,.369.029,2.867,2.867,0,0,0,1.149-.227,3.009,3.009,0,0,0,1.843-2.355A2.676,2.676,0,0,0,200.807,25.039Zm-6.4.737a7,7,0,0,1-1.433-2.638,2.3,2.3,0,0,1-.042-.865,1.365,1.365,0,0,1,.227-.6,1.5,1.5,0,0,1,1.248-.624,1.452,1.452,0,0,1,1.248.624,1.365,1.365,0,0,1,.227.6,2.285,2.285,0,0,1-.042.865A7.214,7.214,0,0,1,194.41,25.776Zm5.659.667a2.107,2.107,0,0,1-1.291,1.659,2.138,2.138,0,0,1-1.077.142,2.771,2.771,0,0,1-1.078-.369,6.592,6.592,0,0,1-1.617-1.375,8.006,8.006,0,0,0,1.716-3.135,3.575,3.575,0,0,0,.071-1.2,2.314,2.314,0,0,0-.383-.965,2.391,2.391,0,0,0-2-1.007,2.427,2.427,0,0,0-2,1.007,2.314,2.314,0,0,0-.383.965,2.946,2.946,0,0,0,.071,1.2,8.234,8.234,0,0,0,1.716,3.149A6.374,6.374,0,0,1,192.2,27.89a2.784,2.784,0,0,1-1.078.368,2.268,2.268,0,0,1-1.077-.141,2.108,2.108,0,0,1-1.291-1.66,2.35,2.35,0,0,1,.127-1.106c.043-.142.114-.284.185-.454.1-.227.213-.468.326-.709l.014-.029c.979-2.113,2.028-4.269,3.121-6.368l.042-.085c.114-.213.227-.44.341-.652a3.118,3.118,0,0,1,.4-.625,1.49,1.49,0,0,1,2.269,0,3.118,3.118,0,0,1,.4.625c.114.212.227.439.341.652l.042.085c1.078,2.113,2.128,4.269,3.106,6.383v.014c.114.227.213.482.326.709.071.17.142.312.185.454A2.4,2.4,0,0,1,200.069,26.443Z"/><path class="cls-1" d="M26.354,111.75c-.779.137-1.572.178-2.392.287l-2.5-7.328v7.643c-.779.082-1.49.191-2.229.3v-14h2.078l2.844,7.943V98.653h2.2v13.1Zm4.307-7.97c.848,0,2.147-.042,2.926-.042v2.188c-.971,0-2.106,0-2.926.041v3.254c1.285-.082,2.57-.192,3.869-.233v2.106l-6.057.478V98.653H34.53v2.187H30.661Zm12-2.94H40.4V110.9c-.738,0-1.476,0-2.187.027V100.84h-2.27V98.653h6.727Zm3.555,2.789h2.994v2.188H46.22v4.963H44.073V98.653h6.111v2.187H46.22Zm7.519,5.236c1.244.028,2.5.124,3.719.192v2.16c-1.955-.123-3.91-.246-5.906-.287V98.653h2.187v10.212Zm5.565,2.5c.7.042,1.435.083,2.146.164V98.653H59.3Zm11.73-12.714-2.775,6.658,2.775,7.342c-.82-.11-1.641-.26-2.461-.4L67,108.209l-1.6,3.719c-.793-.137-1.558-.178-2.351-.287l2.816-6.412-2.543-6.576h2.352l1.435,3.677,1.532-3.677Z"/><g id="layer1"><path id="path3698" class="cls-1" d="M96.575,103.554c0-.8-.752-1.032-1.379-1v.125c.376.009.665.135.665.386,0,.174-.125.395-.5.395a5.692,5.692,0,0,1-1.34-.328,4.815,4.815,0,0,0-1.4-.337,1.337,1.337,0,0,0-1.388,1.311.921.921,0,0,0,.627.878l.058-.1a.423.423,0,0,1-.232-.4.5.5,0,0,1,.559-.453,6.448,6.448,0,0,1,1.485.347,12.178,12.178,0,0,0,1.485.338v1.253l-.617.511v.048l.617.54V108.8a2.286,2.286,0,0,1-2.594-.415l1.659-.8v-2.768l-2.035.906a2.425,2.425,0,0,1,1.071-1.157l-.029-.1a3.059,3.059,0,0,0-2.305,2.806,2.846,2.846,0,0,0,2.845,2.854,2.594,2.594,0,0,0,2.661-2.642l-.1-.009a2.8,2.8,0,0,1-1.042,1.273v-1.678l.656-.521L96,106.5l-.646-.521v-1.253a1.169,1.169,0,0,0,1.225-1.167Zm-3.52,4.484-.491.241a2.448,2.448,0,0,1-.463-1.543,2.812,2.812,0,0,1,.116-.868l.848-.376Zm4.291.9-.54.405.068.077.26-.184.907.829,1.215-.81-.058-.086-.318.2-.4-.395V106.2l.328-.241.694.559v2.459c0,1.533-.337,1.784-1.031,2.035v.106c1.147.048,2.179-.338,2.179-2.3v-2.643l.366-.29-.067-.086-.318.25-.994-.858-1.157.868v-3.336H98.4l-1.436.964v.087a.579.579,0,0,1,.385.627Zm7.406-.434-.993.771-1.032-.81v-.483l1.919-1.282v-.058l-.955-1.466-2.092,1.119v2.661l-.415.319.068.086.376-.3,1.369.994,1.832-1.446Zm-2.025-.666v-1.986l.068-.048.887,1.4Zm9.777-4.648a1.136,1.136,0,0,0-.077-.375h-.1c-.126.337-.28.52-.675.52a1.085,1.085,0,0,1-.762-.366c0,.009-1.157,1.34-1.157,1.34l.1.087.328-.376a1.36,1.36,0,0,0,.993.385v3.375l-2.372-4.108a1.288,1.288,0,0,0-1.06-.771,1.232,1.232,0,0,0-1.148,1.476h.116c.029-.251.154-.521.434-.521a.706.706,0,0,1,.53.405v1.321c-.733,0-1.215.337-1.215.935a.9.9,0,0,0,.665.926l.01-.087a.372.372,0,0,1-.136-.28c0-.221.164-.366.463-.366a1.293,1.293,0,0,1,.212.019v1.717c-.858.009-1.524.481-1.524,1.292a1.156,1.156,0,0,0,1.36,1.1l.009-.1c-.434-.049-.665-.251-.665-.531a.516.516,0,0,1,.569-.53,1.138,1.138,0,0,1,.819.434l1.167-1.3-.1-.088-.3.338a2,2,0,0,0-1.206-.617v-4.06l3.269,5.7h.232V104.4a1.248,1.248,0,0,0,1.215-1.214Zm2.922,5.314-.993.771-1.032-.81v-.482l1.919-1.282v-.059l-.955-1.465-2.092,1.119v2.661l-.415.318.068.087.376-.3,1.369.993,1.832-1.446-.077-.106Zm-2.025-.666v-1.986l.068-.048.887,1.4Zm8.659-2.218-.3.222-.772-.655-.9.81.366.347V109.4l-.983-.626v-2.488l.318-.222-.945-.878-.878.81.367.347v2.9l-.126.077-.858-.608v-2.439c0-.559-.27-.723-.627-.945-.3-.183-.433-.337-.433-.617,0-.231.231-.366.347-.434a.381.381,0,0,1-.009-.1,1.258,1.258,0,0,0-1.186,1.109.919.919,0,0,0,.385.771.933.933,0,0,1,.386.713v2.344l-.434.337.068.087.395-.308,1.07.839,1.013-.685,1.118.685,2.151-1.254V106.1l.53-.385-.068-.1Zm7.511-2.227-.405.366-.906-.791-1.321.984v-.925H126.8l.029,6.566c-.135-.019-.473-.1-.781-.144l-.029-5.487A.961.961,0,0,0,125.01,103a1.179,1.179,0,0,0-1.224,1.137h.116c.038-.241.163-.453.405-.453s.462.155.462.694v1.582c-.742.029-1.166.443-1.166.955a.744.744,0,0,0,.665.829l.019-.1a.293.293,0,0,1-.212-.279c0-.231.222-.328.53-.328h.145v2.507a1.159,1.159,0,0,0-.858,1.129,1.219,1.219,0,0,0,1.331,1.186,6.757,6.757,0,0,0,1.552-.213,7.818,7.818,0,0,1,1.157-.183c.309,0,.444.145.444.367a.388.388,0,0,1-.29.434l.02.1a1.121,1.121,0,0,0,1.051-1.119c0-.617-.588-.983-1.244-.983a8.422,8.422,0,0,0-1.5.222,7.826,7.826,0,0,1-1.3.183c-.28,0-.627-.135-.627-.511,0-.338.28-.608.974-.608a5.755,5.755,0,0,1,1.263.164,6.787,6.787,0,0,0,1.35.241c.588,0,1.119-.212,1.119-1.07v-4.995l.472-.406Zm-1.658,2.5a.678.678,0,0,1-.482.232.739.739,0,0,1-.492-.232v-1.8l.415-.279.559.511Zm0,1.206a.7.7,0,0,0-.482-.2.8.8,0,0,0-.492.2v-1.061a.808.808,0,0,0,.492.212.7.7,0,0,0,.482-.212Zm0,1.89a.621.621,0,0,1-.646.645c-.068,0-.261-.009-.328-.018v-2.373a.757.757,0,0,1,.492-.222.733.733,0,0,1,.482.222Zm5.535-2.874-1.312-.936-1.967,1.129v2.642l-.405.328.058.086.318-.26,1.3.955,2.006-1.225Zm-2.151,2.556v-2.893l1.023.733V109.4Zm6.017-3.385c0,.009-.077,0-.077,0a.576.576,0,0,1-.356.163.643.643,0,0,1-.454-.221h-.077l-.684.752-.7-.752-1.2.829.058.1.318-.212.415.444v2.555l-.54.405.067.077.261-.183.974.829,1.263-.839-.058-.087-.357.212-.472-.425v-2.844a1.043,1.043,0,0,0,.723.415c.54,0,.839-.6.9-1.214Zm4.87,3.886-1.379.906-1.871-2.825,1.322-2.053.086-.01a1.062,1.062,0,0,0,.675.319.711.711,0,0,0,.589-.319s.077.01.077,0a1.237,1.237,0,0,1-1.013,1.283,1.4,1.4,0,0,1-.848-.328l-.126.183,2.025,3,.405-.251Zm-4.455-.231-.54.405.068.077.26-.184.906.829,1.215-.81-.067-.086-.309.2-.4-.395v-6.258h-.087l-1.466.974v.087a.569.569,0,0,1,.415.617Zm11.176-5.381c0-.8-.753-1.032-1.379-1v.125c.376.009.665.135.665.386,0,.174-.125.395-.5.395a5.7,5.7,0,0,1-1.341-.328,4.809,4.809,0,0,0-1.4-.337,1.337,1.337,0,0,0-1.388,1.311.92.92,0,0,0,.626.878l.058-.1a.422.422,0,0,1-.231-.4.5.5,0,0,1,.559-.454,6.513,6.513,0,0,1,1.485.347,12.137,12.137,0,0,0,1.485.338v1.253l-.617.512v.048l.617.54V108.8a2.286,2.286,0,0,1-2.594-.415l1.659-.8v-2.768l-2.035.907a2.416,2.416,0,0,1,1.07-1.158l-.028-.1a3.058,3.058,0,0,0-2.3,2.806,2.846,2.846,0,0,0,2.845,2.854,2.594,2.594,0,0,0,2.661-2.642l-.1-.009a2.8,2.8,0,0,1-1.041,1.273v-1.678l.656-.521-.009-.058-.646-.521v-1.253a1.169,1.169,0,0,0,1.224-1.167Zm-3.52,4.484-.492.241a2.455,2.455,0,0,1-.463-1.543,2.812,2.812,0,0,1,.116-.868l.849-.376-.009,2.546Zm4.908-4.861-.058-.009-.81.685v.058l.685.771h.068l.809-.675-.009-.048-.684-.781Zm1.234,5.989-.308.2-.4-.395v-2.8l.386-.289-.077-.1-.3.231-.7-.839-1.157.811.068.106.289-.194.357.444v2.623l-.521.395.058.077.27-.193.887.81,1.215-.81Zm6.75-.048-.289.193-.434-.4v-2.748l.415-.309-.068-.087-.357.27-.925-.858-1.2.849-.916-.849-1.176.839-.724-.839-1.157.81.058.107.289-.194.4.434v2.623l-.319.318.926.781.9-.81-.366-.347v-2.738l.347-.231.626.578v2.449l-.308.319.935.78.878-.81-.367-.346v-2.759l.309-.2.665.569v2.41l-.27.28.945.858,1.244-.848Zm3.52-.617-.993.771-1.032-.81v-.482l1.919-1.282v-.059l-.955-1.465-2.092,1.119v2.748l1.4,1.012,1.832-1.446Zm-2.025-.666v-1.986l.067-.048.888,1.4Zm5.728-.377-.781-.589a2.058,2.058,0,0,0,.723-1.475c0-.058-.009-.164-.019-.26h-.1a.544.544,0,0,1-.55.395.974.974,0,0,1-.723-.386l-1.822.993v1.476l.675.53c-.685.608-.81,1.032-.81,1.34a.82.82,0,0,0,.53.83l.048-.087a.345.345,0,0,1-.164-.309c0-.135.164-.328.473-.328a1.01,1.01,0,0,1,.762.415c0-.009,1.755-1.051,1.755-1.051Zm-.434-1.216a4.985,4.985,0,0,1-1.244,1.225l-.444-.347v-1.437a1.2,1.2,0,0,0,1.688.559Zm-.714,3.221a1.32,1.32,0,0,0-1.157-.781,1.429,1.429,0,0,0-.762.193,4.506,4.506,0,0,1,1.418-1.3l.5.385Z"/></g><g id="_Group_" data-name="&lt;Group&gt;"><g id="_Group_2" data-name="&lt;Group&gt;"><path id="_Compound_Path_" data-name="&lt;Compound Path&gt;" class="cls-1" d="M267.137,33.174h.162a1.185,1.185,0,0,1-1.282.878,1.507,1.507,0,0,1-1.11-.449,1.6,1.6,0,0,1-.451-1.187,1.634,1.634,0,0,1,.486-1.228,1.6,1.6,0,0,1,1.15-.472,1.557,1.557,0,0,1,.734.176c.224.116.336.259.336.427a.3.3,0,0,1-.062.178.21.21,0,0,1-.179.083c-.166,0-.268-.1-.305-.291a.571.571,0,0,0-.14-.3.6.6,0,0,0-.38-.086.878.878,0,0,0-.76.35,1.792,1.792,0,0,0-.255,1.055,2.043,2.043,0,0,0,.274,1.139.929.929,0,0,0,.83.41A.9.9,0,0,0,267.137,33.174Z"/><path id="_Compound_Path_2" data-name="&lt;Compound Path&gt;" class="cls-1" d="M269.731,31.35a1.586,1.586,0,0,1,.508-.475,1.224,1.224,0,0,1,.616-.159,1.156,1.156,0,0,1,.631.159.728.728,0,0,1,.326.39,2.686,2.686,0,0,1,.075.752v.851a5.664,5.664,0,0,0,.021.66.229.229,0,0,0,.123.171.873.873,0,0,0,.377.055v.174h-1.6v-.174h.072a.542.542,0,0,0,.356-.079.3.3,0,0,0,.094-.187q.014-.106.013-.62v-.926a2.622,2.622,0,0,0-.045-.57.519.519,0,0,0-.213-.3.7.7,0,0,0-.42-.121.874.874,0,0,0-.528.172,1.455,1.455,0,0,0-.411.514v1.236q0,.521.017.641a.248.248,0,0,0,.115.183.72.72,0,0,0,.358.062v.174h-1.567v-.174h.079a.541.541,0,0,0,.352-.077.294.294,0,0,0,.094-.184c.009-.073.014-.28.014-.625V29.793a1.217,1.217,0,0,0-.089-.592c-.059-.083-.2-.124-.424-.124V28.9a2.586,2.586,0,0,0,.973-.159h.078Z"/><path id="_Compound_Path_3" data-name="&lt;Compound Path&gt;" class="cls-1" d="M277.055,33.362h.138q-.033.645-.631.645a.577.577,0,0,1-.4-.135.685.685,0,0,1-.194-.4,3.977,3.977,0,0,1-.689.4,1.421,1.421,0,0,1-.557.135.837.837,0,0,1-.54-.181.582.582,0,0,1-.226-.479.839.839,0,0,1,.379-.678,4.673,4.673,0,0,1,1.048-.566l.585-.237v-.151a1.871,1.871,0,0,0-.041-.463.476.476,0,0,0-.216-.257.827.827,0,0,0-.457-.113q-.567,0-.631.377c-.041.256-.146.385-.317.385-.153,0-.229-.073-.229-.219a.659.659,0,0,1,.3-.462,1.93,1.93,0,0,1,1.693-.1.776.776,0,0,1,.348.343,1.53,1.53,0,0,1,.085.588v1.248a2.06,2.06,0,0,0,.046.562.187.187,0,0,0,.2.124C276.912,33.732,277.015,33.608,277.055,33.362Zm-1.091-1.319-.412.166q-.975.4-.975.995a.57.57,0,0,0,.125.383.411.411,0,0,0,.325.145.948.948,0,0,0,.412-.117,2.988,2.988,0,0,0,.525-.351Z"/><path id="_Compound_Path_4" data-name="&lt;Compound Path&gt;" class="cls-1" d="M279.635,31.5a1.28,1.28,0,0,1,.416-.561.919.919,0,0,1,.564-.227.507.507,0,0,1,.391.155.464.464,0,0,1,.144.317.267.267,0,0,1-.074.188.235.235,0,0,1-.179.079c-.126,0-.221-.093-.287-.278-.045-.127-.113-.189-.2-.189a.622.622,0,0,0-.388.22,1.011,1.011,0,0,0-.29.459,2.591,2.591,0,0,0-.064.651v.55q0,.495.013.622a.262.262,0,0,0,.108.2.61.61,0,0,0,.337.067h.107v.174h-1.64v-.174h.08a.616.616,0,0,0,.322-.062.25.25,0,0,0,.115-.175,6.346,6.346,0,0,0,.018-.649V32c0-.331,0-.54-.013-.624a.264.264,0,0,0-.107-.2.585.585,0,0,0-.335-.07h-.08v-.169a5.285,5.285,0,0,0,.924-.223A2.523,2.523,0,0,1,279.635,31.5Z"/><path id="_Compound_Path_5" data-name="&lt;Compound Path&gt;" class="cls-1" d="M283.493,30.716v2.152q0,.495.015.622a.269.269,0,0,0,.109.2.607.607,0,0,0,.335.067h.079v.174h-1.662v-.174h.128a.533.533,0,0,0,.349-.077.305.305,0,0,0,.095-.184c.008-.073.013-.28.013-.625v-.934a2.419,2.419,0,0,0-.051-.664.247.247,0,0,0-.136-.15,1,1,0,0,0-.3-.03h-.1v-.174a4.6,4.6,0,0,0,1.041-.2Zm-.728-1.575a.383.383,0,0,1,.115-.279.375.375,0,0,1,.277-.117.367.367,0,0,1,.275.117.385.385,0,0,1,.113.279.389.389,0,0,1-.113.283.37.37,0,0,1-.275.116.378.378,0,0,1-.277-.116A.387.387,0,0,1,282.765,29.141Z"/><path id="_Compound_Path_6" data-name="&lt;Compound Path&gt;" class="cls-1" d="M287.377,31.01h-.931v1.866a2.853,2.853,0,0,0,.038.579.417.417,0,0,0,.16.239.435.435,0,0,0,.262.09.566.566,0,0,0,.471-.309l.121.073a.815.815,0,0,1-.345.374.945.945,0,0,1-.461.126.757.757,0,0,1-.478-.16.672.672,0,0,1-.256-.375,3.838,3.838,0,0,1-.051-.754V31.01h-.446v-.171a.783.783,0,0,0,.553-.26,1.253,1.253,0,0,0,.312-.709h.12v.967h.931Z"/><path id="_Compound_Path_7" data-name="&lt;Compound Path&gt;" class="cls-1" d="M290.59,33.343l.72-1.713a2.832,2.832,0,0,0,.154-.42c0-.125-.14-.191-.42-.2v-.173h1.085v.173a.525.525,0,0,0-.369.134,2,2,0,0,0-.291.541l-1.379,3.319a2.5,2.5,0,0,1-.346.647.439.439,0,0,1-.332.172c-.164,0-.245-.074-.245-.223q0-.257.391-.434a1.232,1.232,0,0,0,.307-.174.748.748,0,0,0,.152-.26l.3-.733-1.158-2.488a1.361,1.361,0,0,0-.256-.414.537.537,0,0,0-.347-.087v-.173h1.418v.173c-.249.008-.373.06-.373.155a1.625,1.625,0,0,0,.147.369Z"/><path id="_Compound_Path_8" data-name="&lt;Compound Path&gt;" class="cls-1" d="M293.779,31.033a.4.4,0,0,1,.115-.284.379.379,0,0,1,.288-.123.406.406,0,0,1,.408.407.389.389,0,0,1-.121.285.4.4,0,0,1-.287.118.381.381,0,0,1-.286-.121A.391.391,0,0,1,293.779,31.033Zm0,2.612a.406.406,0,1,1,.69.288.393.393,0,0,1-.287.119.382.382,0,0,1-.286-.122A.4.4,0,0,1,293.779,33.645Z"/><path id="_Compound_Path_9" data-name="&lt;Compound Path&gt;" class="cls-1" d="M302.94,34.052h-.172l-.92-2.45-.941,2.45h-.158L299.8,31.6a1.982,1.982,0,0,0-.242-.5.44.44,0,0,0-.317-.084v-.173h1.41v.173a.819.819,0,0,0-.325.044.153.153,0,0,0-.087.149,1.965,1.965,0,0,0,.148.442l.628,1.656.957-2.464h.146l.928,2.464.68-1.755a1.577,1.577,0,0,0,.11-.336c0-.123-.127-.19-.381-.2v-.173h1v.173a.547.547,0,0,0-.284.07.592.592,0,0,0-.191.3l-.083.219Z"/><path id="_Compound_Path_10" data-name="&lt;Compound Path&gt;" class="cls-1" d="M308.94,33.362h.138q-.034.645-.631.645a.581.581,0,0,1-.405-.135.684.684,0,0,1-.193-.4,3.977,3.977,0,0,1-.689.4,1.429,1.429,0,0,1-.557.135.837.837,0,0,1-.54-.181.583.583,0,0,1-.227-.479.842.842,0,0,1,.379-.678,4.706,4.706,0,0,1,1.049-.566l.585-.237v-.151a1.812,1.812,0,0,0-.042-.463.474.474,0,0,0-.215-.257.829.829,0,0,0-.457-.113q-.567,0-.632.377c-.039.256-.146.385-.316.385-.153,0-.23-.073-.23-.219a.657.657,0,0,1,.305-.462,1.93,1.93,0,0,1,1.693-.1.781.781,0,0,1,.348.343,1.53,1.53,0,0,1,.085.588v1.248a2.119,2.119,0,0,0,.045.562.188.188,0,0,0,.2.124C308.8,33.732,308.9,33.608,308.94,33.362Zm-1.091-1.319-.412.166q-.975.4-.975.995a.564.564,0,0,0,.125.383.409.409,0,0,0,.324.145.949.949,0,0,0,.413-.117,3.025,3.025,0,0,0,.525-.351Z"/><path id="_Compound_Path_11" data-name="&lt;Compound Path&gt;" class="cls-1" d="M312.28,31.01h-.931v1.866a2.853,2.853,0,0,0,.038.579.417.417,0,0,0,.16.239.435.435,0,0,0,.262.09.566.566,0,0,0,.471-.309l.121.073a.815.815,0,0,1-.345.374.943.943,0,0,1-.462.126.75.75,0,0,1-.476-.16.669.669,0,0,1-.257-.375,3.759,3.759,0,0,1-.051-.754V31.01h-.446v-.171a.783.783,0,0,0,.553-.26,1.253,1.253,0,0,0,.312-.709h.12v.967h.931Z"/><path id="_Compound_Path_12" data-name="&lt;Compound Path&gt;" class="cls-1" d="M316.576,31.889H314.42c-.01.148-.015.258-.015.331a2.344,2.344,0,0,0,.255,1.221.837.837,0,0,0,.761.408,1,1,0,0,0,.975-.615h.18a1.052,1.052,0,0,1-.48.6,1.5,1.5,0,0,1-1.522.019,1.573,1.573,0,0,1-.572-.56,1.636,1.636,0,0,1-.223-.878,1.761,1.761,0,0,1,.43-1.215,1.382,1.382,0,0,1,1.076-.485,1.2,1.2,0,0,1,.94.371A1.271,1.271,0,0,1,316.576,31.889Zm-.66-.155a1.138,1.138,0,0,0,.012-.154.649.649,0,0,0-.673-.7q-.688,0-.82.852Z"/><path id="_Compound_Path_13" data-name="&lt;Compound Path&gt;" class="cls-1" d="M319.232,31.5a1.28,1.28,0,0,1,.416-.561.919.919,0,0,1,.564-.227.508.508,0,0,1,.392.155.463.463,0,0,1,.143.317.271.271,0,0,1-.073.188.235.235,0,0,1-.18.079c-.125,0-.221-.093-.286-.278-.045-.127-.113-.189-.2-.189a.624.624,0,0,0-.388.22,1.028,1.028,0,0,0-.29.459,2.639,2.639,0,0,0-.064.651v.55q0,.495.013.622a.268.268,0,0,0,.108.2.616.616,0,0,0,.338.067h.106v.174h-1.639v-.174h.079a.613.613,0,0,0,.322-.062.25.25,0,0,0,.115-.175,5.919,5.919,0,0,0,.019-.649V32c0-.331,0-.54-.014-.624a.266.266,0,0,0-.106-.2.587.587,0,0,0-.336-.07h-.079v-.169a5.257,5.257,0,0,0,.923-.223A2.523,2.523,0,0,1,319.232,31.5Z"/></g><path id="_Compound_Path_14" data-name="&lt;Compound Path&gt;" class="cls-1" d="M293.847,15.28h-2.292a.367.367,0,0,0-.368.367v.994a.367.367,0,0,0,.368.367h2.292a.367.367,0,0,0,.367-.367v-.994A.367.367,0,0,0,293.847,15.28Zm3.745-5.136c-.068-.138-.512-1.016-.512-1.016s.169-.1.246-.138.133-.086.029-.283c-.111-.212-.221-.15-.221-.15s-.149.082-.313.166a.951.951,0,0,0-.773-.444h-.565a.339.339,0,0,0-.268.077.36.36,0,0,1-.283.114h-3.874c-.039,0-.046-.023-.07-.038a.556.556,0,0,0-.608.065c-.06.069-.305.367-.45.531a.7.7,0,0,1-.371.226.144.144,0,0,0,.015-.157l-.057-.114.08-.218.073-.039-.042-.1s-.046.02-.131.062-.083.081-.083.081c-.038.137-.137.144-.137.144s-.222-.42-.253-.473-.091-.222-.833.175-.566.551-.566.551l.253.488-.077.062.184.367s-.046.023-.207.13a.563.563,0,0,0-.336.5V21.388c0,.8.23,1.169,1.124,1.169h8.163c.527,0,1.032-.276,1.032-1.192V10.816C297.761,10.289,297.661,10.281,297.592,10.144Zm-5.862-.887h2.721a.421.421,0,1,1,0,.841H291.73a.421.421,0,0,1,0-.841Zm3.447,8.4s.91,1.589,1.1,1.954c.252.482-.092.689-.092.689a.516.516,0,0,1-.688-.184c-.194-.351-.829-1.471-1.054-1.816-.291-.444-.413-.6-.8-.6h-1.918c-.393,0-.517.153-.81.6-.227.345-.866,1.465-1.063,1.816a.522.522,0,0,1-.693.184s-.346-.207-.092-.689c.192-.365,1.109-1.954,1.109-1.954a1.461,1.461,0,0,0,.231-.643V15.234a1.46,1.46,0,0,0-.231-.642s-.917-1.585-1.109-1.948c-.254-.482.092-.688.092-.688a.522.522,0,0,1,.693.183c.2.351.836,1.467,1.063,1.811.293.444.417.6.81.6h1.918c.39,0,.512-.152.8-.6.225-.344.86-1.46,1.054-1.811a.516.516,0,0,1,.688-.183s.344.206.092.688c-.191.363-1.1,1.948-1.1,1.948a1.468,1.468,0,0,0-.229.642v1.777A1.468,1.468,0,0,0,295.177,17.654Z"/></g><path id="SVGID-2" data-name="SVGID" class="cls-1" d="M295.431,56.3a2.824,2.824,0,1,1-2.824-2.824A2.823,2.823,0,0,1,295.431,56.3Zm-6.492,3.529a2.824,2.824,0,1,0,2.824,2.824A2.824,2.824,0,0,0,288.939,59.833Zm7.336,0a2.824,2.824,0,1,0,2.824,2.824A2.823,2.823,0,0,0,296.275,59.833Z"/><g class="cls-2"><path class="cls-1" d="M292.607,53.48a7.109,7.109,0,1,1-7.109,7.109A7.109,7.109,0,0,1,292.607,53.48Z"/></g><path class="cls-1" d="M280.726,75.208a.779.779,0,0,0,.731.73h.26a.185.185,0,0,0,.184-.184V70.03h0a.183.183,0,0,0-.183-.173h-.807a.183.183,0,0,0-.182.173h0V70.5a2.586,2.586,0,0,0-2.055-.861,3.218,3.218,0,1,0,0,6.435h0a2.652,2.652,0,0,0,2.055-.861Zm-2.052-.265a2.092,2.092,0,1,1,2.046-2.092A2.069,2.069,0,0,1,278.674,74.943Z"/><path class="cls-1" d="M293.876,75.208a.777.777,0,0,0,.73.73h.261a.184.184,0,0,0,.183-.184V70.03h0a.183.183,0,0,0-.182-.173h-.807a.183.183,0,0,0-.183.173h0V70.5a2.588,2.588,0,0,0-2.056-.861,3.218,3.218,0,1,0,0,6.435h0a2.652,2.652,0,0,0,2.056-.861Zm-2.053-.265a2.092,2.092,0,1,1,2.046-2.092A2.069,2.069,0,0,1,291.823,74.943Z"/><path class="cls-1" d="M308.576,75.208a.777.777,0,0,0,.73.73h.261a.185.185,0,0,0,.183-.184V70.03h0a.183.183,0,0,0-.182-.173h-.808a.183.183,0,0,0-.182.173h0V70.5a2.588,2.588,0,0,0-2.056-.861,3.218,3.218,0,1,0,0,6.435h0a2.652,2.652,0,0,0,2.056-.861Zm-2.053-.265a2.092,2.092,0,1,1,2.046-2.092A2.07,2.07,0,0,1,306.523,74.943Z"/><path class="cls-1" d="M302.282,75.405V72.443h0a2.6,2.6,0,0,0-2.733-2.8,1.926,1.926,0,0,0-1.691.862.676.676,0,0,0-.728-.638h-.262a.183.183,0,0,0-.183.183v5.169h0v.556h0a.183.183,0,0,0,.183.173h.807a.147.147,0,0,0,.036,0l.015,0,.018-.006.021-.01.01-.006a.124.124,0,0,0,.022-.018l0,0a.262.262,0,0,0,.022-.025h0a.183.183,0,0,0,.034-.1h0V72.4a1.624,1.624,0,0,1,3.248,0v2.827h0v.556h0a.184.184,0,0,0,.183.173h.807a.137.137,0,0,0,.036,0l.014,0,.02-.006.019-.01.011-.006a.173.173,0,0,0,.021-.017l0,0a.121.121,0,0,0,.021-.024h0a.192.192,0,0,0,.034-.1h0v-.374Z"/><path class="cls-1" d="M283.829,74.389a2.978,2.978,0,0,0,1.692.554c.539,0,1.095-.279,1.095-.765,0-.648-1.213-.749-1.975-1.008a1.815,1.815,0,0,1-1.418-1.662c0-1.327,1.182-1.874,2.285-1.874a3.445,3.445,0,0,1,1.888.56.187.187,0,0,1,.063.262l-.446.638a.178.178,0,0,1-.264.056,2.223,2.223,0,0,0-1.241-.39c-.673,0-1.078.311-1.078.7,0,.462.526.607,1.144.765,1.076.29,2.249.638,2.249,1.957a2.081,2.081,0,0,1-2.3,1.891,3.872,3.872,0,0,1-2.349-.74.2.2,0,0,1-.041-.263l.444-.635A.176.176,0,0,1,283.829,74.389Z"/><g id="g10"><g id="g12"><path id="path14" class="cls-1" d="M108.093,57.711h-4.124a.573.573,0,0,0-.567.483L101.734,68.77a.343.343,0,0,0,.34.4h1.969a.573.573,0,0,0,.567-.484l.449-2.852a.573.573,0,0,1,.566-.484h1.306c2.716,0,4.284-1.315,4.694-3.92a3.179,3.179,0,0,0-.526-2.662,3.825,3.825,0,0,0-3.006-1.053Zm.475,3.862c-.225,1.48-1.356,1.48-2.449,1.48H105.5l.436-2.764a.344.344,0,0,1,.34-.29h.285c.745,0,1.447,0,1.81.425a1.37,1.37,0,0,1,.2,1.149"/><path id="path16" class="cls-1" d="M120.42,61.525h-1.975a.345.345,0,0,0-.339.291l-.087.552-.139-.2a2.808,2.808,0,0,0-2.332-.828,4.541,4.541,0,0,0-4.409,3.971,3.727,3.727,0,0,0,.735,3.034,3.092,3.092,0,0,0,2.488,1,3.778,3.778,0,0,0,2.733-1.131l-.088.549a.344.344,0,0,0,.339.4h1.779a.572.572,0,0,0,.566-.484l1.068-6.76A.343.343,0,0,0,120.42,61.525Zm-2.752,3.844a2.2,2.2,0,0,1-2.229,1.886,1.53,1.53,0,0,1-1.636-1.92,2.211,2.211,0,0,1,2.213-1.9,1.664,1.664,0,0,1,1.317.538,1.71,1.71,0,0,1,.335,1.4"/><path id="path18" class="cls-1" d="M130.938,61.525h-1.984a.577.577,0,0,0-.475.252l-2.737,4.032-1.16-3.875a.576.576,0,0,0-.55-.409h-1.95a.345.345,0,0,0-.327.455l2.186,6.415-2.055,2.9a.344.344,0,0,0,.281.543h1.982a.574.574,0,0,0,.471-.246l6.6-9.528a.344.344,0,0,0-.283-.54"/><path id="path20" class="cls-1" d="M137.509,57.711h-4.125a.573.573,0,0,0-.565.483L131.151,68.77a.342.342,0,0,0,.339.4h2.116a.4.4,0,0,0,.4-.338l.473-3a.572.572,0,0,1,.566-.484h1.305c2.717,0,4.284-1.315,4.694-3.92a3.173,3.173,0,0,0-.526-2.662,3.823,3.823,0,0,0-3.005-1.053Zm.476,3.862c-.225,1.48-1.356,1.48-2.45,1.48h-.621l.437-2.764a.342.342,0,0,1,.339-.29h.285c.744,0,1.447,0,1.81.425a1.374,1.374,0,0,1,.2,1.149"/><path id="path22-2" data-name="path22" class="cls-1" d="M149.836,61.525h-1.974a.344.344,0,0,0-.339.291l-.087.552-.139-.2a2.807,2.807,0,0,0-2.332-.828,4.541,4.541,0,0,0-4.408,3.971,3.727,3.727,0,0,0,.735,3.034,3.092,3.092,0,0,0,2.487,1,3.778,3.778,0,0,0,2.734-1.131l-.088.549a.344.344,0,0,0,.34.4h1.778a.573.573,0,0,0,.566-.484l1.068-6.76a.345.345,0,0,0-.341-.4Zm-2.753,3.844a2.2,2.2,0,0,1-2.228,1.886,1.53,1.53,0,0,1-1.636-1.92,2.211,2.211,0,0,1,2.213-1.9,1.664,1.664,0,0,1,1.317.538,1.7,1.7,0,0,1,.334,1.4"/><path id="path24" class="cls-1" d="M152.164,58,150.472,68.77a.342.342,0,0,0,.338.4h1.7a.571.571,0,0,0,.566-.484l1.67-10.574a.344.344,0,0,0-.339-.4H152.5a.346.346,0,0,0-.339.291"/></g></g><path class="cls-1" d="M212.713,108.261c0,1.392-1.732,1.309-1.732,1.309H209.25v-2.514h1.731c1.783-.011,1.732,1.2,1.732,1.2m-3.463-5.039h1.319c1.371.072,1.319,1.092,1.319,1.092,0,1.268-1.515,1.289-1.515,1.289H209.25Zm3.143,2.875a2.045,2.045,0,0,0,1.175-1.845s.18-2.195-2.728-2.463h-3.229v9.2h3.7s3.092.01,3.092-2.6a2.388,2.388,0,0,0-2.01-2.3m-8.353-6.111h13.589v12.8H204.04Z"/><path class="cls-1" d="M197.042,108.261c0,1.392-1.731,1.309-1.731,1.309H193.58v-2.514h1.731c1.783-.011,1.731,1.2,1.731,1.2m-3.462-5.039H194.9c1.371.072,1.319,1.092,1.319,1.092,0,1.268-1.515,1.289-1.515,1.289H193.58Zm3.143,2.875a2.045,2.045,0,0,0,1.175-1.845s.18-2.195-2.729-2.463h-3.228v9.2h3.7s3.092.01,3.092-2.6a2.388,2.388,0,0,0-2.01-2.3m-8.353-6.111h13.588v12.8H188.37Z"/><path class="cls-1" d="M230.527,102.449v1.7a7.749,7.749,0,0,0-3.494-1.041s-3.422-.067-3.576,3.28c0,0-.124,3.078,3.535,3.254a6.021,6.021,0,0,0,3.617-1.144v1.762a7.338,7.338,0,0,1-6.029.381,4.6,4.6,0,0,1,.691-8.719,6.51,6.51,0,0,1,2.71-.206,9.845,9.845,0,0,1,2.546.732M219.71,112.791H233.3v-12.8H219.71Z"/><path class="cls-1" d="M182.2,55.88a5.942,5.942,0,0,0-3.162,3.988c-.569,2.431,1.8,3.459,1.991,3.122.228-.4-.424-.53-.559-1.791a5.3,5.3,0,0,1,1.537-4.248c.178-.148.169.058.169.44,0,.683-.038,6.816-.038,8.1a11.326,11.326,0,0,1-.2,2.819c-.13.547-.339.917-.18,1.06.177.159.933-.22,1.371-.831a4.557,4.557,0,0,0,.742-2.569c.04-1.153.038-2.981.04-4.024,0-.957.016-3.758-.017-5.442-.008-.413-1.154-.847-1.694-.62m45.9,8.1a5.293,5.293,0,0,1-.488,2.1c-.479.961-1.473,1.259-1.894-.122a7.812,7.812,0,0,1-.076-3.062c.168-1.07.638-1.879,1.416-1.806s1.127,1.061,1.042,2.889Zm-12.936,5.586c-.01,1.5-.245,2.808-.75,3.189a.9.9,0,0,1-1.48-.957c.177-.966,1.011-1.953,2.232-3.158,0,0,0,.275,0,.926Zm-.195-5.595a5.953,5.953,0,0,1-.488,2.11c-.479.961-1.48,1.261-1.9-.122a6.954,6.954,0,0,1-.075-2.94c.182-1,.623-1.928,1.416-1.928.771,0,1.151.846,1.042,2.88Zm-7.494-.012a5.355,5.355,0,0,1-.488,2.122c-.492.954-1.465,1.257-1.894-.122a7.381,7.381,0,0,1-.076-3.083c.191-1.087.669-1.858,1.416-1.785.767.075,1.14,1.061,1.042,2.868Zm34.342,1.014c-.187,0-.273.194-.344.519-.245,1.131-.5,1.386-.836,1.386-.372,0-.706-.56-.792-1.681a37.394,37.394,0,0,1,.03-4.119c.017-.332-.074-.66-.964-.983-.383-.139-.939-.344-1.216.325a16.663,16.663,0,0,0-1.162,4c0,.032-.042.038-.049-.035a30.888,30.888,0,0,1-.161-3.239.973.973,0,0,0-.481-.927c-.261-.164-1.051-.455-1.336-.109a7.284,7.284,0,0,0-.83,1.947c-.241.734-.409,1.23-.409,1.23s0-1.98.006-2.731a.383.383,0,0,0-.251-.394,5.255,5.255,0,0,0-1-.2c-.272,0-.339.152-.339.374,0,.029-.043,2.606-.043,4.408,0,.079,0,.164,0,.255-.151.828-.639,1.952-1.17,1.952s-.782-.47-.782-2.618c0-1.253.038-1.8.056-2.7.011-.522.032-.923.031-1.014,0-.279-.487-.42-.711-.471a2.072,2.072,0,0,0-.575-.064.359.359,0,0,0-.37.349c0,.1,0,.3,0,.3a2.083,2.083,0,0,0-1.027-.832,1.975,1.975,0,0,0-2.276.859,5.221,5.221,0,0,0-.926,2.646,7.863,7.863,0,0,0,.1,2.4c-.187.81-.535,1.142-.916,1.142-.553,0-.954-.9-.907-2.464a14.091,14.091,0,0,1,.461-2.79.906.906,0,0,0-.178-.9,1.115,1.115,0,0,0-1.108-.18c-.391.092-.949.19-1.46.266a2.9,2.9,0,0,0,.056-.34c.133-1.137-1.1-1.045-1.5-.682a1.4,1.4,0,0,0-.456.933,1.1,1.1,0,0,0,.5,1.074,11.107,11.107,0,0,1-1.169,2.905,12.489,12.489,0,0,1-.728,1.144c0-.133,0-.265,0-.4-.006-1.879.019-3.358.03-3.891s.032-.912.03-1c0-.2-.122-.281-.37-.379a2.638,2.638,0,0,0-.747-.167c-.339-.026-.543.154-.538.367,0,.04,0,.287,0,.287a2.079,2.079,0,0,0-1.026-.833,1.976,1.976,0,0,0-2.277.859,5.658,5.658,0,0,0-.925,2.637,8.1,8.1,0,0,0,.047,2.262c-.128.632-.5,1.293-.911,1.293-.532,0-.834-.47-.834-2.618,0-1.253.038-1.8.056-2.7.011-.522.032-.923.03-1.014,0-.279-.486-.419-.71-.471a2.028,2.028,0,0,0-.594-.063.382.382,0,0,0-.35.336v.317a2.079,2.079,0,0,0-1.026-.833,1.982,1.982,0,0,0-2.276.859,5,5,0,0,0-.926,2.625,8.829,8.829,0,0,0-.069,1.147c-.166,1.014-.9,2.183-1.5,2.183-.35,0-.684-.68-.684-2.129,0-1.931.119-4.679.14-4.944,0,0,.756-.013.9-.014.378,0,.72,0,1.222-.021.253-.013.5-.918.235-1.03a9.09,9.09,0,0,0-1.282-.1c-.278-.006-1.052-.063-1.052-.063s.07-1.824.086-2.017c.013-.161-.194-.243-.314-.293a4.231,4.231,0,0,0-.856-.245c-.424-.088-.617,0-.655.356-.056.544-.086,2.137-.086,2.137-.311,0-1.375-.061-1.687-.061-.29,0-.6,1.245-.2,1.261.461.017,1.263.033,1.8.049,0,0-.024,2.793-.024,3.656,0,.092,0,.18,0,.266a4.219,4.219,0,0,1-1.325,2.351,2.3,2.3,0,0,0-1.046-2.41c-.3-.237-.893-.685-1.556-1.175a4.017,4.017,0,0,0,.725-1.141c.241-.539.252-1.157-.341-1.293a1.771,1.771,0,0,0-2.027,1.262,1.463,1.463,0,0,0,.279,1.494c.026.033.055.067.085.1-.221.426-.524,1-.781,1.444-.714,1.235-1.253,2.211-1.661,2.211-.325,0-.321-.991-.321-1.92,0-.8.059-2,.106-3.249a.905.905,0,0,0-.535-.859,2.413,2.413,0,0,0-.917-.383c-.389,0-1.509.053-2.567,3.114-.133.386-.4,1.089-.4,1.089l.022-3.682a.256.256,0,0,0-.151-.226,2.6,2.6,0,0,0-1.078-.3c-.2,0-.3.094-.3.281l-.037,5.759a8.524,8.524,0,0,0,.054,1.171,1.218,1.218,0,0,0,.2.514.57.57,0,0,0,.351.224c.153.032.992.14,1.036-.181a11.732,11.732,0,0,1,.5-2.351,9.342,9.342,0,0,1,2-4.011c.073-.073.157-.078.153.042-.018.529-.081,1.852-.124,2.976-.113,3.007.434,3.564,1.215,3.564.6,0,1.442-.594,2.345-2.1.564-.938,1.111-1.857,1.5-2.519.274.253.581.526.889.818a1.98,1.98,0,0,1,.792,1.932c-.119.467-.567.948-1.364.48-.232-.136-.331-.242-.565-.4a.4.4,0,0,0-.432-.02A1.538,1.538,0,0,0,193.4,67c-.094.345.251.527.609.687a4.724,4.724,0,0,0,1.393.275c1.646.056,2.965-.794,3.883-2.987.165,1.894.864,2.965,2.079,2.965.812,0,1.627-1.05,1.983-2.083a3.673,3.673,0,0,0,.449,1.1,2.148,2.148,0,0,0,3.665-.1,2.346,2.346,0,0,0,.325-.529,1.716,1.716,0,0,0,1.64,1.605,1.812,1.812,0,0,0,1.693-1.291,2.988,2.988,0,0,0,.171.311,2.148,2.148,0,0,0,3.665-.1c.043-.059.08-.112.113-.16l.027.781-.84.77c-1.406,1.29-2.476,2.269-2.554,3.409a1.928,1.928,0,0,0,1.969,2.065,2.515,2.515,0,0,0,2.257-1.181,6.735,6.735,0,0,0,.7-3.4c-.008-.549-.022-1.246-.033-1.994A16.02,16.02,0,0,0,218.162,65a16.206,16.206,0,0,0,1.464-3.136s.521,0,1.076-.031c.177-.012.228.024.2.154a9.069,9.069,0,0,0-.1,4.411,2.131,2.131,0,0,0,1.9,1.539,1.883,1.883,0,0,0,1.6-1.214,2.562,2.562,0,0,0,.127.232c.936,1.483,2.746,1.162,3.665-.1a3.7,3.7,0,0,0,.325-.529,1.782,1.782,0,0,0,1.7,1.611c.571,0,1.113-.234,1.553-1.275a4.805,4.805,0,0,0,.093.951c.028.073.19.163.309.207a2.353,2.353,0,0,0,1.252.062c.137-.027.243-.137.258-.42a16.689,16.689,0,0,1,.24-2.919,8.6,8.6,0,0,1,.9-2.46c.094-.167.2-.2.2-.018.008.359.026,1.413.172,2.828a6.468,6.468,0,0,0,.362,1.851,1.018,1.018,0,0,0,1.021.583c.2,0,.624-.055.586-.41a11.3,11.3,0,0,1,.386-2.774,13.593,13.593,0,0,1,.8-2.238c.054-.122.079-.025.078-.007a20.113,20.113,0,0,0,.181,4.181c.381,1.671,1.483,1.858,1.867,1.858.82,0,1.491-.623,1.717-2.264.054-.395-.027-.7-.268-.7"/></g></svg>