<?xml version="1.0" encoding="utf-8"?>
<!-- Generator: Adobe Illustrator 22.0.1, SVG Export Plug-In . SVG Version: 6.00 Build 0)  -->
<svg version="1.1" id="Layer_1" xmlns="http://www.w3.org/2000/svg" xmlns:xlink="http://www.w3.org/1999/xlink" x="0px" y="0px"
	 viewBox="0 0 336.8 128" style="enable-background:new 0 0 336.8 128;" xml:space="preserve">
<style type="text/css">
	.st0{fill:#FFFFFF;}
	.st1{clip-path:url(#SVGID_2_);}
	.st2{opacity:0.1;fill:#FFFFFF;}
	.st3{fill:none;stroke:#FFFFFF;stroke-miterlimit:10;}
</style>
<title>logoSpread</title>
<g id="clear-space">
	<g id="g14">
		<g id="g20">
			<path id="path22" class="st0" d="M280.1,104.3c0,0.2,0.1,0.4,0.1,0.5l0.5,1.4h-1.2l0.5-1.4C280.1,104.6,280.1,104.5,280.1,104.3
				 M280.8,102.6h-1.3l0,0.1l-2.2,6.1h0.8c0.2,0,0.4,0,0.5-0.1c0.1-0.1,0.2-0.3,0.3-0.4l0.3-1h1.9l0.3,1c0,0.2,0.1,0.3,0.3,0.4
				c0.2,0.1,0.3,0.1,0.5,0.1h0.8L280.8,102.6z"/>
		</g>
		<g id="g24">
			<path id="path26" class="st0" d="M271.1,107.5l-0.1,0L271.1,107.5l-0.8-1.5c-0.1-0.1-0.2-0.3-0.3-0.4c0.1-0.1,0.2-0.2,0.3-0.4
				l1.4-2.6h-1.5l-1.2,2.3c0,0.1-0.1,0.1-0.1,0.1c-0.1,0-0.2,0-0.3,0h-0.5v-1.8c0-0.3-0.2-0.6-0.5-0.7c-0.1,0-0.1,0-0.2,0h-0.7v6.2
				h1.3v-2.6h0.5c0.1,0,0.2,0,0.3,0c0.1,0,0.1,0.1,0.1,0.1l1,2c0.1,0.2,0.2,0.3,0.4,0.4c0.2,0.1,0.4,0.1,0.6,0.1h0.8l-0.1-0.2
				C271.7,108.6,271.2,107.7,271.1,107.5"/>
		</g>
		<g id="g28">
			<path id="path30" class="st0" d="M276.8,102.6h-0.5c-0.3,0-0.6,0.2-0.7,0.5c0,0.1,0,0.1,0,0.2v1.9h-2v-1.9c0-0.3-0.2-0.6-0.5-0.7
				c-0.1,0-0.1,0-0.2,0h-0.6v6.2h1.3v-2.5h2v2.5h1.3v-6.2L276.8,102.6z"/>
		</g>
		<g id="g32">
			<path id="path34" class="st0" d="M288.1,102.6h-0.5c-0.3,0-0.6,0.2-0.7,0.5c0,0.1,0,0.1,0,0.2v2.7c0,0.1,0,0.2,0,0.3
				c-0.1-0.2-0.2-0.3-0.3-0.5l-2-3.2h-1.3v6.2h0.6c0.3,0.1,0.6-0.2,0.7-0.5c0-0.1,0-0.1,0-0.2v-2.7c0-0.1,0-0.2,0-0.3
				c0.1,0.2,0.2,0.3,0.3,0.5l2,3.2h1.3v-6.2L288.1,102.6z"/>
		</g>
		<g id="g36">
			<path id="path38" class="st0" d="M292.4,106.3l-0.8-2.2c-0.1-0.3-0.2-0.8-0.2-0.8h0c0,0-0.1,0.5-0.2,0.8l-0.8,2.2H292.4z
				 M291,102.6h0.7l2.3,6.1h-0.2c-0.4,0-0.6-0.1-0.7-0.5l-0.5-1.5h-2.4l-0.6,1.5c-0.2,0.4-0.3,0.5-0.7,0.5h-0.2L291,102.6z"/>
		</g>
		<g id="g40">
			<path id="path42" class="st0" d="M302.9,106.3l-0.8-2.2c-0.1-0.3-0.2-0.8-0.2-0.8h0c0,0-0.1,0.5-0.2,0.8l-0.8,2.2H302.9z
				 M301.5,102.6h0.7l2.3,6.1h-0.2c-0.4,0-0.6-0.1-0.7-0.5l-0.5-1.5h-2.4l-0.6,1.5c-0.2,0.4-0.3,0.5-0.7,0.5h-0.2L301.5,102.6z"/>
		</g>
		<g id="g44">
			<path id="path46" class="st0" d="M315,102.6h0.6l1.6,3.6c0.1,0.3,0.3,0.7,0.3,0.7h0c0,0,0.2-0.4,0.3-0.7l1.6-3.6h0.6l0.5,6.1
				h-0.2c-0.4,0-0.5-0.2-0.5-0.5l-0.3-3.7c0-0.3,0-0.9,0-0.9h0c-0.1,0.3-0.2,0.6-0.3,0.9l-1.5,3.1h-0.5l-1.5-3.1
				c-0.1-0.3-0.3-0.9-0.3-0.9h0c0,0,0,0.5,0,0.9l-0.3,3.7c0,0.4-0.2,0.5-0.5,0.5h-0.1L315,102.6z"/>
		</g>
		<g id="g48">
			<path id="path50" class="st0" d="M322.7,106.1l-2.1-3.5h0.2c0.4-0.1,0.7,0.2,0.8,0.5l1,1.7c0.2,0.3,0.4,0.7,0.4,0.7h0
				c0,0,0.2-0.4,0.4-0.7l1-1.7c0.1-0.3,0.5-0.5,0.8-0.5h0.2l-2.1,3.5v2.7h-0.6V106.1z"/>
		</g>
		<g id="g52">
			<path id="path54" class="st0" d="M298.6,104.1c-0.4-0.7-1.1-1.1-1.9-1.1c-1.3,0-2.4,1.1-2.4,2.4c0,0,0,0.1,0,0.1
				c-0.1,1.4,1,2.6,2.4,2.6c0,0,0,0,0.1,0c0.5,0,1.1-0.2,1.5-0.5c0.3-0.2,0.6-0.1,0.8,0c-0.6,0.6-1.5,1-2.4,1
				c-1.7,0-3.1-1.4-3.1-3.1c0,0,0-0.1,0-0.1c-0.1-1.7,1.2-3.1,2.9-3.1c0,0,0.1,0,0.1,0c1-0.1,1.9,0.5,2.4,1.3
				c0.1,0.2,0.2,0.4,0.2,0.6C299.2,104.4,298.7,104.5,298.6,104.1"/>
		</g>
		<g id="g56">
			<path id="path58" class="st0" d="M306.7,108.2h-1c-0.1,0-0.2-0.1-0.2-0.1c0,0,0,0,0,0v-4.9h1.2c1.4,0,2.5,1.1,2.5,2.5
				C309.2,107.1,308.1,108.2,306.7,108.2 M306.8,102.6h-1.9v5.6c0,0.4,0.2,0.5,0.5,0.5h1.4c1.7,0,3.1-1.4,3.1-3.1
				S308.5,102.6,306.8,102.6C306.8,102.6,306.8,102.6,306.8,102.6"/>
		</g>
		<g id="g60">
			<path id="path62" class="st0" d="M313.3,108.2h-2.2c-0.1,0-0.2-0.1-0.2-0.1c0,0,0,0,0,0V106h2.3v-0.5H311v-2.2h2.9v0
				c0-0.4-0.2-0.5-0.5-0.5h-2.9v5.6c0,0.4,0.2,0.5,0.5,0.5h2.7c0.4,0,0.5-0.2,0.5-0.5v0H313.3z"/>
		</g>
		<g id="g64">
			<path id="path66" class="st0" d="M260,108.4c-0.5-1.4-0.2-3,0.8-4.1c1.2-1.1,2.8-1.7,4.4-1.8c0.3,1.6,0,3.2-1,4.5
				c-0.8,1.4-2.3,2.1-3.8,1.8c0,0,2.2-2.8,1.9-2.8C261.4,106.7,260.7,107.5,260,108.4"/>
		</g>
	</g>
</g>
<g id="logo">
	<path id="squarespace-logo-horizontal" class="st0" d="M43.3,19.2l-2.3,5h0.6l0.6-1.3H45l0.6,1.3h0.6l-2.3-5H43.3z M42.5,22.4
		l1.1-2.5l1.1,2.5L42.5,22.4z M26.9,21.5c-1.1-0.2-1.4-0.5-1.4-1v0c0-0.5,0.4-0.8,1.1-0.8c0.5,0,1,0.2,1.4,0.5l0.3-0.4
		c-0.5-0.4-1.1-0.6-1.8-0.6c-0.8-0.1-1.5,0.5-1.6,1.3c0,0,0,0,0,0.1v0c0,0.8,0.5,1.2,1.7,1.4c1,0.2,1.3,0.5,1.3,0.9v0
		c0,0.5-0.4,0.9-1.1,0.9c-0.6,0-1.3-0.2-1.7-0.7l-0.4,0.4c0.6,0.5,1.3,0.8,2,0.8c1,0,1.7-0.6,1.7-1.4v0
		C28.6,22.2,28.1,21.7,26.9,21.5z M34.7,21.8L34.7,21.8c0-1.4-1.1-2.6-2.6-2.6c-1.4,0-2.5,1.1-2.5,2.6v0c0,1.4,1.1,2.6,2.5,2.6
		c0.6,0,1.1-0.2,1.6-0.5l0.7,0.6l0.4-0.4l-0.7-0.6C34.5,23,34.7,22.4,34.7,21.8L34.7,21.8z M33.7,23.1l-0.9-0.9l-0.4,0.4l0.9,0.8
		c-0.3,0.2-0.7,0.4-1.2,0.4c-1.1,0-2-0.9-2-2c0,0,0,0,0-0.1v0c0-1.1,0.8-2,1.9-2c0,0,0.1,0,0.1,0c1.1,0,2,0.9,2,2c0,0,0,0,0,0.1v0
		C34.2,22.3,34,22.7,33.7,23.1z M39.7,22.2c0,1.1-0.6,1.6-1.5,1.6c-0.8,0-1.5-0.6-1.5-1.4c0-0.1,0-0.2,0-0.3v-2.9h-0.6v2.9
		c0,1.2,0.9,2.1,2,2.2c1.2,0,2.1-0.9,2.2-2c0-0.1,0-0.1,0-0.2v-2.9h-0.6L39.7,22.2z M74.4,23.8c-1.1,0-2-0.9-1.9-2c0,0,0,0,0-0.1v0
		c0-1.1,0.8-2,1.9-2c0,0,0,0,0.1,0c0.6,0,1.2,0.3,1.6,0.7l0.4-0.4c-0.5-0.5-1.2-0.8-1.9-0.8c-1.4,0-2.5,1.1-2.5,2.5c0,0,0,0.1,0,0.1
		v0c0,1.4,1,2.5,2.4,2.6c0,0,0.1,0,0.1,0c0.8,0,1.5-0.3,2-0.9L76,23.1C75.6,23.6,75,23.8,74.4,23.8z M68.6,19.2l-2.3,5h0.6l0.6-1.3
		h2.7l0.6,1.3h0.6l-2.3-5H68.6z M67.7,22.4l1.1-2.5l1.1,2.5H67.7z M78.2,23.8V22H81v-0.5h-2.7v-1.7h3.1v-0.5h-3.6v5h3.6v-0.5
		L78.2,23.8z M53.2,22H56v-0.5h-2.7v-1.7h3v-0.5h-3.6v5h3.6v-0.5h-3.1L53.2,22z M51.2,20.8L51.2,20.8c0-0.4-0.1-0.7-0.4-1
		c-0.4-0.3-0.9-0.5-1.4-0.5h-2.2v5h0.6v-1.9h1.4l1.4,1.9h0.7l-1.5-2C50.6,22.2,51.2,21.5,51.2,20.8L51.2,20.8z M47.8,21.8v-2h1.5
		c0.8,0,1.3,0.4,1.3,1v0c0,0.6-0.5,1-1.3,1L47.8,21.8z M59.5,21.5c-1.1-0.2-1.4-0.5-1.4-1v0c0-0.5,0.4-0.8,1.1-0.8
		c0.5,0,1,0.2,1.4,0.5l0.3-0.4c-0.5-0.4-1.1-0.6-1.8-0.6c-0.8-0.1-1.5,0.5-1.6,1.3c0,0,0,0,0,0.1v0c0,0.8,0.5,1.2,1.7,1.4
		c1.1,0.2,1.3,0.5,1.3,0.9v0c0,0.5-0.4,0.9-1.1,0.9c-0.6,0-1.3-0.2-1.7-0.7l-0.3,0.4c0.6,0.5,1.3,0.8,2,0.8c1,0,1.7-0.6,1.7-1.4v0
		C61.1,22.2,60.6,21.7,59.5,21.5z M64.4,19.3h-1.9v5h0.6v-1.8h1.2c1.1,0,2-0.6,2-1.6v0C66.3,19.9,65.5,19.3,64.4,19.3L64.4,19.3z
		 M65.7,20.9c0,0.7-0.5,1.1-1.4,1.1h-1.2v-2.2h1.3C65.1,19.8,65.7,20.2,65.7,20.9L65.7,20.9z M16.9,19.7c0.2-0.2,0.1-0.4,0-0.6
		c-0.2-0.2-0.4-0.2-0.6,0l-4,4c-0.6,0.6-1.5,0.6-2.1,0c-0.6-0.6-0.6-1.5,0-2.1c0,0,0,0,0,0l3.2-3.2c0.2-0.2,0.1-0.4,0-0.6
		c-0.2-0.2-0.4-0.2-0.6,0l-3.2,3.2c-0.9,0.9-0.9,2.4,0,3.3s2.4,0.9,3.3,0L16.9,19.7z M11,22.4c0.2,0.2,0.4,0.2,0.6,0c0,0,0,0,0,0
		l4-4c0.6-0.6,1.5-0.6,2.1,0c0.2,0.2,0.4,0.2,0.6,0c0.2-0.2,0.2-0.4,0-0.6c-0.9-0.9-2.4-0.9-3.3,0l-4,4c-0.2,0.1-0.3,0.3-0.2,0.5
		C10.8,22.3,10.9,22.4,11,22.4z M19.6,21.7c-0.2-0.2-0.4-0.2-0.6,0l-4,4c-0.6,0.6-1.5,0.6-2.1,0c-0.2-0.2-0.4-0.2-0.6,0
		s-0.2,0.4,0,0.6l0,0c0.9,0.9,2.4,0.9,3.3,0l4-4C19.7,22.2,19.7,21.9,19.6,21.7z M17.6,20.4l-4,4c-0.2,0.2-0.2,0.4,0,0.6
		s0.4,0.2,0.6,0l4-4c0.6-0.6,1.5-0.6,2.1,0s0.6,1.5,0,2.1l-3.2,3.2c-0.2,0.2-0.2,0.4,0,0.6s0.4,0.2,0.6,0l0,0l3.2-3.2
		c0.9-0.9,0.9-2.4-0.1-3.3C20,19.5,18.5,19.5,17.6,20.4L17.6,20.4z"/>
	<g id="Layer_2_1_">
		<g id="Blue">
			<path class="st0" d="M16.1,64.4c-0.1-0.1-0.2-0.1-0.3,0c0,0,0,0,0,0c0,0,0,0-0.1,0.1l-1.9,3.8c-0.1,0.1,0,0.2,0.1,0.3
				c0,0,0,0,0,0c0,0,0.1,0,0.1,0h2.6c0.1,0,0.2,0,0.2-0.1C17.4,67.1,17.1,65.5,16.1,64.4z"/>
			<path class="st0" d="M17.5,61c-1,1.5-1.1,3.3-0.3,4.9l1.3,2.5c0,0.1,0.1,0.1,0.2,0.1h2.6c0.1,0,0.2-0.1,0.2-0.2c0,0,0,0,0,0
				c0,0,0-0.1,0-0.1L17.9,61C17.8,60.9,17.7,60.9,17.5,61C17.6,60.9,17.6,60.9,17.5,61C17.6,60.9,17.5,61,17.5,61z"/>
			<path class="st0" d="M48.2,64c0,0.9,0.4,1.7,2.1,2c1,0.2,1.2,0.4,1.2,0.7s-0.2,0.5-0.9,0.5c-0.9,0-1.7-0.2-2.4-0.7v1.5
				c0.8,0.4,1.6,0.6,2.4,0.5c1.8,0,2.5-0.8,2.5-2 M53.1,66.7c0-1.1-0.6-1.6-2.2-2c-0.9-0.2-1.1-0.4-1.1-0.7c0-0.4,0.3-0.5,0.9-0.5
				c0.7,0,1.5,0.2,2.1,0.5v-1.5c-0.7-0.3-1.4-0.4-2.1-0.4c-1.6,0-2.5,0.7-2.5,1.9"/>
			<polygon class="st0" points="70.9,62.3 70.9,68.6 72.3,68.6 72.3,63.8 72.8,65 74.7,68.6 76.4,68.6 76.4,62.3 75.1,62.3 
				75.1,66.3 74.6,65.1 73,62.3 			"/>
			<rect x="60.9" y="62.3" class="st0" width="1.5" height="6.3"/>
			<path class="st0" d="M59.2,66.7c0-1.1-0.6-1.6-2.2-2c-0.9-0.2-1.1-0.4-1.1-0.7c0-0.4,0.3-0.5,0.9-0.5c0.7,0,1.5,0.2,2.1,0.5v-1.5
				c-0.7-0.3-1.4-0.4-2.1-0.4c-1.6,0-2.5,0.7-2.5,1.9c0,0.9,0.4,1.7,2.1,2c1,0.2,1.2,0.4,1.2,0.7s-0.2,0.5-0.9,0.5
				c-0.9,0-1.7-0.2-2.4-0.7v1.5c0.8,0.4,1.6,0.6,2.4,0.5C58.5,68.7,59.2,67.9,59.2,66.7"/>
			<polygon class="st0" points="36.8,62.3 36.8,68.6 39.8,68.6 40.3,67.2 38.3,67.2 38.3,62.3 			"/>
			<polygon class="st0" points="30.8,62.3 30.8,63.6 32.5,63.6 32.5,68.6 34,68.6 34,63.6 35.7,63.6 35.7,62.3 			"/>
			<path class="st0" d="M28.7,62.3h-1.9l-2.2,6.3h1.7l0.3-1.1c0.8,0.2,1.6,0.2,2.4,0l0.3,1.1h1.7L28.7,62.3z M27.7,66.4
				c-0.3,0-0.5,0-0.8-0.1l0.8-2.8l0.8,2.8C28.3,66.3,28,66.4,27.7,66.4L27.7,66.4z"/>
			<path class="st0" d="M45,62.3h-1.9l-2.2,6.3h1.7l0.3-1.1c0.8,0.2,1.6,0.2,2.4,0l0.3,1.1h1.7L45,62.3z M44.1,66.4
				c-0.3,0-0.5,0-0.8-0.1l0.8-2.8l0.8,2.8C44.6,66.3,44.3,66.4,44.1,66.4z"/>
			<path class="st0" d="M67.7,62.3h-1.9l-2.2,6.3h1.7l0.3-1.1c0.8,0.2,1.6,0.2,2.4,0l0.3,1.1h1.7L67.7,62.3z M66.7,66.4
				c-0.3,0-0.5,0-0.8-0.1l0.8-2.8l0.8,2.8C67.2,66.3,67,66.4,66.7,66.4z"/>
		</g>
	</g>
	<path class="st0" d="M118,21.2c-0.2,0-0.5-0.1-0.7-0.1c-0.3,0-0.6,0-0.8,0.2c-0.2,0.1-0.3,0.3-0.2,0.5c0,0.1,0,0.2,0.1,0.4
		c0,0.1,0.1,0.1,0.2,0.2c0.2,0.1,0.5,0.2,0.8,0.2c0.2,0,0.5-0.1,0.7-0.1l0,0L118,21.2z"/>
	<path class="st0" d="M123.3,19.6c-0.3,0-0.6,0.1-0.8,0.4c-0.1,0.2-0.2,0.4-0.2,0.6h1.9c0-0.2-0.1-0.4-0.2-0.6
		C123.9,19.7,123.7,19.6,123.3,19.6z"/>
	<path class="st0" d="M134.2,19.6c-0.3,0-0.6,0.1-0.8,0.4c-0.2,0.3-0.3,0.7-0.3,1.1c0,0.4,0.1,0.8,0.3,1.1c0.2,0.3,0.5,0.4,0.8,0.4
		c0.3,0,0.6-0.1,0.8-0.4c0.2-0.3,0.3-0.7,0.3-1.1c0-0.4-0.1-0.8-0.3-1.1C134.8,19.7,134.5,19.6,134.2,19.6z"/>
	<path class="st0" d="M141.5,10.2c-1.4,0-2.8,0.3-4.1,0.9c-1.4-2.6-4.2-4.2-7.2-4.3c-2.2,0-4.4,0.9-5.9,2.5c-3-4-8.7-4.7-12.7-1.7
		c-3.3,2.5-4.5,7-2.8,10.8c-3.7,2.2-5,7-2.8,10.8c1.4,2.4,3.9,3.9,6.7,3.9c0.5,0,1.1-0.1,1.6-0.2c1.6,4.3,6.4,6.6,10.7,5
		c2.2-0.8,3.9-2.5,4.8-4.6c3.5,1.7,7.7,0.4,9.6-3c0.7,0.1,1.3,0.2,2,0.2c5.6-0.1,10.1-4.6,10-10.2C151.5,14.7,147,10.2,141.5,10.2
		L141.5,10.2z M114.9,21.9c0,0.8-0.6,1.3-1.5,1.3c-0.5,0-1-0.1-1.4-0.3c-0.1,0-0.2-0.1-0.3-0.2c0,0,0,0,0-0.1l0.2-0.5
		c0,0,0-0.1,0.1-0.1c0,0,0,0,0,0c0.1,0,0.1,0.1,0.2,0.1c0.4,0.2,0.8,0.4,1.2,0.4c0.4,0,0.7-0.2,0.7-0.5v0c0-0.3-0.4-0.4-0.9-0.6
		l-0.1,0c-0.6-0.2-1.3-0.4-1.3-1.2v0c0-0.7,0.6-1.3,1.4-1.3c0,0,0.1,0,0.1,0h0.1c0.5,0,1,0.1,1.4,0.4c0,0,0.1,0.1,0,0.1
		c0,0-0.2,0.5-0.2,0.5c0,0.1-0.1,0-0.1,0c-0.4-0.2-0.8-0.3-1.2-0.3c-0.4,0-0.6,0.2-0.6,0.5v0c0,0.3,0.4,0.4,0.9,0.6l0.1,0
		C114.3,20.9,114.9,21.2,114.9,21.9L114.9,21.9z M118.8,23c0,0-0.1,0-0.2,0s-0.4,0.1-0.7,0.1c-0.3,0-0.5,0.1-0.8,0.1
		c-0.2,0-0.5,0-0.7-0.1c-0.2,0-0.4-0.1-0.5-0.2c-0.2-0.1-0.3-0.3-0.4-0.4c-0.1-0.2-0.1-0.4-0.1-0.6c0-0.4,0.2-0.8,0.5-1.1
		c0.2-0.1,0.4-0.2,0.6-0.3c0.2-0.1,0.4-0.1,0.7-0.1c0.2,0,0.3,0,0.4,0c0,0,0.2,0,0.4,0.1v-0.1c0-0.4-0.1-0.5-0.2-0.6
		c-0.2-0.1-0.4-0.2-0.7-0.2c-0.4,0-0.8,0.1-1.2,0.3c0,0,0,0,0,0c0,0-0.1,0-0.1,0c0,0,0,0,0,0l-0.2-0.5c0,0,0-0.1,0-0.1
		c0.3-0.1,0.5-0.2,0.8-0.3c0.2,0,0.5-0.1,0.7-0.1c0.4,0,0.9,0.1,1.2,0.4c0.3,0.3,0.5,0.8,0.4,1.2L118.8,23
		C118.9,22.9,118.9,23,118.8,23z M120.7,23.1C120.7,23.1,120.6,23.1,120.7,23.1C120.6,23.1,120.6,23.1,120.7,23.1l-0.8,0.1
		c0,0-0.1,0-0.1-0.1c0,0,0,0,0,0v-5.8c0,0,0-0.1,0.1-0.1c0,0,0,0,0,0h0.7c0,0,0.1,0,0.1,0.1c0,0,0,0,0,0V23.1z M125.1,21.2
		C125.1,21.3,125.1,21.3,125.1,21.2l-2.8,0.1c-0.1,0.6,0.4,1.1,1,1.2c0.1,0,0.2,0,0.3,0c0.4,0,0.8-0.1,1.1-0.2c0,0,0.1,0,0.1,0
		l0.2,0.5c0,0.1,0,0.1,0,0.1c-0.4,0.2-0.9,0.3-1.4,0.3c-0.3,0-0.7,0-1-0.2c-0.5-0.2-0.9-0.6-1.1-1.1c-0.1-0.3-0.1-0.6-0.1-0.9
		c0-0.3,0-0.6,0.1-0.9c0.1-0.3,0.2-0.5,0.4-0.7c0.2-0.2,0.4-0.4,0.6-0.5c0.3-0.1,0.6-0.2,0.9-0.2c0.3,0,0.5,0.1,0.8,0.2
		c0.2,0.1,0.4,0.2,0.5,0.4c0.2,0.2,0.3,0.4,0.3,0.6C125.1,20.4,125.2,20.8,125.1,21.2z M126,22.9c-0.1,0-0.2-0.1-0.3-0.2
		c0,0,0,0,0-0.1l0.2-0.5c0,0,0.1-0.1,0.1-0.1c0,0,0,0,0,0c0.1,0,0.1,0.1,0.2,0.1c0.4,0.2,0.8,0.4,1.2,0.4c0.4,0,0.7-0.2,0.7-0.5v0
		c0-0.3-0.4-0.4-0.9-0.6l-0.1,0c-0.6-0.2-1.3-0.4-1.3-1.2v0c0-0.7,0.6-1.3,1.4-1.3c0,0,0.1,0,0.1,0h0.1c0.5,0,1,0.1,1.4,0.4
		c0,0,0.1,0.1,0,0.1c0,0-0.2,0.5-0.2,0.5c0,0.1-0.1,0-0.1,0c-0.4-0.2-0.8-0.3-1.2-0.3c-0.4,0-0.6,0.2-0.6,0.5v0
		c0,0.3,0.4,0.4,0.9,0.6l0.1,0c0.6,0.2,1.3,0.5,1.3,1.2v0c0,0.8-0.6,1.3-1.5,1.3C126.9,23.3,126.4,23.2,126,22.9z M132.2,19
		l-0.1,0.6c0,0,0,0.1-0.1,0.1h-0.9l-0.6,3.4c-0.1,0.3-0.1,0.6-0.2,0.9c-0.1,0.2-0.2,0.4-0.4,0.6c-0.1,0.2-0.3,0.3-0.5,0.3
		c-0.2,0.1-0.4,0.1-0.7,0.1c-0.1,0-0.3,0-0.4,0c-0.1,0-0.2,0-0.2-0.1c0,0-0.1-0.1,0-0.1c0-0.1,0.2-0.5,0.2-0.5c0,0,0.1-0.1,0.1,0
		c0,0,0,0,0,0c0,0,0.1,0,0.1,0c0.1,0,0.1,0,0.2,0c0.1,0,0.2,0,0.3,0c0.1,0,0.2-0.1,0.2-0.2c0.1-0.1,0.1-0.2,0.2-0.4
		c0.1-0.2,0.1-0.4,0.2-0.7l0.6-3.4h-0.6c-0.1,0-0.1,0-0.1-0.1l0.1-0.6c0,0,0-0.1,0.1-0.1h0.6l0-0.2c0.1-0.5,0.2-0.9,0.5-1.2
		c0.3-0.3,0.7-0.4,1.1-0.4c0.2,0,0.4,0,0.6,0.1c0,0,0.1,0,0.1,0.1c0,0,0,0,0,0l-0.2,0.6c0,0,0,0.1-0.1,0c0,0-0.1,0-0.1,0
		c-0.1,0-0.1,0-0.2,0c-0.1,0-0.2,0-0.3,0c-0.1,0-0.2,0.1-0.2,0.1c-0.1,0.1-0.1,0.2-0.2,0.3c-0.1,0.2-0.1,0.4-0.1,0.6L132.2,19
		C132.2,19,132.2,19,132.2,19L132.2,19z M136,21.9c-0.1,0.3-0.2,0.5-0.4,0.7c-0.2,0.2-0.4,0.4-0.6,0.5c-0.5,0.2-1.2,0.2-1.7,0
		c-0.2-0.1-0.4-0.3-0.6-0.5c-0.2-0.2-0.3-0.4-0.4-0.7c-0.2-0.6-0.2-1.2,0-1.7c0.1-0.3,0.2-0.5,0.4-0.7c0.2-0.2,0.4-0.4,0.6-0.5
		c0.5-0.2,1.2-0.2,1.7,0c0.2,0.1,0.4,0.3,0.6,0.5c0.2,0.2,0.3,0.4,0.4,0.7C136.2,20.8,136.2,21.4,136,21.9z M139.4,19.1
		c0,0.1-0.2,0.4-0.2,0.6c0,0,0,0.1-0.1,0.1c-0.1,0-0.2,0-0.3,0c-0.1,0-0.2,0-0.4,0.1c-0.1,0-0.2,0.1-0.3,0.2
		c-0.1,0.1-0.2,0.3-0.2,0.4c-0.1,0.2-0.1,0.5-0.1,0.7v2c0,0,0,0.1-0.1,0.1l0,0H137c0,0-0.1,0-0.1-0.1v0v-4c0,0,0-0.1,0.1-0.1
		c0,0,0,0,0,0h0.7c0,0,0.1,0,0.1,0.1c0,0,0,0,0,0v0.3c0.1-0.1,0.3-0.3,0.5-0.3c0.2-0.1,0.5-0.1,0.7-0.1
		C139,18.9,139.2,19,139.4,19.1C139.4,19,139.4,19.1,139.4,19.1L139.4,19.1z M142.7,23c-0.4,0.1-0.7,0.2-1.1,0.2
		c-0.6,0-1.2-0.2-1.6-0.6c-0.4-0.4-0.6-1-0.5-1.6c0-0.3,0-0.6,0.1-0.9c0.1-0.3,0.2-0.5,0.4-0.7c0.2-0.2,0.4-0.4,0.6-0.5
		c0.3-0.1,0.6-0.2,0.9-0.2c0.2,0,0.4,0,0.6,0c0.2,0,0.4,0.1,0.5,0.1c0,0,0.1,0,0.1,0.1c0,0,0,0,0,0c-0.1,0.2-0.1,0.4-0.2,0.5
		c0,0.1-0.1,0.1-0.1,0.1c-0.3-0.1-0.6-0.1-0.8-0.1c-0.3,0-0.7,0.1-0.9,0.4c-0.2,0.3-0.3,0.7-0.3,1c0,0.4,0.1,0.8,0.3,1.1
		c0.2,0.2,0.6,0.4,0.9,0.3c0.1,0,0.3,0,0.4,0c0.1,0,0.3-0.1,0.4-0.1c0,0,0.1,0,0.1,0c0,0,0,0,0,0L142.7,23
		C142.8,23,142.8,23,142.7,23C142.7,23,142.7,23,142.7,23L142.7,23z M146.7,21.2C146.7,21.3,146.7,21.3,146.7,21.2l-2.8,0.1
		c-0.1,0.6,0.4,1.1,1,1.2c0.1,0,0.2,0,0.3,0c0.4,0,0.8-0.1,1.1-0.2c0,0,0.1,0,0.1,0c0,0,0,0,0,0l0.2,0.5c0,0.1,0,0.1,0,0.1
		c-0.4,0.2-0.9,0.3-1.4,0.3c-0.3,0-0.7,0-1-0.2c-0.3-0.1-0.5-0.2-0.7-0.5c-0.2-0.2-0.3-0.4-0.4-0.7c-0.1-0.3-0.1-0.6-0.1-0.9
		c0-0.3,0-0.6,0.1-0.9c0.1-0.3,0.2-0.5,0.4-0.7c0.2-0.2,0.4-0.4,0.6-0.5c0.3-0.1,0.6-0.2,0.9-0.2c0.3,0,0.5,0.1,0.8,0.2
		c0.2,0.1,0.4,0.2,0.5,0.4c0.2,0.2,0.3,0.4,0.3,0.6C146.8,20.4,146.8,20.8,146.7,21.2L146.7,21.2z"/>
	<path class="st0" d="M145,19.6c-0.3,0-0.6,0.1-0.8,0.4c-0.1,0.2-0.2,0.4-0.2,0.6h1.9c0-0.2-0.1-0.4-0.2-0.6
		C145.6,19.7,145.3,19.6,145,19.6z"/>
	<path class="st0" d="M211.8,18.5c0,0.5-0.4,0.9-0.9,0.9c-0.5,0-0.9-0.4-0.9-0.9s0.4-0.9,0.9-0.9l0,0
		C211.3,17.6,211.8,18,211.8,18.5C211.8,18.5,211.8,18.5,211.8,18.5z M208,20.4v0.2c-0.4-0.4-0.9-0.6-1.4-0.6
		c-1.6,0-2.8,1.3-2.8,2.9c0,1.5,1.2,2.7,2.8,2.8c0.5,0,1-0.2,1.4-0.6v0.2c0,0.1,0.1,0.2,0.2,0.2c0,0,0,0,0,0h1.1v-5.3h-1.1
		C208,20.2,208,20.3,208,20.4L208,20.4z M208,23.8c-0.3,0.4-0.7,0.6-1.1,0.6c-0.8,0-1.6-0.6-1.6-1.5c0-0.8,0.6-1.6,1.5-1.6
		c0,0,0.1,0,0.1,0c0.5,0,0.9,0.2,1.1,0.6V23.8z M210.2,20.2h1.4v5.3h-1.4V20.2z M230.5,20c-0.5,0-1,0.2-1.4,0.6v-3h-1.4v7.9h1.1
		c0.1,0,0.2-0.1,0.2-0.2v-0.2l0,0c0.3,0.4,0.9,0.6,1.4,0.6c1.6,0,2.8-1.3,2.8-2.9C233.2,21.3,232,20.1,230.5,20L230.5,20z
		 M230.3,24.4c-0.5,0-0.9-0.2-1.1-0.6v-1.9c0.3-0.4,0.7-0.6,1.1-0.6c0.8,0,1.6,0.6,1.6,1.5c0,0.8-0.6,1.6-1.5,1.6
		C230.4,24.4,230.3,24.4,230.3,24.4L230.3,24.4z M227,22.4v3.2h-1.4v-3c0-0.9-0.3-1.2-1-1.2c-0.4,0-0.8,0.2-1.1,0.5v3.7h-1.4v-5.3
		h1.1c0.1,0,0.2,0.1,0.2,0.2v0.2c0.4-0.4,0.9-0.6,1.4-0.6c0.5,0,1.1,0.2,1.5,0.5C226.9,21,227.1,21.7,227,22.4L227,22.4z M218.9,20
		c-0.5,0-1,0.2-1.4,0.6v-3h-1.4v7.9h1.1c0.1,0,0.2-0.1,0.2-0.2v-0.2l0,0c0.3,0.4,0.9,0.6,1.4,0.6c1.6,0,2.8-1.3,2.8-2.9
		C221.6,21.3,220.4,20.1,218.9,20L218.9,20z M218.6,24.4c-0.5,0-0.9-0.2-1.1-0.6v-1.9c0.3-0.4,0.7-0.6,1.1-0.6
		c0.8,0,1.6,0.6,1.6,1.5c0,0.8-0.6,1.6-1.5,1.6C218.7,24.4,218.7,24.4,218.6,24.4L218.6,24.4z M214.9,20c0.2,0,0.4,0,0.6,0.1v1.3
		c-0.6-0.2-1.4,0-1.8,0.4v3.7h-1.4v-5.3h1.1c0.1,0,0.2,0.1,0.2,0.2v0.2C214,20.3,214.5,20.1,214.9,20L214.9,20z M200.8,25
		c-0.1-0.2-0.1-0.4-0.2-0.5c-0.1-0.3-0.2-0.5-0.3-0.7l0,0c-1-2.1-2-4.3-3.1-6.4l0-0.1c-0.1-0.2-0.2-0.4-0.3-0.7
		c-0.1-0.3-0.3-0.5-0.5-0.8c-0.4-0.6-1.1-0.9-1.8-0.9c-0.7,0-1.4,0.3-1.8,0.9c-0.2,0.2-0.4,0.5-0.5,0.8c-0.1,0.2-0.2,0.5-0.3,0.7
		l0,0.1c-1.1,2.1-2.2,4.3-3.1,6.4l0,0c-0.1,0.2-0.2,0.5-0.3,0.7c-0.1,0.2-0.1,0.3-0.2,0.5c-0.2,0.5-0.2,1-0.2,1.5
		c0.2,1.1,0.9,2,1.8,2.4c0.4,0.2,0.8,0.2,1.1,0.2c0.1,0,0.2,0,0.4,0c0.5-0.1,1-0.2,1.4-0.5c0.7-0.4,1.3-0.9,1.8-1.5
		c0.5,0.6,1.1,1.1,1.8,1.5c0.4,0.3,0.9,0.4,1.4,0.5c0.1,0,0.2,0,0.4,0c0.4,0,0.8-0.1,1.1-0.2c1-0.4,1.7-1.3,1.8-2.4
		C201,26,201,25.5,200.8,25L200.8,25z M194.4,25.8c-0.7-0.8-1.2-1.7-1.4-2.6c-0.1-0.3-0.1-0.6,0-0.9c0-0.2,0.1-0.4,0.2-0.6
		c0.3-0.4,0.8-0.6,1.2-0.6c0.5,0,1,0.2,1.2,0.6c0.1,0.2,0.2,0.4,0.2,0.6c0,0.3,0,0.6,0,0.9C195.6,24.1,195.1,25,194.4,25.8
		L194.4,25.8z M200.1,26.4c-0.1,0.7-0.6,1.4-1.3,1.7c-0.3,0.1-0.7,0.2-1.1,0.1c-0.4,0-0.7-0.2-1.1-0.4c-0.6-0.4-1.2-0.8-1.6-1.4
		c0.8-0.9,1.4-2,1.7-3.1c0.1-0.4,0.1-0.8,0.1-1.2c-0.1-0.3-0.2-0.7-0.4-1c-0.5-0.6-1.2-1-2-1c-0.8,0-1.5,0.4-2,1
		c-0.2,0.3-0.3,0.6-0.4,1c-0.1,0.4,0,0.8,0.1,1.2c0.3,1.2,0.9,2.2,1.7,3.1c-0.5,0.5-1,1-1.6,1.4c-0.3,0.2-0.7,0.3-1.1,0.4
		c-0.4,0-0.7,0-1.1-0.1c-0.7-0.3-1.2-0.9-1.3-1.7c0-0.4,0-0.8,0.1-1.1c0-0.1,0.1-0.3,0.2-0.5c0.1-0.2,0.2-0.5,0.3-0.7l0,0
		c1-2.1,2-4.3,3.1-6.4l0-0.1c0.1-0.2,0.2-0.4,0.3-0.7c0.1-0.2,0.2-0.4,0.4-0.6c0.5-0.6,1.5-0.7,2.1-0.2c0.1,0.1,0.1,0.1,0.2,0.2
		c0.2,0.2,0.3,0.4,0.4,0.6c0.1,0.2,0.2,0.4,0.3,0.7l0,0.1c1.1,2.1,2.1,4.3,3.1,6.4v0c0.1,0.2,0.2,0.5,0.3,0.7
		c0.1,0.2,0.1,0.3,0.2,0.5C200.1,25.7,200.1,26.1,200.1,26.4L200.1,26.4z"/>
	<path class="st0" d="M26.4,111.8c-0.8,0.1-1.6,0.2-2.4,0.3l-2.5-7.3v7.6c-0.8,0.1-1.5,0.2-2.2,0.3v-14h2.1l2.8,7.9v-7.9h2.2
		L26.4,111.8L26.4,111.8z M30.7,103.8c0.8,0,2.1,0,2.9,0v2.2c-1,0-2.1,0-2.9,0v3.3c1.3-0.1,2.6-0.2,3.9-0.2v2.1l-6.1,0.5V98.7h6.1
		v2.2h-3.9V103.8z M42.7,100.8h-2.3v10.1c-0.7,0-1.5,0-2.2,0v-10.1h-2.3v-2.2h6.7L42.7,100.8z M46.2,103.6h3v2.2h-3v5h-2.1V98.7h6.1
		v2.2h-4L46.2,103.6z M53.7,108.9c1.2,0,2.5,0.1,3.7,0.2v2.2c-2-0.1-3.9-0.2-5.9-0.3V98.7h2.2C53.7,98.7,53.7,108.9,53.7,108.9z
		 M59.3,111.4c0.7,0,1.4,0.1,2.1,0.2V98.7h-2.1V111.4z M71,98.7l-2.8,6.7l2.8,7.3c-0.8-0.1-1.6-0.3-2.5-0.4l-1.6-4l-1.6,3.7
		c-0.8-0.1-1.6-0.2-2.4-0.3l2.8-6.4l-2.5-6.6h2.4l1.4,3.7l1.5-3.7L71,98.7z"/>
	<g id="layer1">
		<path id="path3698" class="st0" d="M96.6,103.6c0-0.8-0.8-1-1.4-1v0.1c0.4,0,0.7,0.1,0.7,0.4c0,0.2-0.1,0.4-0.5,0.4
			c-0.5-0.1-0.9-0.2-1.3-0.3c-0.4-0.2-0.9-0.3-1.4-0.3c-0.7,0-1.4,0.5-1.4,1.3c0,0,0,0,0,0c0,0.4,0.3,0.8,0.6,0.9l0.1-0.1
			c-0.1-0.1-0.2-0.2-0.2-0.4c0-0.3,0.3-0.5,0.5-0.5c0,0,0,0,0,0c0.5,0.1,1,0.2,1.5,0.3c0.5,0.1,1,0.3,1.5,0.3v1.3l-0.6,0.5v0
			l0.6,0.5v1.7c-0.9,0.4-1.9,0.3-2.6-0.4l1.7-0.8v-2.8l-2,0.9c0.2-0.5,0.6-0.9,1.1-1.2l0-0.1c-1.3,0.3-2.2,1.5-2.3,2.8
			c0,1.6,1.3,2.8,2.8,2.9c0,0,0,0,0,0c1.4,0,2.6-1.1,2.7-2.5c0,0,0-0.1,0-0.1l-0.1,0c-0.2,0.5-0.6,1-1,1.3v-1.7l0.7-0.5l0,0
			l-0.6-0.5v-1.3C96,104.8,96.5,104.3,96.6,103.6C96.6,103.6,96.6,103.6,96.6,103.6L96.6,103.6z M93.1,108l-0.5,0.2
			c-0.3-0.4-0.5-1-0.5-1.5c0-0.3,0-0.6,0.1-0.9l0.8-0.4L93.1,108z M97.3,108.9l-0.5,0.4l0.1,0.1l0.3-0.2l0.9,0.8l1.2-0.8l-0.1-0.1
			l-0.3,0.2l-0.4-0.4v-2.8l0.3-0.2l0.7,0.6v2.5c0,1.5-0.3,1.8-1,2v0.1c1.1,0,2.2-0.3,2.2-2.3v-2.6l0.4-0.3l-0.1-0.1l-0.3,0.2l-1-0.9
			l-1.2,0.9v-3.3h-0.1l-1.4,1v0.1c0.3,0.1,0.4,0.4,0.4,0.6L97.3,108.9z M104.8,108.5l-1,0.8l-1-0.8V108l1.9-1.3v-0.1l-1-1.5
			l-2.1,1.1v2.7l-0.4,0.3l0.1,0.1l0.4-0.3l1.4,1l1.8-1.4L104.8,108.5z M102.7,107.8v-2l0.1,0l0.9,1.4L102.7,107.8z M112.5,103.2
			c0-0.1,0-0.3-0.1-0.4h-0.1c-0.1,0.3-0.3,0.5-0.7,0.5c-0.3,0-0.6-0.1-0.8-0.4c0,0-1.2,1.3-1.2,1.3l0.1,0.1l0.3-0.4
			c0.3,0.3,0.6,0.4,1,0.4v3.4l-2.4-4.1c-0.2-0.4-0.6-0.7-1.1-0.8c-0.7,0-1.2,0.6-1.2,1.3c0,0.1,0,0.1,0,0.2h0.1
			c0-0.3,0.2-0.5,0.4-0.5c0.2,0,0.4,0.2,0.5,0.4v1.3c-0.7,0-1.2,0.3-1.2,0.9c0,0.4,0.3,0.8,0.7,0.9l0-0.1c-0.1-0.1-0.1-0.2-0.1-0.3
			c0-0.2,0.2-0.4,0.5-0.4c0.1,0,0.1,0,0.2,0v1.7c-0.9,0-1.5,0.5-1.5,1.3c0,0.6,0.6,1.1,1.2,1.1c0.1,0,0.1,0,0.2,0l0-0.1
			c-0.4,0-0.7-0.3-0.7-0.5c0-0.3,0.2-0.5,0.5-0.5c0,0,0,0,0.1,0c0.3,0,0.6,0.2,0.8,0.4l1.2-1.3l-0.1-0.1l-0.3,0.3
			c-0.3-0.3-0.7-0.6-1.2-0.6v-4.1l3.3,5.7h0.2v-5.7C111.9,104.4,112.5,103.8,112.5,103.2L112.5,103.2z M115.4,108.5l-1,0.8l-1-0.8
			V108l1.9-1.3v-0.1l-1-1.5l-2.1,1.1v2.7l-0.4,0.3l0.1,0.1l0.4-0.3l1.4,1l1.8-1.4L115.4,108.5L115.4,108.5z M113.4,107.8v-2l0.1,0
			l0.9,1.4L113.4,107.8z M122.1,105.6l-0.3,0.2l-0.8-0.7l-0.9,0.8l0.4,0.3v3.1l-1-0.6v-2.5l0.3-0.2l-0.9-0.9L118,106l0.4,0.3v2.9
			l-0.1,0.1l-0.9-0.6v-2.4c0-0.6-0.3-0.7-0.6-0.9c-0.3-0.2-0.4-0.3-0.4-0.6c0-0.2,0.2-0.4,0.3-0.4c0,0,0-0.1,0-0.1
			c-0.6,0-1.1,0.5-1.2,1.1c0,0.3,0.1,0.6,0.4,0.8c0.2,0.2,0.4,0.4,0.4,0.7v2.3l-0.4,0.3l0.1,0.1l0.4-0.3l1.1,0.8l1-0.7l1.1,0.7
			l2.2-1.3v-2.7L122.1,105.6L122.1,105.6L122.1,105.6z M129.6,103.4l-0.4,0.4l-0.9-0.8l-1.3,1V103h-0.1l0,6.6
			c-0.1,0-0.5-0.1-0.8-0.1l0-5.5c0-0.5-0.4-1-1-1c0,0,0,0-0.1,0c-0.7,0-1.2,0.5-1.2,1.1c0,0,0,0,0,0h0.1c0-0.2,0.2-0.5,0.4-0.5
			s0.5,0.2,0.5,0.7v1.6c-0.7,0-1.2,0.4-1.2,1c0,0.4,0.2,0.8,0.7,0.8c0,0,0,0,0,0l0-0.1c-0.1,0-0.2-0.1-0.2-0.3
			c0-0.2,0.2-0.3,0.5-0.3h0.1v2.5c-0.5,0.1-0.9,0.6-0.9,1.1c0,0.7,0.6,1.2,1.2,1.2c0,0,0.1,0,0.1,0c0.5,0,1-0.1,1.6-0.2
			c0.4-0.1,0.8-0.2,1.2-0.2c0.3,0,0.4,0.1,0.4,0.4c0,0.2-0.1,0.4-0.3,0.4l0,0.1c0.6,0,1.1-0.5,1.1-1.1c0-0.6-0.6-1-1.2-1
			c-0.5,0-1,0.1-1.5,0.2c-0.4,0.1-0.9,0.2-1.3,0.2c-0.3,0-0.6-0.1-0.6-0.5c0-0.3,0.3-0.6,1-0.6c0.4,0,0.8,0.1,1.3,0.2
			c0.4,0.1,0.9,0.2,1.4,0.2c0.6,0,1.1-0.2,1.1-1.1v-5L129.6,103.4L129.6,103.4z M127.9,105.9c-0.1,0.1-0.3,0.2-0.5,0.2
			c-0.2,0-0.4-0.1-0.5-0.2v-1.8l0.4-0.3l0.6,0.5V105.9z M127.9,107.1c-0.1-0.1-0.3-0.2-0.5-0.2c-0.2,0-0.4,0.1-0.5,0.2V106
			c0.1,0.1,0.3,0.2,0.5,0.2c0.2,0,0.4-0.1,0.5-0.2V107.1z M127.9,109c0,0.3-0.3,0.6-0.6,0.6c0,0,0,0-0.1,0c-0.1,0-0.3,0-0.3,0v-2.4
			c0.1-0.1,0.3-0.2,0.5-0.2c0.2,0,0.4,0.1,0.5,0.2L127.9,109z M133.4,106.1l-1.3-0.9l-2,1.1v2.6l-0.4,0.3l0.1,0.1l0.3-0.3l1.3,1
			l2-1.2L133.4,106.1z M131.3,108.7v-2.9l1,0.7v2.9L131.3,108.7z M137.3,105.3C137.3,105.3,137.2,105.3,137.3,105.3
			c-0.2,0.1-0.3,0.2-0.4,0.2c-0.2,0-0.3-0.1-0.5-0.2h-0.1l-0.7,0.8l-0.7-0.8l-1.2,0.8l0.1,0.1l0.3-0.2l0.4,0.4v2.6l-0.5,0.4l0.1,0.1
			l0.3-0.2l1,0.8l1.3-0.8l-0.1-0.1l-0.4,0.2l-0.5-0.4v-2.8c0.2,0.2,0.4,0.4,0.7,0.4C137,106.5,137.3,105.9,137.3,105.3L137.3,105.3z
			 M142.2,109.2l-1.4,0.9l-1.9-2.8l1.3-2.1l0.1,0c0.2,0.2,0.4,0.3,0.7,0.3c0.2,0,0.5-0.1,0.6-0.3c0,0,0.1,0,0.1,0
			c0,0.6-0.4,1.2-1,1.3c-0.3,0-0.6-0.1-0.8-0.3l-0.1,0.2l2,3L142.2,109.2L142.2,109.2z M137.7,108.9l-0.5,0.4l0.1,0.1l0.3-0.2
			l0.9,0.8l1.2-0.8l-0.1-0.1l-0.3,0.2l-0.4-0.4v-6.3h-0.1l-1.5,1v0.1c0.3,0.1,0.4,0.3,0.4,0.6L137.7,108.9z M148.9,103.6
			c0-0.8-0.8-1-1.4-1v0.1c0.4,0,0.7,0.1,0.7,0.4c0,0.2-0.1,0.4-0.5,0.4c-0.5-0.1-0.9-0.2-1.3-0.3c-0.4-0.2-0.9-0.3-1.4-0.3
			c-0.7,0-1.4,0.5-1.4,1.3c0,0,0,0,0,0c0,0.4,0.2,0.8,0.6,0.9l0.1-0.1c-0.1-0.1-0.2-0.2-0.2-0.4c0-0.3,0.3-0.5,0.5-0.5c0,0,0,0,0,0
			c0.5,0.1,1,0.2,1.5,0.3c0.5,0.1,1,0.3,1.5,0.3v1.3l-0.6,0.5v0l0.6,0.5v1.7c-0.9,0.4-1.9,0.3-2.6-0.4l1.7-0.8v-2.8l-2,0.9
			c0.2-0.5,0.6-0.9,1.1-1.2l0-0.1c-1.3,0.3-2.2,1.5-2.3,2.8c0,1.6,1.3,2.8,2.8,2.9c0,0,0,0,0,0c1.4,0,2.6-1.1,2.7-2.5
			c0,0,0-0.1,0-0.1l-0.1,0c-0.2,0.5-0.6,1-1,1.3v-1.7l0.7-0.5l0-0.1l-0.6-0.5v-1.3C148.3,104.7,148.9,104.2,148.9,103.6
			C148.9,103.6,148.9,103.6,148.9,103.6L148.9,103.6z M145.4,108l-0.5,0.2c-0.3-0.4-0.5-1-0.5-1.5c0-0.3,0-0.6,0.1-0.9l0.8-0.4
			L145.4,108L145.4,108z M150.3,103.2L150.3,103.2l-0.9,0.7v0.1l0.7,0.8h0.1l0.8-0.7l0,0L150.3,103.2L150.3,103.2z M151.5,109.2
			l-0.3,0.2l-0.4-0.4v-2.8l0.4-0.3l-0.1-0.1l-0.3,0.2l-0.7-0.8L149,106l0.1,0.1l0.3-0.2l0.4,0.4v2.6l-0.5,0.4l0.1,0.1l0.3-0.2
			l0.9,0.8L151.5,109.2L151.5,109.2z M158.3,109.1l-0.3,0.2l-0.4-0.4v-2.7l0.4-0.3l-0.1-0.1l-0.4,0.3l-0.9-0.9l-1.2,0.8l-0.9-0.8
			l-1.2,0.8l-0.7-0.8l-1.2,0.8l0.1,0.1l0.3-0.2l0.4,0.4v2.6l-0.3,0.3l0.9,0.8l0.9-0.8l-0.4-0.3v-2.7l0.3-0.2l0.6,0.6v2.4l-0.3,0.3
			l0.9,0.8l0.9-0.8l-0.4-0.3v-2.8l0.3-0.2l0.7,0.6v2.4l-0.3,0.3l0.9,0.9L158.3,109.1L158.3,109.1z M161.8,108.5l-1,0.8l-1-0.8V108
			l1.9-1.3v-0.1l-1-1.5l-2.1,1.1v2.7l1.4,1l1.8-1.4L161.8,108.5z M159.8,107.8v-2l0.1,0l0.9,1.4L159.8,107.8z M165.5,107.5l-0.8-0.6
			c0.4-0.4,0.7-0.9,0.7-1.5c0-0.1,0-0.2,0-0.3h-0.1c-0.1,0.2-0.3,0.4-0.6,0.4c-0.3,0-0.6-0.2-0.7-0.4l-1.8,1v1.5l0.7,0.5
			c-0.7,0.6-0.8,1-0.8,1.3c0,0.4,0.2,0.7,0.5,0.8l0-0.1c-0.1-0.1-0.2-0.2-0.2-0.3c0-0.1,0.2-0.3,0.5-0.3c0.3,0,0.6,0.2,0.8,0.4
			c0,0,1.8-1.1,1.8-1.1L165.5,107.5z M165.1,106.2c-0.3,0.5-0.8,0.9-1.2,1.2l-0.4-0.3v-1.4c0.3,0.6,1,0.9,1.6,0.6
			C165,106.3,165,106.3,165.1,106.2z M164.4,109.5c-0.2-0.5-0.7-0.8-1.2-0.8c-0.3,0-0.5,0.1-0.8,0.2c0.4-0.5,0.9-1,1.4-1.3l0.5,0.4
			L164.4,109.5z"/>
	</g>
	<g id="_Group_">
		<g id="_Group_2">
			<path id="_Compound_Path_" class="st0" d="M267.1,33.2h0.2c-0.1,0.6-0.7,0.9-1.3,0.9c-0.4,0-0.8-0.2-1.1-0.4
				c-0.3-0.3-0.5-0.7-0.5-1.2c0-0.5,0.2-0.9,0.5-1.2c0.3-0.3,0.7-0.5,1.1-0.5c0.3,0,0.5,0.1,0.7,0.2c0.2,0.1,0.3,0.3,0.3,0.4
				c0,0.1,0,0.1-0.1,0.2c0,0.1-0.1,0.1-0.2,0.1c-0.2,0-0.3-0.1-0.3-0.3c0-0.1-0.1-0.2-0.1-0.3c-0.1-0.1-0.2-0.1-0.4-0.1
				c-0.3,0-0.6,0.1-0.8,0.4c-0.2,0.3-0.3,0.7-0.3,1.1c0,0.4,0.1,0.8,0.3,1.1c0.2,0.3,0.5,0.4,0.8,0.4
				C266.6,33.9,267,33.6,267.1,33.2z"/>
			<path id="_Compound_Path_2" class="st0" d="M269.7,31.4c0.1-0.2,0.3-0.4,0.5-0.5c0.2-0.1,0.4-0.2,0.6-0.2c0.2,0,0.4,0,0.6,0.2
				c0.2,0.1,0.3,0.2,0.3,0.4c0.1,0.2,0.1,0.5,0.1,0.8v0.9c0,0.2,0,0.4,0,0.7c0,0.1,0.1,0.1,0.1,0.2c0.1,0,0.2,0.1,0.4,0.1v0.2h-1.6
				v-0.2h0.1c0.1,0,0.2,0,0.4-0.1c0.1,0,0.1-0.1,0.1-0.2c0-0.1,0-0.3,0-0.6v-0.9c0-0.2,0-0.4,0-0.6c0-0.1-0.1-0.2-0.2-0.3
				c-0.1-0.1-0.3-0.1-0.4-0.1c-0.2,0-0.4,0.1-0.5,0.2c-0.2,0.1-0.3,0.3-0.4,0.5v1.2c0,0.3,0,0.6,0,0.6c0,0.1,0.1,0.1,0.1,0.2
				c0.1,0.1,0.2,0.1,0.4,0.1v0.2h-1.6v-0.2h0.1c0.1,0,0.2,0,0.4-0.1c0.1,0,0.1-0.1,0.1-0.2c0-0.1,0-0.3,0-0.6v-3.1
				c0-0.2,0-0.4-0.1-0.6c-0.1-0.1-0.2-0.1-0.4-0.1v-0.2c0.3,0,0.7,0,1-0.2h0.1L269.7,31.4z"/>
			<path id="_Compound_Path_3" class="st0" d="M277.1,33.4h0.1c0,0.4-0.2,0.6-0.6,0.6c-0.1,0-0.3,0-0.4-0.1
				c-0.1-0.1-0.2-0.2-0.2-0.4c-0.2,0.2-0.4,0.3-0.7,0.4c-0.2,0.1-0.4,0.1-0.6,0.1c-0.2,0-0.4-0.1-0.5-0.2c-0.1-0.1-0.2-0.3-0.2-0.5
				c0-0.3,0.1-0.5,0.4-0.7c0.3-0.2,0.7-0.4,1-0.6l0.6-0.2v-0.2c0-0.2,0-0.3,0-0.5c0-0.1-0.1-0.2-0.2-0.3c-0.1-0.1-0.3-0.1-0.5-0.1
				c-0.4,0-0.6,0.1-0.6,0.4c0,0.3-0.1,0.4-0.3,0.4c-0.2,0-0.2-0.1-0.2-0.2c0-0.2,0.1-0.4,0.3-0.5c0.5-0.3,1.1-0.3,1.7-0.1
				c0.1,0.1,0.3,0.2,0.3,0.3c0.1,0.2,0.1,0.4,0.1,0.6V33c0,0.2,0,0.4,0,0.6c0,0.1,0.1,0.1,0.2,0.1C276.9,33.7,277,33.6,277.1,33.4z
				 M276,32l-0.4,0.2c-0.6,0.3-1,0.6-1,1c0,0.1,0,0.3,0.1,0.4c0.1,0.1,0.2,0.1,0.3,0.1c0.1,0,0.3,0,0.4-0.1c0.2-0.1,0.4-0.2,0.5-0.4
				V32z"/>
			<path id="_Compound_Path_4" class="st0" d="M279.6,31.5c0.1-0.2,0.2-0.4,0.4-0.6c0.2-0.1,0.4-0.2,0.6-0.2c0.1,0,0.3,0,0.4,0.2
				c0.1,0.1,0.1,0.2,0.1,0.3c0,0.1,0,0.1-0.1,0.2c0,0.1-0.1,0.1-0.2,0.1c-0.1,0-0.2-0.1-0.3-0.3c0-0.1-0.1-0.2-0.2-0.2
				c-0.2,0-0.3,0.1-0.4,0.2c-0.1,0.1-0.2,0.3-0.3,0.5c0,0.2-0.1,0.4-0.1,0.7v0.5c0,0.3,0,0.5,0,0.6c0,0.1,0,0.2,0.1,0.2
				c0.1,0.1,0.2,0.1,0.3,0.1h0.1v0.2h-1.6v-0.2h0.1c0.1,0,0.2,0,0.3-0.1c0.1,0,0.1-0.1,0.1-0.2c0-0.2,0-0.4,0-0.6V32
				c0-0.3,0-0.5,0-0.6c0-0.1,0-0.2-0.1-0.2c-0.1-0.1-0.2-0.1-0.3-0.1h-0.1v-0.2c0.3,0,0.6-0.1,0.9-0.2
				C279.6,31,279.6,31.2,279.6,31.5z"/>
			<path id="_Compound_Path_5" class="st0" d="M283.5,30.7v2.2c0,0.3,0,0.5,0,0.6c0,0.1,0,0.2,0.1,0.2c0.1,0.1,0.2,0.1,0.3,0.1h0.1
				v0.2h-1.7v-0.2h0.1c0.1,0,0.2,0,0.3-0.1c0.1,0,0.1-0.1,0.1-0.2c0-0.1,0-0.3,0-0.6v-0.9c0-0.2,0-0.4-0.1-0.7
				c0-0.1-0.1-0.1-0.1-0.1c-0.1,0-0.2,0-0.3,0h-0.1v-0.2C282.7,30.9,283.1,30.8,283.5,30.7L283.5,30.7z M282.8,29.1
				c0-0.1,0-0.2,0.1-0.3c0.1-0.1,0.2-0.1,0.3-0.1c0.1,0,0.2,0,0.3,0.1c0.1,0.1,0.1,0.2,0.1,0.3c0,0.1,0,0.2-0.1,0.3
				c-0.1,0.1-0.2,0.1-0.3,0.1c-0.1,0-0.2,0-0.3-0.1C282.8,29.3,282.8,29.2,282.8,29.1z"/>
			<path id="_Compound_Path_6" class="st0" d="M287.4,31h-0.9v1.9c0,0.2,0,0.4,0,0.6c0,0.1,0.1,0.2,0.2,0.2c0.1,0.1,0.2,0.1,0.3,0.1
				c0.2,0,0.4-0.1,0.5-0.3l0.1,0.1c-0.1,0.2-0.2,0.3-0.3,0.4c-0.1,0.1-0.3,0.1-0.5,0.1c-0.2,0-0.3-0.1-0.5-0.2
				c-0.1-0.1-0.2-0.2-0.3-0.4c0-0.2-0.1-0.5-0.1-0.8V31h-0.4v-0.2c0.2,0,0.4-0.1,0.6-0.3c0.2-0.2,0.3-0.4,0.3-0.7h0.1v1h0.9V31z"/>
			<path id="_Compound_Path_7" class="st0" d="M290.6,33.3l0.7-1.7c0.1-0.1,0.1-0.3,0.2-0.4c0-0.1-0.1-0.2-0.4-0.2v-0.2h1.1V31
				c-0.1,0-0.3,0-0.4,0.1c-0.1,0.2-0.2,0.3-0.3,0.5l-1.4,3.3c-0.1,0.2-0.2,0.4-0.3,0.6c-0.1,0.1-0.2,0.2-0.3,0.2
				c-0.2,0-0.2-0.1-0.2-0.2c0-0.2,0.1-0.3,0.4-0.4c0.1,0,0.2-0.1,0.3-0.2c0.1-0.1,0.1-0.2,0.2-0.3l0.3-0.7l-1.2-2.5
				c-0.1-0.2-0.1-0.3-0.3-0.4c-0.1-0.1-0.2-0.1-0.3-0.1v-0.2h1.4V31c-0.2,0-0.4,0.1-0.4,0.2c0,0.1,0.1,0.3,0.1,0.4L290.6,33.3z"/>
			<path id="_Compound_Path_8" class="st0" d="M293.8,31c0-0.1,0-0.2,0.1-0.3c0.1-0.1,0.2-0.1,0.3-0.1c0.2,0,0.4,0.2,0.4,0.4
				c0,0,0,0,0,0c0,0.1,0,0.2-0.1,0.3c-0.1,0.1-0.2,0.1-0.3,0.1c-0.1,0-0.2,0-0.3-0.1C293.8,31.2,293.8,31.1,293.8,31z M293.8,33.6
				c0-0.2,0.2-0.4,0.4-0.4c0.2,0,0.4,0.2,0.4,0.4c0,0.1,0,0.2-0.1,0.3c-0.1,0.1-0.2,0.1-0.3,0.1c-0.1,0-0.2,0-0.3-0.1
				C293.8,33.9,293.8,33.8,293.8,33.6z"/>
			<path id="_Compound_Path_9" class="st0" d="M302.9,34.1h-0.2l-0.9-2.5l-0.9,2.5h-0.2l-0.9-2.5c-0.1-0.2-0.1-0.3-0.2-0.5
				c-0.1-0.1-0.2-0.1-0.3-0.1v-0.2h1.4V31c-0.1,0-0.2,0-0.3,0c-0.1,0-0.1,0.1-0.1,0.1c0,0.2,0.1,0.3,0.1,0.4l0.6,1.7l1-2.5h0.1
				l0.9,2.5l0.7-1.8c0-0.1,0.1-0.2,0.1-0.3c0-0.1-0.1-0.2-0.4-0.2v-0.2h1V31c-0.1,0-0.2,0-0.3,0.1c-0.1,0.1-0.2,0.2-0.2,0.3
				l-0.1,0.2L302.9,34.1z"/>
			<path id="_Compound_Path_10" class="st0" d="M308.9,33.4h0.1c0,0.4-0.2,0.6-0.6,0.6c-0.1,0-0.3,0-0.4-0.1
				c-0.1-0.1-0.2-0.2-0.2-0.4c-0.2,0.2-0.4,0.3-0.7,0.4c-0.2,0.1-0.4,0.1-0.6,0.1c-0.2,0-0.4-0.1-0.5-0.2c-0.1-0.1-0.2-0.3-0.2-0.5
				c0-0.3,0.1-0.5,0.4-0.7c0.3-0.2,0.7-0.4,1-0.6l0.6-0.2v-0.2c0-0.2,0-0.3,0-0.5c0-0.1-0.1-0.2-0.2-0.3c-0.1-0.1-0.3-0.1-0.5-0.1
				c-0.4,0-0.6,0.1-0.6,0.4c0,0.3-0.1,0.4-0.3,0.4c-0.2,0-0.2-0.1-0.2-0.2c0-0.2,0.1-0.4,0.3-0.5c0.5-0.3,1.1-0.3,1.7-0.1
				c0.1,0.1,0.3,0.2,0.3,0.3c0.1,0.2,0.1,0.4,0.1,0.6V33c0,0.2,0,0.4,0,0.6c0,0.1,0.1,0.1,0.2,0.1C308.8,33.7,308.9,33.6,308.9,33.4
				z M307.8,32l-0.4,0.2c-0.6,0.3-1,0.6-1,1c0,0.1,0,0.3,0.1,0.4c0.1,0.1,0.2,0.1,0.3,0.1c0.1,0,0.3,0,0.4-0.1
				c0.2-0.1,0.4-0.2,0.5-0.4V32z"/>
			<path id="_Compound_Path_11" class="st0" d="M312.3,31h-0.9v1.9c0,0.2,0,0.4,0,0.6c0,0.1,0.1,0.2,0.2,0.2
				c0.1,0.1,0.2,0.1,0.3,0.1c0.2,0,0.4-0.1,0.5-0.3l0.1,0.1c-0.1,0.2-0.2,0.3-0.3,0.4c-0.1,0.1-0.3,0.1-0.5,0.1
				c-0.2,0-0.3-0.1-0.5-0.2c-0.1-0.1-0.2-0.2-0.3-0.4c0-0.2-0.1-0.5-0.1-0.8V31h-0.4v-0.2c0.2,0,0.4-0.1,0.6-0.3
				c0.2-0.2,0.3-0.4,0.3-0.7h0.1v1h0.9V31z"/>
			<path id="_Compound_Path_12" class="st0" d="M316.6,31.9h-2.2c0,0.1,0,0.3,0,0.3c0,0.4,0.1,0.8,0.3,1.2c0.2,0.3,0.5,0.4,0.8,0.4
				c0.4,0,0.8-0.2,1-0.6h0.2c-0.1,0.3-0.3,0.5-0.5,0.6c-0.5,0.3-1,0.3-1.5,0c-0.2-0.1-0.4-0.3-0.6-0.6c-0.2-0.3-0.2-0.6-0.2-0.9
				c0-0.4,0.1-0.9,0.4-1.2c0.3-0.3,0.7-0.5,1.1-0.5c0.4,0,0.7,0.1,0.9,0.4C316.4,31.3,316.6,31.6,316.6,31.9z M315.9,31.7
				c0-0.1,0-0.1,0-0.2c0-0.4-0.2-0.7-0.6-0.7c0,0-0.1,0-0.1,0c-0.5,0-0.7,0.3-0.8,0.9L315.9,31.7z"/>
			<path id="_Compound_Path_13" class="st0" d="M319.2,31.5c0.1-0.2,0.2-0.4,0.4-0.6c0.2-0.1,0.4-0.2,0.6-0.2c0.1,0,0.3,0,0.4,0.2
				c0.1,0.1,0.1,0.2,0.1,0.3c0,0.1,0,0.1-0.1,0.2c0,0.1-0.1,0.1-0.2,0.1c-0.1,0-0.2-0.1-0.3-0.3c0-0.1-0.1-0.2-0.2-0.2
				c-0.2,0-0.3,0.1-0.4,0.2c-0.1,0.1-0.2,0.3-0.3,0.5c0,0.2-0.1,0.4-0.1,0.7v0.5c0,0.3,0,0.5,0,0.6c0,0.1,0,0.2,0.1,0.2
				c0.1,0.1,0.2,0.1,0.3,0.1h0.1v0.2h-1.6v-0.2h0.1c0.1,0,0.2,0,0.3-0.1c0.1,0,0.1-0.1,0.1-0.2c0-0.2,0-0.4,0-0.6V32
				c0-0.3,0-0.5,0-0.6c0-0.1,0-0.2-0.1-0.2c-0.1-0.1-0.2-0.1-0.3-0.1h-0.1v-0.2c0.3,0,0.6-0.1,0.9-0.2
				C319.2,31,319.2,31.2,319.2,31.5z"/>
		</g>
		<path id="_Compound_Path_14" class="st0" d="M293.8,15.3h-2.3c-0.2,0-0.4,0.2-0.4,0.4c0,0,0,0,0,0v1c0,0.2,0.2,0.4,0.4,0.4
			c0,0,0,0,0,0h2.3c0.2,0,0.4-0.2,0.4-0.4c0,0,0,0,0,0v-1C294.2,15.4,294,15.3,293.8,15.3L293.8,15.3z M297.6,10.1
			c-0.1-0.1-0.5-1-0.5-1s0.2-0.1,0.2-0.1s0.1-0.1,0-0.3c-0.1-0.2-0.2-0.1-0.2-0.1s-0.1,0.1-0.3,0.2c-0.2-0.3-0.5-0.4-0.8-0.4h-0.6
			c-0.1,0-0.2,0-0.3,0.1c-0.1,0.1-0.2,0.1-0.3,0.1h-3.9c0,0,0,0-0.1,0c-0.2-0.1-0.4-0.1-0.6,0.1c-0.1,0.1-0.3,0.4-0.5,0.5
			c-0.1,0.1-0.2,0.2-0.4,0.2c0,0,0-0.1,0-0.2L289.5,9l0.1-0.2l0.1,0l0-0.1c0,0,0,0-0.1,0.1s-0.1,0.1-0.1,0.1c0,0.1-0.1,0.1-0.1,0.1
			s-0.2-0.4-0.3-0.5s-0.1-0.2-0.8,0.2s-0.6,0.6-0.6,0.6l0.3,0.5l-0.1,0.1l0.2,0.4c0,0,0,0-0.2,0.1c-0.2,0.1-0.3,0.3-0.3,0.5v10.7
			c0,0.8,0.2,1.2,1.1,1.2h8.2c0.5,0,1-0.3,1-1.2V10.8C297.8,10.3,297.7,10.3,297.6,10.1L297.6,10.1z M291.7,9.3h2.7
			c0.2,0,0.4,0.2,0.4,0.4s-0.2,0.4-0.4,0.4c0,0,0,0,0,0h-2.7c-0.2,0-0.4-0.2-0.4-0.4C291.3,9.4,291.5,9.3,291.7,9.3L291.7,9.3z
			 M295.2,17.7c0,0,0.9,1.6,1.1,2c0.3,0.5-0.1,0.7-0.1,0.7c-0.2,0.1-0.5,0.1-0.7-0.2c-0.2-0.4-0.8-1.5-1.1-1.8
			c-0.3-0.4-0.4-0.6-0.8-0.6h-1.9c-0.4,0-0.5,0.2-0.8,0.6c-0.2,0.3-0.9,1.5-1.1,1.8c-0.1,0.2-0.4,0.3-0.7,0.2c0,0-0.3-0.2-0.1-0.7
			c0.2-0.4,1.1-2,1.1-2c0.1-0.2,0.2-0.4,0.2-0.6v-1.8c0-0.2-0.1-0.4-0.2-0.6c0,0-0.9-1.6-1.1-1.9c-0.3-0.5,0.1-0.7,0.1-0.7
			c0.2-0.1,0.5-0.1,0.7,0.2c0.2,0.4,0.8,1.5,1.1,1.8c0.3,0.4,0.4,0.6,0.8,0.6h1.9c0.4,0,0.5-0.2,0.8-0.6c0.2-0.3,0.9-1.5,1.1-1.8
			c0.1-0.2,0.4-0.3,0.7-0.2c0,0,0.3,0.2,0.1,0.7c-0.2,0.4-1.1,1.9-1.1,1.9c-0.1,0.2-0.2,0.4-0.2,0.6V17
			C295,17.2,295.1,17.5,295.2,17.7L295.2,17.7z"/>
	</g>
	<path id="SVGID-2" class="st0" d="M295.4,56.3c0,1.6-1.3,2.8-2.8,2.8s-2.8-1.3-2.8-2.8c0-1.6,1.3-2.8,2.8-2.8
		C294.2,53.5,295.4,54.7,295.4,56.3C295.4,56.3,295.4,56.3,295.4,56.3z M288.9,59.8c-1.6,0-2.8,1.3-2.8,2.8s1.3,2.8,2.8,2.8
		c1.6,0,2.8-1.3,2.8-2.8C291.8,61.1,290.5,59.8,288.9,59.8L288.9,59.8z M296.3,59.8c-1.6,0-2.8,1.3-2.8,2.8s1.3,2.8,2.8,2.8
		c1.6,0,2.8-1.3,2.8-2.8C299.1,61.1,297.8,59.8,296.3,59.8L296.3,59.8z"/>
	<g>
		<defs>
			<path id="SVGID_1_" d="M295.4,56.3c0,1.6-1.3,2.8-2.8,2.8s-2.8-1.3-2.8-2.8c0-1.6,1.3-2.8,2.8-2.8
				C294.2,53.5,295.4,54.7,295.4,56.3C295.4,56.3,295.4,56.3,295.4,56.3z M288.9,59.8c-1.6,0-2.8,1.3-2.8,2.8s1.3,2.8,2.8,2.8
				c1.6,0,2.8-1.3,2.8-2.8C291.8,61.1,290.5,59.8,288.9,59.8L288.9,59.8z M296.3,59.8c-1.6,0-2.8,1.3-2.8,2.8s1.3,2.8,2.8,2.8
				c1.6,0,2.8-1.3,2.8-2.8C299.1,61.1,297.8,59.8,296.3,59.8L296.3,59.8z"/>
		</defs>
		<clipPath id="SVGID_2_">
			<use xlink:href="#SVGID_1_"  style="overflow:visible;"/>
		</clipPath>
		<g class="st1">
			<path class="st0" d="M292.6,53.5c3.9,0,7.1,3.2,7.1,7.1c0,3.9-3.2,7.1-7.1,7.1c-3.9,0-7.1-3.2-7.1-7.1S288.7,53.5,292.6,53.5
				L292.6,53.5z"/>
		</g>
	</g>
	<path class="st0" d="M280.7,75.2c0,0.4,0.3,0.7,0.7,0.7h0.3c0.1,0,0.2-0.1,0.2-0.2V70l0,0c0-0.1-0.1-0.2-0.2-0.2h-0.8
		c-0.1,0-0.2,0.1-0.2,0.2l0,0v0.5c-0.5-0.6-1.3-0.9-2.1-0.9c-1.8,0-3.2,1.4-3.3,3.2c0,1.8,1.4,3.2,3.2,3.3c0,0,0.1,0,0.1,0l0,0
		C279.5,76.1,280.2,75.8,280.7,75.2L280.7,75.2z M278.7,74.9c-1.2,0-2.1-0.9-2.1-2c0-1.2,0.9-2.1,2-2.1c1.2,0,2.1,0.9,2.1,2
		c0,0,0,0,0,0C280.7,74,279.8,74.9,278.7,74.9C278.7,74.9,278.7,74.9,278.7,74.9z"/>
	<path class="st0" d="M293.9,75.2c0,0.4,0.3,0.7,0.7,0.7h0.3c0.1,0,0.2-0.1,0.2-0.2V70l0,0c0-0.1-0.1-0.2-0.2-0.2h-0.8
		c-0.1,0-0.2,0.1-0.2,0.2l0,0v0.5c-0.5-0.6-1.3-0.9-2.1-0.9c-1.8,0-3.2,1.4-3.3,3.2c0,1.8,1.4,3.2,3.2,3.3c0,0,0.1,0,0.1,0l0,0
		C292.6,76.1,293.4,75.8,293.9,75.2L293.9,75.2z M291.8,74.9c-1.2,0-2.1-0.9-2.1-2c0-1.2,0.9-2.1,2-2.1c1.2,0,2.1,0.9,2.1,2
		c0,0,0,0,0,0C293.9,74,293,74.9,291.8,74.9C291.8,74.9,291.8,74.9,291.8,74.9z"/>
	<path class="st0" d="M308.6,75.2c0,0.4,0.3,0.7,0.7,0.7h0.3c0.1,0,0.2-0.1,0.2-0.2V70l0,0c0-0.1-0.1-0.2-0.2-0.2h-0.8
		c-0.1,0-0.2,0.1-0.2,0.2l0,0v0.5c-0.5-0.6-1.3-0.9-2.1-0.9c-1.8,0-3.2,1.4-3.3,3.2c0,1.8,1.4,3.2,3.2,3.3c0,0,0.1,0,0.1,0l0,0
		C307.3,76.1,308.1,75.8,308.6,75.2L308.6,75.2z M306.5,74.9c-1.2,0-2.1-0.9-2.1-2c0-1.2,0.9-2.1,2-2.1c1.2,0,2.1,0.9,2.1,2
		c0,0,0,0,0,0C308.6,74,307.7,74.9,306.5,74.9L306.5,74.9z"/>
	<path class="st0" d="M302.3,75.4v-3l0,0c0.1-1.4-1-2.7-2.4-2.8c-0.1,0-0.2,0-0.3,0c-0.7,0-1.3,0.3-1.7,0.9c0-0.4-0.3-0.7-0.7-0.6
		c0,0,0,0,0,0h-0.3c-0.1,0-0.2,0.1-0.2,0.2c0,0,0,0,0,0v5.2l0,0v0.6l0,0c0,0.1,0.1,0.2,0.2,0.2h0.8c0,0,0,0,0,0h0l0,0l0,0l0,0
		c0,0,0,0,0,0l0,0c0,0,0,0,0,0l0,0c0,0,0-0.1,0-0.1l0,0v-3.4c0-0.9,0.7-1.6,1.6-1.6c0.9,0,1.6,0.7,1.6,1.6v2.8l0,0v0.6l0,0
		c0,0.1,0.1,0.2,0.2,0.2h0.8c0,0,0,0,0,0h0l0,0l0,0l0,0c0,0,0,0,0,0l0,0c0,0,0,0,0,0l0,0c0,0,0-0.1,0-0.1l0,0L302.3,75.4L302.3,75.4
		z"/>
	<path class="st0" d="M283.8,74.4c0.5,0.4,1.1,0.5,1.7,0.6c0.5,0,1.1-0.3,1.1-0.8c0-0.6-1.2-0.7-2-1c-0.8-0.2-1.4-0.9-1.4-1.7
		c0-1.3,1.2-1.9,2.3-1.9c0.7,0,1.3,0.2,1.9,0.6c0.1,0.1,0.1,0.2,0.1,0.3c0,0,0,0,0,0l-0.4,0.6c0,0.1-0.2,0.1-0.2,0.1c0,0,0,0,0,0
		c-0.4-0.3-0.8-0.4-1.2-0.4c-0.7,0-1.1,0.3-1.1,0.7c0,0.5,0.5,0.6,1.1,0.8c1.1,0.3,2.2,0.6,2.2,2c-0.1,1.1-1.1,2-2.3,1.9
		c0,0,0,0,0,0c-0.8,0-1.7-0.2-2.3-0.7c-0.1-0.1-0.1-0.2,0-0.3l0.4-0.6C283.6,74.4,283.7,74.3,283.8,74.4
		C283.8,74.4,283.8,74.4,283.8,74.4z"/>
	<g id="g10">
		<g id="g12">
			<path id="path14" class="st0" d="M108.1,57.7H104c-0.3,0-0.5,0.2-0.6,0.5l-1.7,10.6c0,0.2,0.1,0.4,0.3,0.4c0,0,0,0,0.1,0h2
				c0.3,0,0.5-0.2,0.6-0.5l0.4-2.9c0-0.3,0.3-0.5,0.6-0.5h1.3c2.7,0,4.3-1.3,4.7-3.9c0.2-0.9,0-1.9-0.5-2.7
				C110.3,58,109.2,57.6,108.1,57.7L108.1,57.7z M108.6,61.6c-0.2,1.5-1.4,1.5-2.4,1.5h-0.6l0.4-2.8c0-0.2,0.2-0.3,0.3-0.3h0.3
				c0.7,0,1.4,0,1.8,0.4C108.6,60.8,108.7,61.2,108.6,61.6"/>
			<path id="path16" class="st0" d="M120.4,61.5h-2c-0.2,0-0.3,0.1-0.3,0.3l-0.1,0.6l-0.1-0.2c-0.6-0.6-1.5-0.9-2.3-0.8
				c-2.3,0-4.1,1.7-4.4,4c-0.2,1.1,0.1,2.2,0.7,3c0.6,0.7,1.5,1.1,2.5,1c1,0,2-0.4,2.7-1.1l-0.1,0.5c0,0.2,0.1,0.4,0.3,0.4
				c0,0,0,0,0.1,0h1.8c0.3,0,0.5-0.2,0.6-0.5l1.1-6.8C120.8,61.7,120.7,61.6,120.4,61.5C120.5,61.5,120.4,61.5,120.4,61.5z
				 M117.7,65.4c-0.2,1.1-1.1,1.9-2.2,1.9c-0.8,0.1-1.6-0.5-1.7-1.4c0-0.2,0-0.4,0-0.6c0.2-1.1,1.1-1.9,2.2-1.9c0.5,0,1,0.2,1.3,0.5
				C117.6,64.4,117.8,64.9,117.7,65.4"/>
			<path id="path18" class="st0" d="M130.9,61.5h-2c-0.2,0-0.4,0.1-0.5,0.3l-2.7,4l-1.2-3.9c-0.1-0.2-0.3-0.4-0.6-0.4h-1.9
				c-0.2,0-0.3,0.2-0.3,0.3c0,0,0,0.1,0,0.1l2.2,6.4l-2.1,2.9c-0.1,0.2-0.1,0.4,0.1,0.5c0.1,0,0.1,0.1,0.2,0.1h2
				c0.2,0,0.4-0.1,0.5-0.2l6.6-9.5c0.1-0.2,0.1-0.4-0.1-0.5C131.1,61.5,131,61.5,130.9,61.5"/>
			<path id="path20" class="st0" d="M137.5,57.7h-4.1c-0.3,0-0.5,0.2-0.6,0.5l-1.7,10.6c0,0.2,0.1,0.4,0.3,0.4c0,0,0,0,0.1,0h2.1
				c0.2,0,0.4-0.1,0.4-0.3l0.5-3c0-0.3,0.3-0.5,0.6-0.5h1.3c2.7,0,4.3-1.3,4.7-3.9c0.2-0.9,0-1.9-0.5-2.7
				C139.7,58,138.6,57.6,137.5,57.7L137.5,57.7z M138,61.6c-0.2,1.5-1.4,1.5-2.4,1.5h-0.6l0.4-2.8c0-0.2,0.2-0.3,0.3-0.3h0.3
				c0.7,0,1.4,0,1.8,0.4C138,60.8,138.1,61.2,138,61.6"/>
			<path id="path22-2" class="st0" d="M149.8,61.5h-2c-0.2,0-0.3,0.1-0.3,0.3l-0.1,0.6l-0.1-0.2c-0.6-0.6-1.5-0.9-2.3-0.8
				c-2.3,0-4.1,1.7-4.4,4c-0.2,1.1,0.1,2.2,0.7,3c0.6,0.7,1.5,1.1,2.5,1c1,0,2-0.4,2.7-1.1l-0.1,0.5c0,0.2,0.1,0.4,0.3,0.4
				c0,0,0,0,0.1,0h1.8c0.3,0,0.5-0.2,0.6-0.5l1.1-6.8C150.2,61.7,150.1,61.6,149.8,61.5C149.9,61.5,149.9,61.5,149.8,61.5
				L149.8,61.5z M147.1,65.4c-0.2,1.1-1.1,1.9-2.2,1.9c-0.8,0.1-1.6-0.5-1.7-1.4c0-0.2,0-0.4,0-0.6c0.2-1.1,1.1-1.9,2.2-1.9
				c0.5,0,1,0.2,1.3,0.5C147.1,64.4,147.2,64.9,147.1,65.4"/>
			<path id="path24" class="st0" d="M152.2,58l-1.7,10.8c0,0.2,0.1,0.4,0.3,0.4c0,0,0,0,0.1,0h1.7c0.3,0,0.5-0.2,0.6-0.5l1.7-10.6
				c0-0.2-0.1-0.4-0.3-0.4c0,0,0,0-0.1,0h-1.9C152.3,57.7,152.2,57.8,152.2,58"/>
		</g>
	</g>
	<path class="st0" d="M212.7,108.3c0,1.4-1.7,1.3-1.7,1.3h-1.7v-2.5h1.7C212.8,107,212.7,108.3,212.7,108.3 M209.2,103.2h1.3
		c1.4,0.1,1.3,1.1,1.3,1.1c0,1.3-1.5,1.3-1.5,1.3h-1.1V103.2z M212.4,106.1c0.7-0.3,1.2-1.1,1.2-1.8c0,0,0.2-2.2-2.7-2.5h-3.2v9.2
		h3.7c0,0,3.1,0,3.1-2.6C214.4,107.2,213.5,106.3,212.4,106.1 M204,100h13.6v12.8H204L204,100z"/>
	<path class="st0" d="M197,108.3c0,1.4-1.7,1.3-1.7,1.3h-1.7v-2.5h1.7C197.1,107,197,108.3,197,108.3 M193.6,103.2h1.3
		c1.4,0.1,1.3,1.1,1.3,1.1c0,1.3-1.5,1.3-1.5,1.3h-1.1V103.2z M196.7,106.1c0.7-0.3,1.2-1.1,1.2-1.8c0,0,0.2-2.2-2.7-2.5h-3.2v9.2
		h3.7c0,0,3.1,0,3.1-2.6C198.7,107.2,197.9,106.3,196.7,106.1 M188.4,100H202v12.8h-13.6L188.4,100z"/>
	<path class="st0" d="M230.5,102.4v1.7c-1.1-0.6-2.3-1-3.5-1c0,0-3.4-0.1-3.6,3.3c0,0-0.1,3.1,3.5,3.3c1.3,0,2.6-0.4,3.6-1.1v1.8
		c-1.9,1-4.1,1.1-6,0.4c-2.3-1-3.5-3.7-2.5-6c0.6-1.4,1.7-2.4,3.2-2.7c0.9-0.3,1.8-0.3,2.7-0.2C228.9,101.8,229.7,102.1,230.5,102.4
		 M219.7,112.8h13.6V100h-13.6V112.8z"/>
	<path class="st0" d="M182.2,55.9c-1.6,0.8-2.8,2.3-3.2,4c-0.6,2.4,1.8,3.5,2,3.1c0.2-0.4-0.4-0.5-0.6-1.8c-0.1-1.6,0.4-3.1,1.5-4.2
		c0.2-0.1,0.2,0.1,0.2,0.4c0,0.7,0,6.8,0,8.1c0.1,0.9,0,1.9-0.2,2.8c-0.1,0.5-0.3,0.9-0.2,1.1c0.2,0.2,0.9-0.2,1.4-0.8
		c0.5-0.8,0.8-1.7,0.7-2.6c0-1.2,0-3,0-4c0-1,0-3.8,0-5.4C183.9,56.1,182.7,55.7,182.2,55.9 M228.1,64c0,0.7-0.2,1.4-0.5,2.1
		c-0.5,1-1.5,1.3-1.9-0.1c-0.2-1-0.3-2-0.1-3.1c0.2-1.1,0.6-1.9,1.4-1.8S228.2,62.2,228.1,64L228.1,64z M215.2,69.6
		c0,1.5-0.2,2.8-0.8,3.2c-0.3,0.4-0.9,0.4-1.3,0c-0.3-0.3-0.3-0.6-0.2-1c0.2-1,1-2,2.2-3.2C215.2,68.6,215.2,68.9,215.2,69.6
		L215.2,69.6z M215,64c0,0.7-0.2,1.4-0.5,2.1c-0.5,1-1.5,1.3-1.9-0.1c-0.2-1-0.3-2-0.1-2.9c0.2-1,0.6-1.9,1.4-1.9
		C214.7,61.1,215.1,61.9,215,64L215,64z M207.5,64c0,0.7-0.2,1.5-0.5,2.1c-0.5,1-1.5,1.3-1.9-0.1c-0.2-1-0.3-2.1-0.1-3.1
		c0.2-1.1,0.7-1.9,1.4-1.8C207.2,61.2,207.6,62.2,207.5,64z M241.8,65c-0.2,0-0.3,0.2-0.3,0.5c-0.2,1.1-0.5,1.4-0.8,1.4
		c-0.4,0-0.7-0.6-0.8-1.7c-0.1-1.4-0.1-2.7,0-4.1c0-0.3-0.1-0.7-1-1c-0.4-0.1-0.9-0.3-1.2,0.3c-0.6,1.3-0.9,2.6-1.2,4c0,0,0,0,0,0
		c-0.1-1.1-0.2-2.2-0.2-3.2c0-0.4-0.2-0.7-0.5-0.9c-0.3-0.2-1.1-0.5-1.3-0.1c-0.4,0.6-0.6,1.3-0.8,1.9c-0.2,0.7-0.4,1.2-0.4,1.2
		s0-2,0-2.7c0-0.2-0.1-0.3-0.3-0.4c-0.3-0.1-0.7-0.2-1-0.2c-0.3,0-0.3,0.2-0.3,0.4c0,0,0,2.6,0,4.4c0,0.1,0,0.2,0,0.3
		c-0.2,0.8-0.6,2-1.2,2s-0.8-0.5-0.8-2.6c0-1.3,0-1.8,0.1-2.7c0-0.5,0-0.9,0-1c0-0.3-0.5-0.4-0.7-0.5c-0.2,0-0.4-0.1-0.6-0.1
		c-0.2,0-0.4,0.1-0.4,0.3c0,0,0,0,0,0c0,0.1,0,0.3,0,0.3c-0.2-0.4-0.6-0.7-1-0.8c-0.9-0.3-1.8,0.1-2.3,0.9c-0.5,0.8-0.9,1.7-0.9,2.6
		c-0.1,0.8-0.1,1.6,0.1,2.4c-0.2,0.8-0.5,1.1-0.9,1.1c-0.6,0-1-0.9-0.9-2.5c0.1-0.9,0.2-1.9,0.5-2.8c0.1-0.3,0-0.7-0.2-0.9
		c-0.3-0.3-0.7-0.3-1.1-0.2c-0.4,0.1-0.9,0.2-1.5,0.3c0-0.1,0-0.2,0.1-0.3c0.1-1.1-1.1-1-1.5-0.7c-0.3,0.2-0.4,0.6-0.5,0.9
		c-0.1,0.4,0.1,0.8,0.5,1.1c-0.3,1-0.6,2-1.2,2.9c-0.2,0.4-0.5,0.8-0.7,1.1c0-0.1,0-0.3,0-0.4c0-1.9,0-3.4,0-3.9s0-0.9,0-1
		c0-0.2-0.1-0.3-0.4-0.4c-0.2-0.1-0.5-0.1-0.7-0.2c-0.3,0-0.5,0.2-0.5,0.4c0,0,0,0.3,0,0.3c-0.2-0.4-0.6-0.7-1-0.8
		c-0.9-0.3-1.8,0.1-2.3,0.9c-0.5,0.8-0.8,1.7-0.9,2.6c-0.1,0.8-0.1,1.5,0,2.3c-0.1,0.6-0.5,1.3-0.9,1.3c-0.5,0-0.8-0.5-0.8-2.6
		c0-1.3,0-1.8,0.1-2.7c0-0.5,0-0.9,0-1c0-0.3-0.5-0.4-0.7-0.5c-0.2-0.1-0.4-0.1-0.6-0.1c-0.2,0-0.3,0.2-0.4,0.3v0.3
		c-0.2-0.4-0.6-0.7-1-0.8c-0.9-0.3-1.8,0.1-2.3,0.9c-0.6,0.8-0.9,1.7-0.9,2.6c0,0.4-0.1,0.8-0.1,1.1c-0.2,1-0.9,2.2-1.5,2.2
		c-0.4,0-0.7-0.7-0.7-2.1c0-1.9,0.1-4.7,0.1-4.9c0,0,0.8,0,0.9,0c0.4,0,0.7,0,1.2,0c0.3,0,0.5-0.9,0.2-1c-0.4-0.1-0.9-0.1-1.3-0.1
		c-0.3,0-1.1-0.1-1.1-0.1s0.1-1.8,0.1-2c0-0.2-0.2-0.2-0.3-0.3c-0.3-0.1-0.6-0.2-0.9-0.2c-0.4-0.1-0.6,0-0.7,0.4
		c-0.1,0.5-0.1,2.1-0.1,2.1c-0.3,0-1.4-0.1-1.7-0.1c-0.3,0-0.6,1.2-0.2,1.3c0.5,0,1.3,0,1.8,0c0,0,0,2.8,0,3.7c0,0.1,0,0.2,0,0.3
		c-0.2,0.9-0.6,1.7-1.3,2.4c0.2-0.9-0.2-1.9-1-2.4c-0.3-0.2-0.9-0.7-1.6-1.2c0.3-0.3,0.5-0.7,0.7-1.1c0.2-0.5,0.3-1.2-0.3-1.3
		c-0.9-0.2-1.8,0.4-2,1.3c-0.2,0.5-0.1,1.1,0.3,1.5c0,0,0.1,0.1,0.1,0.1c-0.2,0.4-0.5,1-0.8,1.4c-0.7,1.2-1.3,2.2-1.7,2.2
		c-0.3,0-0.3-1-0.3-1.9c0-0.8,0.1-2,0.1-3.2c0-0.4-0.2-0.7-0.5-0.9c-0.3-0.2-0.6-0.3-0.9-0.4c-0.4,0-1.5,0.1-2.6,3.1
		c-0.1,0.4-0.4,1.1-0.4,1.1l0-3.7c0-0.1-0.1-0.2-0.2-0.2c-0.3-0.2-0.7-0.3-1.1-0.3c-0.2,0-0.3,0.1-0.3,0.3l0,5.8
		c0,0.4,0,0.8,0.1,1.2c0,0.2,0.1,0.4,0.2,0.5c0.1,0.1,0.2,0.2,0.4,0.2c0.2,0,1,0.1,1-0.2c0.1-0.8,0.3-1.6,0.5-2.4c0.3-1.5,1-2.9,2-4
		c0.1-0.1,0.2-0.1,0.2,0c0,0.5-0.1,1.9-0.1,3c-0.1,3,0.4,3.6,1.2,3.6c0.6,0,1.4-0.6,2.3-2.1c0.6-0.9,1.1-1.9,1.5-2.5
		c0.3,0.3,0.6,0.5,0.9,0.8c0.6,0.4,0.9,1.2,0.8,1.9c-0.1,0.5-0.6,0.9-1.4,0.5c-0.2-0.1-0.3-0.2-0.6-0.4c-0.1-0.1-0.3-0.1-0.4,0
		c-0.3,0.2-0.5,0.5-0.6,0.9c-0.1,0.3,0.3,0.5,0.6,0.7c0.4,0.2,0.9,0.3,1.4,0.3c1.6,0.1,3-0.8,3.9-3c0.2,1.9,0.9,3,2.1,3
		c0.8,0,1.6-1.1,2-2.1c0.1,0.4,0.2,0.8,0.4,1.1c0.6,1,2,1.3,3,0.6c0.3-0.2,0.5-0.4,0.7-0.7c0.1-0.2,0.2-0.3,0.3-0.5
		c0.1,0.9,0.8,1.6,1.6,1.6c0.8,0,1.5-0.5,1.7-1.3c0.1,0.1,0.1,0.2,0.2,0.3c0.6,1,2,1.3,3,0.6c0.3-0.2,0.5-0.4,0.7-0.7
		c0-0.1,0.1-0.1,0.1-0.2l0,0.8l-0.8,0.8c-1.4,1.3-2.5,2.3-2.6,3.4c-0.1,1.1,0.7,2,1.8,2.1c0.1,0,0.1,0,0.2,0c0.9,0,1.8-0.4,2.3-1.2
		c0.5-1.1,0.8-2.2,0.7-3.4c0-0.5,0-1.2,0-2c0.6-0.7,1.1-1.4,1.6-2.1c0.6-1,1.1-2,1.5-3.1c0,0,0.5,0,1.1,0c0.2,0,0.2,0,0.2,0.2
		c-0.4,1.4-0.4,3-0.1,4.4c0.2,0.9,1,1.5,1.9,1.5c0.7-0.1,1.3-0.5,1.6-1.2c0,0.1,0.1,0.2,0.1,0.2c0.9,1.5,2.7,1.2,3.7-0.1
		c0.1-0.2,0.2-0.3,0.3-0.5c0.1,0.9,0.8,1.6,1.7,1.6c0.6,0,1.1-0.2,1.6-1.3c0,0.3,0,0.6,0.1,1c0,0.1,0.2,0.2,0.3,0.2
		c0.4,0.1,0.8,0.2,1.3,0.1c0.1,0,0.2-0.1,0.3-0.4c0-1,0.1-2,0.2-2.9c0.2-0.9,0.5-1.7,0.9-2.5c0.1-0.2,0.2-0.2,0.2,0
		c0,0.4,0,1.4,0.2,2.8c0,0.6,0.2,1.3,0.4,1.9c0.2,0.4,0.6,0.6,1,0.6c0.2,0,0.6-0.1,0.6-0.4c0-0.9,0.1-1.9,0.4-2.8
		c0.2-0.8,0.5-1.5,0.8-2.2c0.1-0.1,0.1,0,0.1,0c-0.1,1.4,0,2.8,0.2,4.2c0.4,1.7,1.5,1.9,1.9,1.9c0.8,0,1.5-0.6,1.7-2.3
		C242.1,65.3,242.1,65,241.8,65"/>
</g>
<circle class="st2" cx="21.5" cy="202.3" r="22.7"/>
<circle class="st2" cx="109.3" cy="202.3" r="22.7"/>
<circle class="st2" cx="197.1" cy="202.3" r="22.7"/>
<circle class="st2" cx="284.9" cy="202.3" r="22.7"/>
<circle class="st3" cx="21.5" cy="202.3" r="22.7"/>
<circle class="st3" cx="109.3" cy="202.3" r="22.7"/>
<g>
	<circle class="st0" cx="47.4" cy="202.3" r="0.5"/>
	<circle class="st0" cx="50.4" cy="202.3" r="0.5"/>
	<circle class="st0" cx="53.4" cy="202.3" r="0.5"/>
	<circle class="st0" cx="56.4" cy="202.3" r="0.5"/>
	<circle class="st0" cx="59.4" cy="202.3" r="0.5"/>
	<circle class="st0" cx="62.4" cy="202.3" r="0.5"/>
	<circle class="st0" cx="65.4" cy="202.3" r="0.5"/>
	<circle class="st0" cx="68.4" cy="202.3" r="0.5"/>
	<circle class="st0" cx="71.4" cy="202.3" r="0.5"/>
	<circle class="st0" cx="74.4" cy="202.3" r="0.5"/>
	<circle class="st0" cx="77.4" cy="202.3" r="0.5"/>
	<circle class="st0" cx="80.4" cy="202.3" r="0.5"/>
	<circle class="st0" cx="83.4" cy="202.3" r="0.5"/>
</g>
<circle class="st3" cx="197.1" cy="202.3" r="22.7"/>
<g>
	<circle class="st0" cx="135.2" cy="202.3" r="0.5"/>
	<circle class="st0" cx="138.2" cy="202.3" r="0.5"/>
	<circle class="st0" cx="141.2" cy="202.3" r="0.5"/>
	<circle class="st0" cx="144.2" cy="202.3" r="0.5"/>
	<circle class="st0" cx="147.2" cy="202.3" r="0.5"/>
	<circle class="st0" cx="150.2" cy="202.3" r="0.5"/>
	<circle class="st0" cx="153.2" cy="202.3" r="0.5"/>
	<circle class="st0" cx="156.2" cy="202.3" r="0.5"/>
	<circle class="st0" cx="159.2" cy="202.3" r="0.5"/>
	<circle class="st0" cx="162.2" cy="202.3" r="0.5"/>
	<circle class="st0" cx="165.2" cy="202.3" r="0.5"/>
	<circle class="st0" cx="168.2" cy="202.3" r="0.5"/>
	<circle class="st0" cx="171.2" cy="202.3" r="0.5"/>
</g>
<circle class="st3" cx="284.9" cy="202.3" r="22.7"/>
<g>
	<circle class="st0" cx="223" cy="202.3" r="0.5"/>
	<circle class="st0" cx="226" cy="202.3" r="0.5"/>
	<circle class="st0" cx="229" cy="202.3" r="0.5"/>
	<circle class="st0" cx="232" cy="202.3" r="0.5"/>
	<circle class="st0" cx="235" cy="202.3" r="0.5"/>
	<circle class="st0" cx="238" cy="202.3" r="0.5"/>
	<circle class="st0" cx="241" cy="202.3" r="0.5"/>
	<circle class="st0" cx="244" cy="202.3" r="0.5"/>
	<circle class="st0" cx="247" cy="202.3" r="0.5"/>
	<circle class="st0" cx="250" cy="202.3" r="0.5"/>
	<circle class="st0" cx="253" cy="202.3" r="0.5"/>
	<circle class="st0" cx="256" cy="202.3" r="0.5"/>
	<circle class="st0" cx="259" cy="202.3" r="0.5"/>
</g>
<g>
	<g>
		<path class="st0" d="M7.5,203.1c0,0.5-0.2,0.8-0.4,1c-0.2,0.2-0.6,0.4-1,0.4c-0.4,0-0.8-0.2-1-0.5c-0.3-0.3-0.4-0.8-0.4-1.3v-0.8
			c0-0.6,0.1-1,0.4-1.3s0.6-0.5,1.1-0.5c0.4,0,0.7,0.1,1,0.4s0.3,0.6,0.4,1.1H7c0-0.3-0.1-0.6-0.2-0.7s-0.3-0.2-0.6-0.2
			c-0.3,0-0.5,0.1-0.7,0.3c-0.2,0.2-0.2,0.6-0.2,1v0.8c0,0.4,0.1,0.8,0.2,1s0.4,0.3,0.6,0.3s0.5-0.1,0.6-0.2s0.2-0.4,0.2-0.7H7.5z"
			/>
		<path class="st0" d="M11,202.7c0,0.6-0.1,1-0.4,1.3s-0.6,0.5-1.1,0.5c-0.4,0-0.8-0.2-1-0.5c-0.3-0.3-0.4-0.7-0.4-1.3V202
			c0-0.6,0.1-1,0.4-1.3c0.3-0.3,0.6-0.5,1.1-0.5c0.4,0,0.8,0.2,1.1,0.5s0.4,0.8,0.4,1.3V202.7z M10.5,202c0-0.5-0.1-0.8-0.2-1
			c-0.1-0.2-0.4-0.3-0.7-0.3c-0.3,0-0.5,0.1-0.7,0.3s-0.2,0.6-0.2,1v0.8c0,0.4,0.1,0.8,0.2,1s0.4,0.3,0.7,0.3s0.5-0.1,0.7-0.3
			s0.2-0.5,0.2-1V202z"/>
		<path class="st0" d="M12.5,200.2l1.1,3.5l1.1-3.5h0.7v4.3h-0.5v-1.7l0-1.7l-1.1,3.3h-0.4l-1.1-3.3l0,1.7v1.7h-0.5v-4.3H12.5z"/>
		<path class="st0" d="M16.9,202.8v1.7h-0.5v-4.3h1.4c0.4,0,0.7,0.1,0.9,0.4c0.2,0.2,0.3,0.6,0.3,0.9c0,0.4-0.1,0.7-0.3,0.9
			s-0.5,0.3-0.9,0.3H16.9z M16.9,202.3h0.8c0.2,0,0.4-0.1,0.5-0.2c0.1-0.1,0.2-0.3,0.2-0.6c0-0.3-0.1-0.5-0.2-0.6
			c-0.1-0.2-0.3-0.2-0.5-0.2h-0.8V202.3z"/>
		<path class="st0" d="M22.5,202.7c0,0.6-0.1,1-0.4,1.3s-0.6,0.5-1.1,0.5c-0.4,0-0.8-0.2-1-0.5c-0.3-0.3-0.4-0.7-0.4-1.3V202
			c0-0.6,0.1-1,0.4-1.3c0.3-0.3,0.6-0.5,1.1-0.5c0.4,0,0.8,0.2,1.1,0.5s0.4,0.8,0.4,1.3V202.7z M21.9,202c0-0.5-0.1-0.8-0.2-1
			c-0.1-0.2-0.4-0.3-0.7-0.3c-0.3,0-0.5,0.1-0.7,0.3s-0.2,0.6-0.2,1v0.8c0,0.4,0.1,0.8,0.2,1s0.4,0.3,0.7,0.3s0.5-0.1,0.7-0.3
			s0.2-0.5,0.2-1V202z"/>
		<path class="st0" d="M25.2,203.4c0-0.2-0.1-0.4-0.2-0.5s-0.3-0.2-0.6-0.3s-0.5-0.2-0.7-0.3s-0.3-0.3-0.4-0.4s-0.1-0.3-0.1-0.5
			c0-0.3,0.1-0.6,0.3-0.8s0.5-0.3,0.9-0.3c0.2,0,0.5,0.1,0.7,0.2c0.2,0.1,0.3,0.3,0.5,0.5c0.1,0.2,0.2,0.4,0.2,0.7h-0.5
			c0-0.3-0.1-0.5-0.2-0.6s-0.3-0.2-0.5-0.2c-0.2,0-0.4,0.1-0.5,0.2c-0.1,0.1-0.2,0.3-0.2,0.5c0,0.2,0.1,0.3,0.2,0.5s0.3,0.2,0.6,0.3
			c0.4,0.1,0.7,0.3,0.9,0.5s0.3,0.5,0.3,0.8c0,0.3-0.1,0.6-0.3,0.8c-0.2,0.2-0.5,0.3-0.9,0.3c-0.2,0-0.5-0.1-0.7-0.2
			c-0.2-0.1-0.4-0.3-0.5-0.5c-0.1-0.2-0.2-0.4-0.2-0.7h0.5c0,0.3,0.1,0.5,0.2,0.6s0.3,0.2,0.6,0.2c0.2,0,0.4-0.1,0.5-0.2
			S25.2,203.6,25.2,203.4z"/>
		<path class="st0" d="M28.4,203.3H27l-0.3,1.1h-0.6l1.4-4.3h0.5l1.4,4.3h-0.6L28.4,203.3z M27.1,202.9h1.2l-0.6-1.9L27.1,202.9z"/>
		<path class="st0" d="M29.9,204.5v-4.3h1.2c0.4,0,0.7,0.1,0.9,0.3s0.3,0.5,0.3,0.9c0,0.2,0,0.4-0.1,0.5s-0.2,0.3-0.4,0.4
			c0.2,0.1,0.4,0.2,0.5,0.4s0.2,0.4,0.2,0.7c0,0.4-0.1,0.7-0.3,0.9s-0.5,0.3-0.9,0.3H29.9z M30.4,202h0.7c0.2,0,0.3-0.1,0.4-0.2
			c0.1-0.1,0.2-0.3,0.2-0.5c0-0.2-0.1-0.4-0.2-0.5s-0.3-0.2-0.5-0.2h-0.7V202z M30.4,202.5v1.5h0.7c0.2,0,0.4-0.1,0.5-0.2
			s0.2-0.3,0.2-0.6c0-0.5-0.2-0.8-0.7-0.8H30.4z"/>
		<path class="st0" d="M33.7,204h1.7v0.5h-2.2v-4.3h0.5V204z"/>
		<path class="st0" d="M38,202.5h-1.5v1.5h1.8v0.5H36v-4.3h2.3v0.5h-1.7v1.4H38V202.5z"/>
	</g>
</g>
<g>
	<path class="st0" d="M93,204.5v-4.3h1c0.5,0,0.9,0.2,1.2,0.5c0.3,0.3,0.4,0.8,0.4,1.3v0.7c0,0.6-0.1,1-0.4,1.3
		c-0.3,0.3-0.7,0.5-1.2,0.5H93z M93.5,200.7v3.3h0.4c0.4,0,0.7-0.1,0.8-0.3s0.3-0.5,0.3-1V202c0-0.4-0.1-0.8-0.3-1s-0.4-0.3-0.8-0.3
		H93.5z"/>
	<path class="st0" d="M98.4,202.5h-1.5v1.5h1.8v0.5h-2.3v-4.3h2.3v0.5h-1.7v1.4h1.5V202.5z"/>
	<path class="st0" d="M102,203.1c0,0.5-0.2,0.8-0.4,1c-0.2,0.2-0.6,0.4-1,0.4c-0.4,0-0.8-0.2-1-0.5c-0.3-0.3-0.4-0.8-0.4-1.3v-0.8
		c0-0.6,0.1-1,0.4-1.3s0.6-0.5,1.1-0.5c0.4,0,0.7,0.1,1,0.4s0.3,0.6,0.4,1.1h-0.5c0-0.3-0.1-0.6-0.2-0.7s-0.3-0.2-0.6-0.2
		c-0.3,0-0.5,0.1-0.7,0.3c-0.2,0.2-0.2,0.6-0.2,1v0.8c0,0.4,0.1,0.8,0.2,1s0.4,0.3,0.6,0.3s0.5-0.1,0.6-0.2s0.2-0.4,0.2-0.7H102z"/>
	<path class="st0" d="M103.3,204h1.7v0.5h-2.2v-4.3h0.5V204z"/>
	<path class="st0" d="M107.7,203.3h-1.4l-0.3,1.1h-0.6l1.4-4.3h0.5l1.4,4.3H108L107.7,203.3z M106.4,202.9h1.2l-0.6-1.9L106.4,202.9
		z"/>
	<path class="st0" d="M110.4,202.7h-0.8v1.7h-0.5v-4.3h1.2c0.4,0,0.7,0.1,0.9,0.3c0.2,0.2,0.3,0.5,0.3,1c0,0.3-0.1,0.5-0.2,0.7
		c-0.1,0.2-0.3,0.3-0.5,0.4l0.8,1.8v0h-0.6L110.4,202.7z M109.7,202.3h0.7c0.2,0,0.4-0.1,0.5-0.2c0.1-0.1,0.2-0.3,0.2-0.6
		c0-0.5-0.2-0.8-0.7-0.8h-0.6V202.3z"/>
	<path class="st0" d="M114.3,203.3h-1.4l-0.3,1.1H112l1.4-4.3h0.5l1.4,4.3h-0.6L114.3,203.3z M113,202.9h1.2l-0.6-1.9L113,202.9z"/>
	<path class="st0" d="M117.9,200.7h-1.1v3.8h-0.5v-3.8h-1.1v-0.5h2.8V200.7z"/>
	<path class="st0" d="M119.1,204.5h-0.5v-4.3h0.5V204.5z"/>
	<path class="st0" d="M121.2,203.6l1-3.4h0.6l-1.3,4.3H121l-1.3-4.3h0.6L121.2,203.6z"/>
	<path class="st0" d="M125.4,202.5h-1.5v1.5h1.8v0.5h-2.3v-4.3h2.3v0.5h-1.7v1.4h1.5V202.5z"/>
</g>
<g>
	<path class="st0" d="M182.2,203.6l1-3.4h0.6l-1.3,4.3H182l-1.3-4.3h0.6L182.2,203.6z"/>
	<path class="st0" d="M184.9,204.5h-0.5v-4.3h0.5V204.5z"/>
	<path class="st0" d="M187.1,202.7h-0.8v1.7h-0.5v-4.3h1.2c0.4,0,0.7,0.1,0.9,0.3c0.2,0.2,0.3,0.5,0.3,1c0,0.3-0.1,0.5-0.2,0.7
		c-0.1,0.2-0.3,0.3-0.5,0.4l0.8,1.8v0h-0.6L187.1,202.7z M186.4,202.3h0.7c0.2,0,0.4-0.1,0.5-0.2c0.1-0.1,0.2-0.3,0.2-0.6
		c0-0.5-0.2-0.8-0.7-0.8h-0.6V202.3z"/>
	<path class="st0" d="M191.3,200.7h-1.1v3.8h-0.5v-3.8h-1.1v-0.5h2.8V200.7z"/>
	<path class="st0" d="M194.5,200.2v3c0,0.4-0.1,0.7-0.4,0.9s-0.6,0.3-1,0.3c-0.4,0-0.7-0.1-1-0.3c-0.2-0.2-0.3-0.5-0.3-1v-3h0.5v3
		c0,0.3,0.1,0.5,0.2,0.6s0.3,0.2,0.6,0.2c0.3,0,0.5-0.1,0.6-0.2s0.2-0.4,0.2-0.6v-3H194.5z"/>
	<path class="st0" d="M197.2,203.3h-1.4l-0.3,1.1h-0.6l1.4-4.3h0.5l1.4,4.3h-0.6L197.2,203.3z M195.9,202.9h1.2l-0.6-1.9
		L195.9,202.9z"/>
	<path class="st0" d="M199.2,204h1.7v0.5h-2.2v-4.3h0.5V204z"/>
	<path class="st0" d="M202.9,204.5v-4.3h1c0.5,0,0.9,0.2,1.2,0.5c0.3,0.3,0.4,0.8,0.4,1.3v0.7c0,0.6-0.1,1-0.4,1.3
		c-0.3,0.3-0.7,0.5-1.2,0.5H202.9z M203.5,200.7v3.3h0.4c0.4,0,0.7-0.1,0.8-0.3s0.3-0.5,0.3-1V202c0-0.4-0.1-0.8-0.3-1
		s-0.4-0.3-0.8-0.3H203.5z"/>
	<path class="st0" d="M209.1,202.7c0,0.6-0.1,1-0.4,1.3s-0.6,0.5-1.1,0.5c-0.4,0-0.8-0.2-1-0.5c-0.3-0.3-0.4-0.7-0.4-1.3V202
		c0-0.6,0.1-1,0.4-1.3c0.3-0.3,0.6-0.5,1.1-0.5c0.4,0,0.8,0.2,1,0.5s0.4,0.8,0.4,1.3V202.7z M208.6,202c0-0.5-0.1-0.8-0.2-1
		c-0.1-0.2-0.4-0.3-0.7-0.3c-0.3,0-0.5,0.1-0.7,0.3s-0.2,0.6-0.2,1v0.8c0,0.4,0.1,0.8,0.2,1s0.4,0.3,0.7,0.3s0.5-0.1,0.7-0.3
		s0.2-0.5,0.2-1V202z"/>
	<path class="st0" d="M210.6,200.2l1.1,3.5l1.1-3.5h0.7v4.3H213v-1.7l0-1.7l-1.1,3.3h-0.4l-1.1-3.3l0,1.7v1.7h-0.5v-4.3H210.6z"/>
</g>
<g>
	<path class="st0" d="M276.7,199.1c0,0.6-0.1,1-0.4,1.3s-0.6,0.5-1.1,0.5c-0.4,0-0.8-0.2-1-0.5c-0.3-0.3-0.4-0.7-0.4-1.3v-0.8
		c0-0.6,0.1-1,0.4-1.3c0.3-0.3,0.6-0.5,1.1-0.5c0.4,0,0.8,0.2,1.1,0.5s0.4,0.8,0.4,1.3V199.1z M276.2,198.4c0-0.5-0.1-0.8-0.2-1
		c-0.1-0.2-0.4-0.3-0.7-0.3c-0.3,0-0.5,0.1-0.7,0.3s-0.2,0.6-0.2,1v0.8c0,0.4,0.1,0.8,0.2,1s0.4,0.3,0.7,0.3s0.5-0.1,0.7-0.3
		s0.2-0.5,0.2-1V198.4z"/>
	<path class="st0" d="M280.3,200.9h-0.5l-1.7-3.3v3.3h-0.5v-4.3h0.5l1.7,3.3v-3.3h0.5V200.9z"/>
	<path class="st0" d="M283.3,198.9h-1.5v1.5h1.8v0.5h-2.3v-4.3h2.3v0.5h-1.7v1.4h1.5V198.9z"/>
	<path class="st0" d="M285.1,199.3h-1.2v-0.4h1.2V199.3z"/>
	<path class="st0" d="M286.5,199.5l0.1,0.5l0.1-0.4l0.7-3h0.4l0.7,3l0.1,0.4l0.1-0.5l0.5-2.9h0.5l-0.8,4.3h-0.5l-0.7-3.1l0-0.3
		l0,0.3l-0.7,3.1h-0.5l-0.8-4.3h0.5L286.5,199.5z"/>
	<path class="st0" d="M292.2,199.7h-1.4l-0.3,1.1h-0.6l1.4-4.3h0.5l1.4,4.3h-0.6L292.2,199.7z M290.9,199.3h1.2l-0.6-1.9
		L290.9,199.3z"/>
	<path class="st0" d="M294.5,198.7l0.9-2.1h0.6l-1.2,2.7v1.6h-0.5v-1.6l-1.2-2.7h0.6L294.5,198.7z"/>
	<path class="st0" d="M271.2,208.1v-4.3h1c0.5,0,0.9,0.2,1.2,0.5c0.3,0.3,0.4,0.8,0.4,1.3v0.7c0,0.6-0.1,1-0.4,1.3
		c-0.3,0.3-0.7,0.5-1.2,0.5H271.2z M271.8,204.3v3.3h0.4c0.4,0,0.7-0.1,0.8-0.3s0.3-0.5,0.3-1v-0.8c0-0.4-0.1-0.8-0.3-1
		s-0.4-0.3-0.8-0.3H271.8z"/>
	<path class="st0" d="M276.7,207h-1.4l-0.3,1.1h-0.6l1.4-4.3h0.5l1.4,4.3H277L276.7,207z M275.4,206.5h1.2l-0.6-1.9L275.4,206.5z"/>
	<path class="st0" d="M280.2,204.3h-1.1v3.8h-0.5v-3.8h-1.1v-0.5h2.8V204.3z"/>
	<path class="st0" d="M282.6,207h-1.4l-0.3,1.1h-0.6l1.4-4.3h0.5l1.4,4.3H283L282.6,207z M281.3,206.5h1.2l-0.6-1.9L281.3,206.5z"/>
	<path class="st0" d="M287.4,206.2H286v1.9h-0.5v-4.3h2.2v0.5H286v1.5h1.4V206.2z"/>
	<path class="st0" d="M288.9,207.6h1.7v0.5h-2.2v-4.3h0.5V207.6z"/>
	<path class="st0" d="M293.8,206.3c0,0.6-0.1,1-0.4,1.3s-0.6,0.5-1.1,0.5c-0.4,0-0.8-0.2-1-0.5c-0.3-0.3-0.4-0.7-0.4-1.3v-0.8
		c0-0.6,0.1-1,0.4-1.3c0.3-0.3,0.6-0.5,1.1-0.5c0.4,0,0.8,0.2,1.1,0.5s0.4,0.8,0.4,1.3V206.3z M293.2,205.6c0-0.5-0.1-0.8-0.2-1
		c-0.1-0.2-0.4-0.3-0.7-0.3c-0.3,0-0.5,0.1-0.7,0.3s-0.2,0.6-0.2,1v0.8c0,0.4,0.1,0.8,0.2,1s0.4,0.3,0.7,0.3s0.5-0.1,0.7-0.3
		s0.2-0.5,0.2-1V205.6z"/>
	<path class="st0" d="M295.4,206.7l0.1,0.5l0.1-0.4l0.7-3h0.4l0.7,3l0.1,0.4l0.1-0.5l0.5-2.9h0.5l-0.8,4.3h-0.5l-0.7-3.1l0-0.3
		l0,0.3l-0.7,3.1h-0.5l-0.8-4.3h0.5L295.4,206.7z"/>
</g>
</svg>
