<svg id="Layer_1" data-name="Layer 1" xmlns="http://www.w3.org/2000/svg" viewBox="0 0 309.711 46.333"><defs><style>.cls-1,.cls-3{fill:#fff;}.cls-1{opacity:0.1;}.cls-2{fill:none;stroke:#fff;stroke-miterlimit:10;}</style></defs><title>paradigm</title><circle class="cls-1" cx="23.167" cy="23.167" r="22.667"/><circle class="cls-1" cx="110.959" cy="23.167" r="22.667"/><circle class="cls-1" cx="198.752" cy="23.167" r="22.667"/><circle class="cls-1" cx="286.544" cy="23.167" r="22.667"/><circle class="cls-2" cx="23.167" cy="23.167" r="22.667"/><circle class="cls-2" cx="110.959" cy="23.167" r="22.667"/><circle class="cls-3" cx="49.063" cy="23.167" r="0.5"/><circle class="cls-3" cx="52.063" cy="23.167" r="0.5"/><circle class="cls-3" cx="55.063" cy="23.167" r="0.5"/><circle class="cls-3" cx="58.063" cy="23.167" r="0.5"/><circle class="cls-3" cx="61.063" cy="23.167" r="0.5"/><circle class="cls-3" cx="64.063" cy="23.167" r="0.5"/><circle class="cls-3" cx="67.063" cy="23.167" r="0.5"/><circle class="cls-3" cx="70.063" cy="23.167" r="0.5"/><circle class="cls-3" cx="73.063" cy="23.167" r="0.5"/><circle class="cls-3" cx="76.063" cy="23.167" r="0.5"/><circle class="cls-3" cx="79.063" cy="23.167" r="0.5"/><circle class="cls-3" cx="82.063" cy="23.167" r="0.5"/><circle class="cls-3" cx="85.063" cy="23.167" r="0.5"/><circle class="cls-2" cx="198.752" cy="23.167" r="22.667"/><circle class="cls-3" cx="136.855" cy="23.167" r="0.5"/><circle class="cls-3" cx="139.855" cy="23.167" r="0.5"/><circle class="cls-3" cx="142.855" cy="23.167" r="0.5"/><circle class="cls-3" cx="145.855" cy="23.167" r="0.5"/><circle class="cls-3" cx="148.855" cy="23.167" r="0.5"/><circle class="cls-3" cx="151.855" cy="23.167" r="0.5"/><circle class="cls-3" cx="154.855" cy="23.167" r="0.5"/><circle class="cls-3" cx="157.855" cy="23.167" r="0.5"/><circle class="cls-3" cx="160.855" cy="23.167" r="0.5"/><circle class="cls-3" cx="163.855" cy="23.167" r="0.5"/><circle class="cls-3" cx="166.855" cy="23.167" r="0.5"/><circle class="cls-3" cx="169.855" cy="23.167" r="0.5"/><circle class="cls-3" cx="172.855" cy="23.167" r="0.5"/><circle class="cls-2" cx="286.544" cy="23.167" r="22.667"/><circle class="cls-3" cx="224.648" cy="23.167" r="0.5"/><circle class="cls-3" cx="227.648" cy="23.167" r="0.5"/><circle class="cls-3" cx="230.648" cy="23.167" r="0.5"/><circle class="cls-3" cx="233.648" cy="23.167" r="0.5"/><circle class="cls-3" cx="236.648" cy="23.167" r="0.5"/><circle class="cls-3" cx="239.648" cy="23.167" r="0.5"/><circle class="cls-3" cx="242.648" cy="23.167" r="0.5"/><circle class="cls-3" cx="245.648" cy="23.167" r="0.5"/><circle class="cls-3" cx="248.648" cy="23.167" r="0.5"/><circle class="cls-3" cx="251.648" cy="23.167" r="0.5"/><circle class="cls-3" cx="254.648" cy="23.167" r="0.5"/><circle class="cls-3" cx="257.648" cy="23.167" r="0.5"/><circle class="cls-3" cx="260.648" cy="23.167" r="0.5"/><path class="cls-3" d="M9.166,23.943a1.578,1.578,0,0,1-.386,1.05,1.3,1.3,0,0,1-.988.365,1.221,1.221,0,0,1-1.02-.488,2.1,2.1,0,0,1-.378-1.322v-.774a2.045,2.045,0,0,1,.388-1.315,1.284,1.284,0,0,1,1.059-.484,1.233,1.233,0,0,1,.957.369A1.619,1.619,0,0,1,9.166,22.4H8.624a1.32,1.32,0,0,0-.22-.744.688.688,0,0,0-.563-.223.764.764,0,0,0-.67.341,1.767,1.767,0,0,0-.235,1v.782a1.871,1.871,0,0,0,.218.993.708.708,0,0,0,.638.346.768.768,0,0,0,.6-.208,1.316,1.316,0,0,0,.229-.747Z"/><path class="cls-3" d="M12.667,23.542a2.125,2.125,0,0,1-.372,1.344,1.268,1.268,0,0,1-1.058.472A1.283,1.283,0,0,1,10.2,24.9a2.025,2.025,0,0,1-.4-1.3v-.8a2.131,2.131,0,0,1,.377-1.34,1.263,1.263,0,0,1,1.055-.485,1.278,1.278,0,0,1,1.05.465,2.093,2.093,0,0,1,.386,1.325Zm-.536-.747a1.824,1.824,0,0,0-.222-1.007.85.85,0,0,0-1.347,0,1.761,1.761,0,0,0-.23.984v.765a1.8,1.8,0,0,0,.227,1,.852.852,0,0,0,1.346.026,1.783,1.783,0,0,0,.226-.97Z"/><path class="cls-3" d="M14.187,21.034l1.113,3.48,1.114-3.48h.691V25.3h-.536V23.638l.05-1.664L15.5,25.3h-.411l-1.11-3.313.05,1.652V25.3H13.5V21.034Z"/><path class="cls-3" d="M18.564,23.63V25.3h-.536V21.034h1.359a1.236,1.236,0,0,1,.935.355,1.319,1.319,0,0,1,.34.949,1.3,1.3,0,0,1-.324.948,1.256,1.256,0,0,1-.913.344Zm0-.46h.823a.7.7,0,0,0,.548-.214.9.9,0,0,0,.191-.614.927.927,0,0,0-.2-.617.668.668,0,0,0-.539-.231h-.826Z"/><path class="cls-3" d="M24.128,23.542a2.125,2.125,0,0,1-.372,1.344,1.417,1.417,0,0,1-2.1.013,2.031,2.031,0,0,1-.4-1.3v-.8a2.131,2.131,0,0,1,.378-1.34,1.263,1.263,0,0,1,1.055-.485,1.278,1.278,0,0,1,1.05.465,2.093,2.093,0,0,1,.386,1.325Zm-.537-.747a1.825,1.825,0,0,0-.221-1.007.85.85,0,0,0-1.347,0,1.761,1.761,0,0,0-.23.984v.765a1.8,1.8,0,0,0,.227,1,.852.852,0,0,0,1.346.026,1.775,1.775,0,0,0,.225-.97Z"/><path class="cls-3" d="M26.82,24.221a.655.655,0,0,0-.173-.489,1.764,1.764,0,0,0-.624-.331,2.7,2.7,0,0,1-.69-.338,1.2,1.2,0,0,1-.357-.4A1.2,1.2,0,0,1,25.2,21.3a1.224,1.224,0,0,1,.887-.328,1.33,1.33,0,0,1,.668.167,1.162,1.162,0,0,1,.451.466,1.385,1.385,0,0,1,.158.656H26.82a.9.9,0,0,0-.19-.612.69.69,0,0,0-.548-.217.675.675,0,0,0-.5.182.7.7,0,0,0-.179.511.6.6,0,0,0,.193.452,1.746,1.746,0,0,0,.6.326,2.051,2.051,0,0,1,.9.513,1.15,1.15,0,0,1,.271.8,1.076,1.076,0,0,1-.337.831,1.292,1.292,0,0,1-.917.312,1.492,1.492,0,0,1-.687-.162,1.241,1.241,0,0,1-.5-.457,1.272,1.272,0,0,1-.18-.676h.539a.828.828,0,0,0,.221.615.814.814,0,0,0,.6.22.713.713,0,0,0,.533-.182A.676.676,0,0,0,26.82,24.221Z"/><path class="cls-3" d="M30.054,24.183H28.613L28.282,25.3h-.551l1.374-4.265h.46L30.942,25.3h-.551Zm-1.3-.46h1.163l-.583-1.939Z"/><path class="cls-3" d="M31.522,25.3V21.034h1.216a1.217,1.217,0,0,1,.877.284,1.131,1.131,0,0,1,.295.853.938.938,0,0,1-.15.527,1,1,0,0,1-.4.354.812.812,0,0,1,.464.361,1.2,1.2,0,0,1,.172.656,1.247,1.247,0,0,1-.315.9,1.185,1.185,0,0,1-.9.328Zm.536-2.446h.689a.579.579,0,0,0,.449-.187.865.865,0,0,0,.017-1.012.638.638,0,0,0-.475-.16h-.68Zm0,.451V24.84h.733a.613.613,0,0,0,.483-.2.819.819,0,0,0,.179-.564q0-.771-.651-.771Z"/><path class="cls-3" d="M35.334,24.84h1.673V25.3H34.8V21.034h.539Z"/><path class="cls-3" d="M39.69,23.328H38.181V24.84h1.758V25.3H37.645V21.034H39.91v.46H38.181v1.374H39.69Z"/><path class="cls-3" d="M94.6,25.3V21.034h1.017a1.468,1.468,0,0,1,1.16.467,1.922,1.922,0,0,1,.413,1.314v.715a1.885,1.885,0,0,1-.419,1.309,1.563,1.563,0,0,1-1.216.46Zm.536-3.8V24.84h.431a1,1,0,0,0,.826-.325,1.529,1.529,0,0,0,.267-.96V22.8a1.545,1.545,0,0,0-.26-.99.954.954,0,0,0-.783-.315Z"/><path class="cls-3" d="M100.074,23.328H98.565V24.84h1.758V25.3H98.029V21.034h2.265v.46H98.565v1.374h1.509Z"/><path class="cls-3" d="M103.683,23.943a1.577,1.577,0,0,1-.385,1.05,1.3,1.3,0,0,1-.989.365,1.22,1.22,0,0,1-1.019-.488,2.1,2.1,0,0,1-.378-1.322v-.774a2.04,2.04,0,0,1,.388-1.315,1.284,1.284,0,0,1,1.059-.484,1.234,1.234,0,0,1,.957.369,1.619,1.619,0,0,1,.367,1.058h-.542a1.313,1.313,0,0,0-.219-.744.688.688,0,0,0-.563-.223.766.766,0,0,0-.671.341,1.776,1.776,0,0,0-.234,1v.782a1.871,1.871,0,0,0,.218.993.707.707,0,0,0,.637.346.769.769,0,0,0,.6-.208,1.309,1.309,0,0,0,.228-.747Z"/><path class="cls-3" d="M104.949,24.84h1.673V25.3H104.41V21.034h.539Z"/><path class="cls-3" d="M109.305,24.183h-1.441l-.331,1.116h-.551l1.374-4.265h.46l1.377,4.265h-.551Zm-1.3-.46h1.163l-.583-1.939Z"/><path class="cls-3" d="M112.062,23.574h-.75V25.3h-.539V21.034h1.2a1.282,1.282,0,0,1,.95.326,1.314,1.314,0,0,1,.322.957,1.33,1.33,0,0,1-.174.69,1.1,1.1,0,0,1-.494.444l.826,1.813V25.3h-.577Zm-.75-.46h.651a.7.7,0,0,0,.537-.217.824.824,0,0,0,.2-.582q0-.82-.744-.821h-.645Z"/><path class="cls-3" d="M115.947,24.183h-1.441l-.332,1.116h-.55L115,21.034h.46l1.377,4.265h-.551Zm-1.3-.46h1.163l-.583-1.939Z"/><path class="cls-3" d="M119.53,21.494h-1.122V25.3h-.536v-3.8h-1.119v-.46h2.777Z"/><path class="cls-3" d="M120.719,25.3h-.536V21.034h.536Z"/><path class="cls-3" d="M122.879,24.476l.975-3.442h.589L123.116,25.3h-.469l-1.324-4.265h.586Z"/><path class="cls-3" d="M127.065,23.328h-1.509V24.84h1.758V25.3H125.02V21.034h2.265v.46h-1.729v1.374h1.509Z"/><path class="cls-3" d="M183.86,24.476l.976-3.442h.588L184.1,25.3h-.468L182.3,21.034h.586Z"/><path class="cls-3" d="M186.561,25.3h-.536V21.034h.536Z"/><path class="cls-3" d="M188.791,23.574h-.75V25.3H187.5V21.034H188.7a1.279,1.279,0,0,1,.949.326,1.309,1.309,0,0,1,.322.957,1.33,1.33,0,0,1-.174.69,1.1,1.1,0,0,1-.494.444l.827,1.813V25.3h-.578Zm-.75-.46h.65a.694.694,0,0,0,.537-.217.824.824,0,0,0,.2-.582q0-.82-.744-.821h-.644Z"/><path class="cls-3" d="M192.945,21.494h-1.122V25.3h-.536v-3.8h-1.119v-.46h2.777Z"/><path class="cls-3" d="M196.118,21.034v3.032a1.38,1.38,0,0,1-2.282.956,1.313,1.313,0,0,1-.34-.956V21.034h.533v3.01a.963.963,0,0,0,.183.642.931.931,0,0,0,1.183,0,.963.963,0,0,0,.184-.642v-3.01Z"/><path class="cls-3" d="M198.869,24.183h-1.442L197.1,25.3h-.55l1.374-4.265h.46l1.377,4.265h-.551Zm-1.3-.46h1.163l-.583-1.939Z"/><path class="cls-3" d="M200.876,24.84h1.673V25.3h-2.212V21.034h.539Z"/><path class="cls-3" d="M204.561,25.3V21.034h1.017a1.468,1.468,0,0,1,1.16.467,1.922,1.922,0,0,1,.413,1.314v.715a1.885,1.885,0,0,1-.419,1.309,1.563,1.563,0,0,1-1.216.46Zm.536-3.8V24.84h.431a1,1,0,0,0,.826-.325,1.529,1.529,0,0,0,.267-.96V22.8a1.545,1.545,0,0,0-.26-.99.956.956,0,0,0-.783-.315Z"/><path class="cls-3" d="M210.76,23.542a2.125,2.125,0,0,1-.372,1.344,1.266,1.266,0,0,1-1.057.472,1.281,1.281,0,0,1-1.042-.459,2.025,2.025,0,0,1-.4-1.3v-.8a2.131,2.131,0,0,1,.378-1.34,1.263,1.263,0,0,1,1.055-.485,1.278,1.278,0,0,1,1.05.465,2.086,2.086,0,0,1,.385,1.325Zm-.536-.747A1.834,1.834,0,0,0,210,21.788a.851.851,0,0,0-1.348,0,1.769,1.769,0,0,0-.23.984v.765a1.812,1.812,0,0,0,.227,1,.853.853,0,0,0,1.347.026,1.784,1.784,0,0,0,.225-.97Z"/><path class="cls-3" d="M212.281,21.034l1.113,3.48,1.114-3.48h.691V25.3h-.536V23.638l.05-1.664L213.6,25.3h-.41l-1.11-3.313.05,1.652V25.3h-.536V21.034Z"/><path class="cls-3" d="M278.348,19.942a2.125,2.125,0,0,1-.372,1.344,1.266,1.266,0,0,1-1.057.472,1.279,1.279,0,0,1-1.041-.459,2.025,2.025,0,0,1-.4-1.3v-.8a2.131,2.131,0,0,1,.378-1.34,1.263,1.263,0,0,1,1.055-.485,1.278,1.278,0,0,1,1.051.465,2.092,2.092,0,0,1,.384,1.325Zm-.536-.748a1.823,1.823,0,0,0-.221-1.006.85.85,0,0,0-1.347.005,1.76,1.76,0,0,0-.231.984v.765a1.812,1.812,0,0,0,.228,1,.853.853,0,0,0,1.346.026,1.784,1.784,0,0,0,.225-.97Z"/><path class="cls-3" d="M281.964,21.7h-.539l-1.709-3.287V21.7h-.539V17.434h.539l1.714,3.3v-3.3h.534Z"/><path class="cls-3" d="M284.937,19.728h-1.509v1.511h1.758v.46h-2.294V17.434h2.265v.46h-1.729v1.374h1.509Z"/><path class="cls-3" d="M286.759,20.109H285.55v-.443h1.209Z"/><path class="cls-3" d="M288.175,20.355l.055.477.085-.422L289,17.434h.448l.662,2.976.085.434.062-.492.521-2.918h.536l-.849,4.265h-.484l-.712-3.108-.044-.252-.044.252-.738,3.108h-.486l-.847-4.265h.536Z"/><path class="cls-3" d="M293.794,20.583h-1.442l-.331,1.116h-.551l1.374-4.265h.46l1.377,4.265h-.55Zm-1.3-.46h1.163l-.583-1.939Z"/><path class="cls-3" d="M296.1,19.575l.873-2.141h.607l-1.213,2.675V21.7h-.536v-1.59l-1.213-2.675h.609Z"/><path class="cls-3" d="M272.882,28.9V24.634H273.9a1.468,1.468,0,0,1,1.16.467,1.917,1.917,0,0,1,.413,1.314v.715a1.88,1.88,0,0,1-.419,1.309,1.562,1.562,0,0,1-1.215.461Zm.536-3.806V28.44h.43a1,1,0,0,0,.827-.325,1.534,1.534,0,0,0,.266-.96V26.4a1.545,1.545,0,0,0-.259-.99.956.956,0,0,0-.784-.315Z"/><path class="cls-3" d="M278.3,27.783h-1.442l-.331,1.117h-.551l1.374-4.266h.46l1.377,4.266h-.55Zm-1.3-.46h1.163l-.583-1.939Z"/><path class="cls-3" d="M281.879,25.094h-1.122V28.9h-.537V25.094H279.1v-.46h2.778Z"/><path class="cls-3" d="M284.266,27.783h-1.441l-.331,1.117h-.551l1.374-4.266h.46l1.377,4.266H284.6Zm-1.3-.46h1.163l-.583-1.939Z"/><path class="cls-3" d="M289.086,27.016h-1.442V28.9h-.536V24.634h2.221v.46h-1.685v1.462h1.442Z"/><path class="cls-3" d="M290.53,28.44H292.2v.46h-2.212V24.634h.539Z"/><path class="cls-3" d="M295.425,27.142a2.125,2.125,0,0,1-.372,1.344,1.266,1.266,0,0,1-1.057.472,1.279,1.279,0,0,1-1.041-.459,2.025,2.025,0,0,1-.4-1.3v-.8a2.132,2.132,0,0,1,.378-1.341,1.263,1.263,0,0,1,1.055-.485,1.28,1.28,0,0,1,1.051.465,2.086,2.086,0,0,1,.384,1.325Zm-.536-.747a1.839,1.839,0,0,0-.22-1.007.763.763,0,0,0-.679-.329.755.755,0,0,0-.669.334,1.763,1.763,0,0,0-.23.984v.765a1.812,1.812,0,0,0,.227,1,.852.852,0,0,0,1.346.026,1.784,1.784,0,0,0,.225-.97Z"/><path class="cls-3" d="M297.069,27.555l.056.477.085-.421.682-2.977h.449L299,27.611l.085.433.061-.492.522-2.918h.536l-.85,4.266h-.483l-.712-3.109-.044-.252-.044.252-.738,3.109h-.487L296,24.634h.536Z"/></svg>